<svg width="307" height="146" viewBox="0 0 307 146" fill="none" xmlns="http://www.w3.org/2000/svg">
<path d="M20.4199 54.1101C17.1099 51.6301 13.6299 49.4101 10.6199 46.6801C7.97995 44.2901 6.60994 40.9601 6.12994 37.3901C5.73994 34.5201 5.04995 31.6201 5.18995 28.7601C5.43995 23.7501 6.85995 19.1501 9.61995 14.6701C12.6399 9.78011 16.9599 6.69011 21.4499 3.78011C23.8299 2.24011 26.9899 1.48011 29.8699 1.22011C34.5099 0.810112 39.2899 0.600113 43.8599 1.26011C48.0599 1.87011 52.0799 3.63011 55.8599 5.89011C60.2699 8.53011 63.6299 12.3301 65.6699 16.5701C68.4399 22.3201 70.5599 28.7001 68.6699 35.3901C67.7999 38.4501 66.7799 41.5001 65.4499 44.3901C64.7999 45.8001 63.4199 46.9801 62.1399 47.9801C59.4699 50.0701 56.6599 51.9801 53.6999 54.1101C54.0399 54.3701 54.6199 55.0101 55.3499 55.3501C57.7399 56.4701 60.3799 57.1901 62.5299 58.6501C64.2499 59.8101 65.5299 61.7301 66.7499 63.4901C67.6499 64.8001 68.3099 65.1301 68.8899 63.5001C70.2399 59.7001 71.42 55.8301 72.71 52.0001C73.38 50.0101 74.1099 48.0401 74.8699 46.0901C76.4899 41.9201 78.18 37.7701 79.77 33.5901C81.43 29.2201 83.02 24.8201 84.63 20.4401C85.57 17.8701 86.49 15.3001 87.4399 12.7401C88.6899 9.37011 90.0199 6.03011 91.2299 2.64011C91.8299 0.970112 92.8799 0.500112 94.6099 0.570112C98.0799 0.710112 101.55 0.610113 105.03 0.610113C107.4 0.610113 109.28 2.38011 109.83 4.69011C110.38 7.00011 111.15 9.27011 112 11.5001C113.22 14.7201 114.58 17.8901 115.88 21.0801C116.81 23.3701 117.8 25.6401 118.65 27.9601C120 31.6401 121.14 35.4001 122.57 39.0401C124.27 43.4001 126.24 47.6501 127.97 52.0001C129.46 55.7601 130.78 59.5801 132.2 63.3701C132.46 64.0501 132.89 64.6701 133.18 65.3401C134.85 69.0901 136.99 72.7301 138.06 76.6501C139.46 81.7901 141.69 86.5201 143.77 91.3501C145.17 94.6101 146.46 97.9201 147.72 101.24C147.98 101.92 147.73 102.79 148 103.47C148.25 104.09 148.82 104.95 149.35 105.03C154.91 105.87 160.49 106.58 165.41 107.23C166.37 105.48 167.09 104.28 167.67 103.03C167.85 102.64 167.69 102.07 167.6 101.6C167.31 100.12 166.97 98.6501 166.67 97.1701C165.87 93.2101 166.31 92.6401 170.71 92.3001C171.75 87.4801 172.78 82.5601 173.89 77.6601C174.05 76.9701 174.48 76.2601 174.98 75.7601C176.7 74.0401 178.51 72.4001 180.82 70.2401C175.48 69.0601 170.9 68.2501 166.44 67.0101C161.86 65.7401 157.39 64.0301 152.87 62.5401C151.69 62.1501 150.43 61.9601 149.3 61.4801C147.89 60.8801 146.56 60.0901 145.2 59.3701C141.26 57.2801 137.8 54.2801 135.64 50.6601C132.08 44.6701 130.46 38.1501 131.79 30.7501C132.5 26.8001 134.15 23.3601 135.54 19.8801C136.63 17.1501 139.49 14.8101 142.07 13.0501C145.66 10.5901 149.64 8.61011 153.64 6.83011C155.53 5.99011 157.84 5.93011 159.97 5.82011C163.88 5.63011 167.79 5.67011 171.71 5.62011C172.22 5.61011 172.72 5.64011 173.23 5.69011C176.86 6.03011 180.6 5.91011 184.08 6.82011C188.89 8.09011 193.71 10.1201 197.3 13.4901C200.82 16.7901 203.79 20.9201 206.07 25.1901C207.67 28.1901 207.7 32.0201 208.42 35.4801C208.57 36.2001 208.64 36.9301 208.83 38.1401C207.15 38.4701 205.37 38.9801 203.55 39.1501C201.62 39.3301 199.65 39.1301 197.71 39.2101C195.77 39.2901 195.07 38.5501 194.6 36.5401C193.79 33.0601 192.49 29.6501 190.99 26.4001C190.38 25.0801 188.71 24.2401 187.78 23.0101C185.86 22.0001 183.94 20.9901 182.03 19.9701C181.76 19.8301 181.55 19.4701 181.29 19.4501C175.17 19.0801 168.98 18.0701 162.95 18.6601C159.6 18.9901 155.81 19.0201 152.56 21.3601C147.21 25.2201 143.47 32.1301 145.01 38.2201C145.97 42.0201 148.51 45.2101 152.33 46.7701C156.8 48.6001 161.35 50.2701 165.95 51.7101C169.56 52.8401 173.34 53.4001 176.98 54.4401C181.26 55.6601 185.83 55.8901 189.79 58.3501C190.48 58.7801 192.18 57.9301 193.24 57.3601C195.05 56.3901 196.67 55.0601 198.47 54.0601C204.42 50.7801 210.26 47.2201 216.45 44.4801C220.67 42.6201 225.38 41.2001 229.95 40.9101C238.16 40.4001 246.46 40.0301 254.56 42.5501C257.25 43.3901 260.22 43.2801 263.04 43.7401C265.42 44.1201 267.77 44.6901 270.14 45.1801C271.03 45.3701 271.94 45.8101 272.81 45.7301C277.01 45.3401 280.51 47.0001 284.3 48.5701C288.14 50.1601 292.63 50.1501 296.83 50.8701C299.3 51.2901 301.79 51.6701 304.23 52.2601C306.17 52.7301 306.51 54.3301 305.78 55.8701C304.21 59.1901 302.51 62.4701 300.67 65.6601C297.91 70.4501 295.22 75.3101 292.07 79.8401C287.37 86.6001 282.51 93.2501 276.18 98.6901C272.76 101.63 269.63 104.9 266.52 108.18C264.23 110.59 263.31 110.87 260.74 109.05C258.07 110.72 255.48 112.61 252.64 114C250.91 114.85 248.79 114.9 246.87 115.37C245.77 115.64 244.55 115.82 243.64 116.42C237.38 120.52 230.71 122.04 223.36 120.1C221.67 119.65 219.92 119.45 217.96 119.09C218.15 119.46 218.41 119.76 218.46 120.09C218.6 121.11 219.12 122.59 218.65 123.07C217.98 123.74 216.56 123.94 215.48 123.88C212.91 123.75 210.35 123.05 207.8 123.11C201.43 123.28 195.99 120.77 190.69 117.71C189.29 116.9 186.84 117.82 185.79 119.67C185.08 119.42 184.2 118.76 183.69 118.98C179.28 120.86 174.68 119.5 170.19 119.9C169.35 119.97 168.49 119.97 167.65 119.9C165.6 119.71 164.25 120 163.21 122.33C162.62 123.66 160.18 124.39 158.44 124.94C153.19 126.6 148.24 128.53 145.17 133.55C144.23 135.08 143.01 136.51 141.67 137.7C140.97 138.32 139.62 138.77 138.75 138.55C133.93 137.33 132.6 137.96 129.99 142.43C129.23 143.73 127.78 144.75 126.43 145.51C126.04 145.73 124.41 144.76 124.19 144.07C123.53 142.03 124.63 140.36 126.03 138.89C127.08 137.8 127.63 136.73 126.81 135.07C125.68 132.78 127.97 131.42 128.83 129.69C129.41 128.51 130.16 127.37 131.03 126.39C132.16 125.13 133.44 123.95 135.43 124.73C135.86 124.9 136.55 125.01 136.85 124.79C139.25 123.03 141.59 121.19 144.55 118.91C142.69 118.91 141.55 118.91 140.42 118.91C137.35 118.91 135.36 117.87 135.44 115.1C135.52 112.27 133.62 110.46 133.15 108C132.76 106.01 131.93 104.09 131.17 102.18C129.49 97.9801 127.7 93.8201 126.04 89.6101C125.44 88.0801 125.26 86.3501 124.5 84.9201C124.03 84.0301 122.83 82.9601 121.95 82.9501C107.3 82.8301 92.64 82.8401 77.99 82.9301C77.2599 82.9301 76.2 83.7101 75.88 84.4001C74.7599 86.7601 73.8699 89.2201 72.9699 91.6701C72.5799 92.7301 72.5499 93.9501 72.0399 94.9301C70.1299 98.5901 68.2299 102.27 66.0399 105.77C65.0399 107.36 63.5299 108.76 61.9799 109.85C58.9699 111.97 55.8699 114.05 52.5799 115.7C50.3399 116.82 47.7599 117.49 45.2499 117.81C41.6699 118.27 38.0099 118.46 34.3999 118.33C31.1799 118.21 27.8699 117.88 24.8099 116.95C18.7399 115.1 13.5099 111.64 9.28994 106.89C6.34994 103.58 3.55994 100.03 2.62994 95.5701C1.72994 91.2701 0.439946 86.8401 0.729946 82.5601C1.18995 75.9501 1.74995 69.1301 6.65995 63.6901C9.25995 60.8101 14.7199 55.8901 18.6799 55.3801C19.4399 55.2401 20.1199 54.3301 20.4199 54.1101ZM199.79 116.42C200.59 116.06 200.79 115.88 201 115.88C207.82 115.63 214.58 115.82 221.23 117.64C223.46 118.25 225.8 118.77 228.09 118.78C230.64 118.79 233.26 118.42 235.72 117.75C237.77 117.19 239.62 115.91 241.6 115.04C243.06 114.39 244.61 113.35 246.08 113.4C248.88 113.5 250.99 112.43 253.2 110.96C256.4 108.85 259.81 107.06 263.12 105.13C263.25 105.29 263.39 105.46 263.52 105.62C263.26 106.42 263.01 107.21 262.83 107.78C280.77 93.3601 294.29 75.4701 303.98 54.2501C302.6 53.9301 301.34 53.5601 300.05 53.3501C296.76 52.8101 293.46 52.3501 290.16 51.8501C287.62 51.4701 284.47 51.8801 282.66 50.5201C279.23 47.9501 275.64 47.9201 271.79 47.6301C268.91 47.4101 266.12 46.2701 263.26 45.7101C259.51 44.9701 255.75 44.1101 251.95 43.8101C244.74 43.2501 237.49 42.6501 230.28 42.8801C226.17 43.0101 221.89 44.2501 218.07 45.8801C213.32 47.9101 208.98 50.8701 204.45 53.4201C201.25 55.2201 198.04 57.0001 195.21 58.5801C198.35 61.0901 201.7 63.6601 204.92 66.3701C209.16 69.9401 211.1 74.9901 211.84 80.1201C212.55 85.0601 212.61 90.1401 211.14 95.2501C209.39 101.31 206.11 106.15 201.65 110.26C199.04 112.66 195.91 114.49 192.63 116.86C195.3 117.69 197.92 117.99 199.91 119.27C202.42 120.89 204.97 121.05 207.69 121.08C210.62 121.12 213.55 121.2 217.13 121.28C211.47 118.75 205.21 119.78 199.79 116.42ZM37.6599 60.4901C22.3399 59.8901 15.3399 70.8101 14.4199 82.6001C13.4699 94.7101 24.7599 107.09 35.6599 107.19C50.9399 107.34 58.4299 96.6701 59.8999 85.6201C60.9199 77.9601 57.4499 71.4001 52.2899 65.9801C48.2499 61.7501 42.9599 60.1101 37.6599 60.4901ZM37.1599 48.8201C48.0899 48.3201 54.5799 41.2001 54.7999 31.0801C55.0199 20.7501 48.1599 13.6001 39.6799 12.7301C33.1799 12.0601 27.6599 13.6801 23.1099 18.4601C19.8599 21.8801 19.4699 26.1501 19.3399 30.4901C19.0199 41.8901 27.6299 48.3401 37.1599 48.8201ZM81.0299 69.8501C94.0499 69.8501 106.64 69.8501 119.14 69.8501C117.29 64.8001 115.49 60.0001 113.77 55.1701C113.28 53.8001 113.11 52.3201 112.6 50.9601C111.39 47.7301 110.02 44.5501 108.8 41.3201C107.73 38.5001 106.81 35.6201 105.77 32.7901C104.26 28.6801 102.58 24.6301 101.22 20.4701C100.58 18.5201 100.51 16.3801 100.19 14.3301C99.9299 14.3401 99.6599 14.3501 99.3999 14.3601C98.2899 18.5001 97.2 22.6401 96.07 26.7701C95.26 29.7101 94.4699 32.6501 93.5299 35.5501C92.6099 38.3801 91.5299 41.1701 90.4699 43.9501C89.8499 45.5701 89.0199 47.1101 88.4799 48.7501C87.3199 52.2601 86.3799 55.8501 85.1499 59.3401C83.9299 62.8401 82.4599 66.2601 81.0299 69.8501ZM168.84 105.08C168.93 105.31 169.03 105.54 169.12 105.77C177.08 105.34 185.24 105.41 191.79 99.8201C193.97 97.9701 196.23 95.4901 196.98 92.8701C197.98 89.3901 198 85.4901 197.14 81.7801C197.05 81.4101 196.65 81.1101 196.46 80.7501C193.76 75.7101 188.67 73.7801 184.02 71.3201C183.55 71.0701 182.41 71.5401 181.9 72.0201C179.95 73.8101 178.1 75.7201 176.29 77.6601C175.95 78.0301 175.92 78.7201 175.84 79.2801C175.75 79.9501 175.9 80.6601 175.73 81.3001C174.61 85.5501 173.43 89.7801 172.2 94.2601C171.16 94.3301 169.75 94.4201 168.33 94.5101C169.31 100.24 168.52 99.7901 171.68 102.99C170.75 103.68 169.8 104.38 168.84 105.08ZM141.33 134.44C145.72 126.7 153.35 123.63 161.73 121.71C161.61 121.26 161.5 120.8 161.38 120.35C156.47 120.13 151.55 119.92 146.73 119.7C146.33 120.13 146 120.61 145.56 120.95C143.44 122.58 141.31 124.21 139.13 125.75C138.38 126.28 137.37 127.03 136.64 126.87C134.24 126.36 132.78 126.88 131.92 129.35C131.51 130.54 130.37 131.47 129.57 132.52C129.39 132.75 129.26 133.02 129.04 133.39C129.86 133.53 130.49 133.64 131.57 133.83C130.64 135.54 129.85 137 129.06 138.45C129.25 138.56 129.44 138.68 129.63 138.79C130.58 137.7 131.48 136.57 132.5 135.56C132.9 135.16 133.89 134.65 134.04 134.8C136.16 136.77 136.92 134.73 138.09 133.6C138.61 133.1 139.42 132.71 140.11 132.68C140.44 132.69 140.8 133.66 141.33 134.44Z" fill="#F6F6F6"/>
</svg>
