<svg width="228" height="146" viewBox="0 0 228 146" fill="none" xmlns="http://www.w3.org/2000/svg">
<path d="M169.58 130.28C169.31 131.02 169.11 131.81 168.76 132.51C167.42 135.18 166.16 137.9 164.61 140.45C163.36 142.51 161.29 143.2 158.92 142.66C156.69 142.15 155.74 140.44 155.47 138.4C154.8 133.19 154.09 127.99 152.13 123.07C151.37 121.16 150.48 119.29 149.61 117.34C135.01 125.35 120.46 123.94 105.47 119.11C105.22 119.76 104.87 120.56 104.62 121.38C102.77 127.35 100.59 133.19 97.1099 138.41C95.6699 140.56 93.93 142.62 91.96 144.27C88.87 146.85 85.28 146.08 83.58 142.41C82.64 140.39 82.4499 137.96 82.2499 135.68C82.0899 133.83 82.4299 131.94 82.4999 130.07C82.5299 129.45 82.43 128.82 82.39 128.19C82.22 128.16 82.0499 128.13 81.8799 128.1C81.6399 128.76 81.3999 129.41 81.1599 130.07C79.9299 133.37 78.84 136.73 77.4 139.94C76.72 141.46 75.5199 142.82 74.2999 144C72.6599 145.6 70.5499 145.86 68.4199 145.1C66.2399 144.32 64.8999 142.65 64.8699 140.35C64.8099 135.79 64.7199 131.2 65.1199 126.66C65.8499 118.35 64.6799 110.38 61.8699 102.57C60.9099 99.9104 60.5199 97.0604 59.7299 94.3304C59.5099 93.5704 58.9499 92.7404 58.2999 92.3204C56.7299 91.3104 54.98 90.6004 53.39 89.6204C52.42 89.0204 51.6399 88.9504 50.7399 89.6704C49.3399 90.8004 47.9099 91.9004 46.4799 92.9804C45.6299 93.6204 44.6799 94.4104 43.7399 93.2804C42.7799 92.1104 43.8699 91.3504 44.6099 90.6604C45.8199 89.5404 47.15 88.5504 48.34 87.4104C48.68 87.0804 48.72 86.4404 48.9 85.9404C48.31 85.8504 47.5999 85.4904 47.1599 85.7004C45.4099 86.5504 43.7599 87.6004 42.0499 88.5304C41.1699 89.0104 40.1299 89.4304 39.4799 88.3004C38.8299 87.1804 39.6799 86.5004 40.5599 85.9604C41.8399 85.1804 43.1499 84.4404 44.4099 83.6304C44.9799 83.2604 45.4699 82.7504 45.9899 82.3004C45.8899 82.0904 45.79 81.8804 45.7 81.6704C45 81.8404 44.2599 81.9404 43.5999 82.2104C42.2099 82.7704 40.9099 83.5904 39.4799 83.9704C38.8299 84.1404 37.97 83.5204 37.2 83.2604C37.59 82.6204 37.83 81.7604 38.4 81.3904C39.71 80.5304 41.1499 79.8604 42.5699 79.1804C43.7199 78.6304 44.0399 77.9204 43.6199 76.6604C41.7099 70.8604 42.03 65.1704 44.39 59.5304C44.92 58.2604 44.82 56.7404 45.09 55.3504C45.52 53.1504 45.7799 50.8804 46.5599 48.8004C47.7599 45.6304 50.8299 45.0204 53.1899 47.4704C54.6799 49.0204 55.86 50.8904 57.03 52.7204C57.8 53.9204 58.63 54.2704 60.02 53.9004C64.77 52.6004 69.5899 52.1804 74.4999 52.9204C75.1599 53.0204 76.1599 52.4204 76.6299 51.8404C77.9499 50.2204 78.9599 48.3404 80.2999 46.7304C83.3899 43.0504 86.5599 43.5604 88.1799 48.0804C89.0299 50.4604 89.38 53.0204 89.96 55.5004C90.55 58.0404 91.16 60.5804 91.71 63.1304C91.98 64.3804 92.63 64.6404 93.83 64.3504C110.09 60.4504 126.59 60.8104 143.06 62.1104C151.33 62.7604 159.52 64.4004 167.74 65.6804C169.43 65.9404 171.06 66.5904 172.71 67.0804C174.46 67.6004 175.42 67.1704 175.99 65.4404C176.61 63.5704 176.56 61.6404 175.32 60.0704C174.03 58.4404 172.62 56.8304 170.99 55.5504C165.29 51.0504 158.63 48.9504 151.51 48.0204C143.52 46.9804 135.52 46.9404 127.49 47.4504C123.98 47.6704 120.44 47.6404 116.92 47.6104C114.44 47.5904 112.22 46.6404 110.32 45.0804C107.02 42.3804 106.98 38.5504 110.23 35.8204C112.58 33.8404 115.37 32.7504 118.38 32.2504C130.71 30.2004 143.13 29.0104 155.56 30.7804C166.06 32.2704 175.84 35.7604 183.11 44.1104C191.99 54.3004 195.34 70.6104 187.94 82.8704C187.43 83.7104 187.28 85.0204 187.48 86.0004C190.33 100.28 189.67 114.34 185.14 128.2C184.05 131.52 182.44 134.56 180.03 137.11C178.54 138.69 176.84 139.96 174.48 139.26C172.16 138.57 171.31 136.66 170.89 134.5C170.62 133.12 170.41 131.72 170.17 130.33C169.98 130.33 169.78 130.3 169.58 130.28ZM90.08 81.3004C89.98 81.4904 89.8899 81.6704 89.7899 81.8604C90.3499 82.2804 90.87 82.7504 91.46 83.1204C92.91 84.0504 94.4099 84.9204 95.8499 85.8704C96.6999 86.4304 97.57 87.3004 96.7599 88.2404C96.2999 88.7704 94.9399 89.0504 94.2599 88.7704C92.5399 88.0604 90.9199 87.0704 89.3799 86.0104C88.0499 85.1004 87.1299 85.0404 85.9199 86.3004C80.6499 91.7904 74.16 94.4004 66.52 94.1804C63.02 94.0804 62.8 94.4304 63.89 97.8604C63.96 98.0704 64.0199 98.2904 64.1099 98.5004C66.7999 104.44 68.25 110.69 68.95 117.16C69.03 117.93 69.8699 119.11 70.5399 119.24C73.0799 119.77 75.6899 120.03 78.2899 120.22C79.5299 120.31 80.39 119.56 80.65 118.25C80.79 117.51 81.01 116.79 81.14 116.05C81.92 111.69 82.6599 107.33 83.4799 102.98C83.6899 101.84 84.17 100.67 85.64 100.89C87.13 101.11 87.0999 102.36 87.0599 103.53C86.9199 108.18 86.8199 112.83 86.6299 117.47C86.5699 118.91 87.09 119.88 88.28 120.65C92.13 123.11 97.2699 122.72 100.49 119.5C101.29 118.7 101.89 117.55 102.23 116.45C103.48 112.36 104.53 108.22 105.76 104.12C106.14 102.86 106.64 101.23 108.42 101.72C110.22 102.22 109.75 103.81 109.43 105.12C108.83 107.52 108.2 109.92 107.54 112.3C106.68 115.44 106.78 115.92 109.93 116.86C117.71 119.17 125.71 119.97 133.74 118.85C137.4 118.34 140.98 117 144.47 115.71C147.35 114.65 147.27 114.26 145.78 111.63C142.27 105.43 140.94 98.7704 141.84 91.7004C141.94 90.9004 142.15 90.0304 142.58 89.3704C142.88 88.9104 143.72 88.4704 144.21 88.5604C144.7 88.6504 145.24 89.3704 145.41 89.9304C145.6 90.5304 145.35 91.2604 145.37 91.9304C145.45 94.4604 145.41 97.0104 145.7 99.5204C146.36 105.2 149.38 109.85 152.11 114.72C154.07 118.23 156.54 119.26 160.13 118.85C161.17 118.73 162.22 118.65 163.25 118.45C167.93 117.57 168.15 117.45 168.23 112.7C168.31 108.35 168.05 104 168.04 99.6504C168.04 98.2104 167.84 96.1904 169.88 96.1204C171.88 96.0504 171.9 98.0204 172 99.4904C172.34 104.58 172.56 109.67 172.94 114.75C173.01 115.71 173.33 116.96 174 117.5C176.85 119.82 184.64 118.52 184.98 112.96C185.4 106.12 185.69 99.3304 184.92 92.5204C184.68 90.3703 184.36 88.1404 183.52 86.1904C182.81 84.5404 183 83.4604 183.94 82.0804C184.94 80.6004 185.89 79.0204 186.48 77.3404C191.01 64.3804 185.94 49.2304 174.53 41.5504C168.95 37.7904 162.66 35.6904 156.11 34.6904C143.44 32.7604 130.82 33.9304 118.29 36.2304C117.05 36.4604 115.82 36.9004 114.68 37.4504C113.43 38.0604 111.82 38.6904 111.94 40.3804C112.06 42.2104 113.69 42.9004 115.22 43.3604C116.28 43.6804 117.43 43.8204 118.54 43.8704C119.96 43.9404 121.39 43.8404 122.81 43.8204C130.83 43.7404 138.85 43.3704 146.86 43.6704C154.55 43.9604 162.06 45.5304 168.85 49.4904C172.62 51.6904 176.28 54.0604 178.54 58.0004C181.02 62.3204 180.34 66.6004 176.7 69.9304C176.42 70.1804 176.12 70.4304 175.92 70.7404C173.26 74.9004 169.26 77.4104 164.89 79.2904C154.5 83.7804 143.87 84.5303 133.09 80.7004C131.55 80.1504 130.28 80.3404 128.8 80.9804C125.57 82.3704 122.31 83.7504 118.94 84.7104C113.99 86.1204 108.97 85.5604 104.04 84.3304C102.82 84.0304 101.63 83.4304 102.06 81.8704C102.45 80.4504 103.72 80.5104 104.86 80.7804C112.97 82.6804 120.49 80.8804 127.65 77.0604C129.58 76.0304 131.4 76.0004 133.49 76.5504C137.1 77.5004 140.76 78.5904 144.45 78.8404C153.12 79.4504 161.32 77.6804 168.53 72.5104C169.2 72.0304 169.74 71.3804 170.45 70.6904C169.88 70.3404 169.65 70.1204 169.38 70.0404C167.93 69.6504 166.49 69.2404 165.02 68.9304C145.7 64.8604 126.18 64.4404 106.57 65.9504C102.84 66.2404 99.1299 66.8704 95.4399 67.4904C93.1899 67.8604 92.8699 68.4704 92.8599 70.4204C92.8399 72.3904 94.1699 72.4504 95.5599 72.6404C96.8199 72.8104 98.14 72.9404 99.27 73.4504C99.9 73.7404 100.54 74.7604 100.54 75.4504C100.54 75.9204 99.4999 76.6104 98.8199 76.8004C98.0699 77.0104 97.1899 76.7904 96.3699 76.7004C95.3999 76.5904 94.4399 76.3204 93.4799 76.3204C92.8999 76.3204 92.3199 76.7004 91.7299 76.9104C92.1399 77.3604 92.47 77.9304 92.96 78.2204C93.6 78.5904 94.37 78.7004 95.08 78.9604C95.85 79.2504 96.74 79.4204 97.33 79.9304C97.86 80.3904 98.4599 81.3704 98.2899 81.8804C98.1199 82.4004 97.02 83.0004 96.4 82.9304C95.01 82.7804 93.6599 82.2304 92.2899 81.8404C91.5499 81.7004 90.81 81.5004 90.08 81.3004ZM67.8099 58.3104C67.6799 58.4704 67.48 58.6704 67.33 58.9004C66.22 60.7604 65.38 62.8604 63.96 64.4304C62.49 66.0604 61.9299 67.3204 62.7999 69.5204C63.9399 72.4304 62.5399 75.3904 59.9099 75.4304C56.6799 75.4804 54.6399 76.8604 52.9299 79.2704C52.7199 79.5704 52.37 79.7604 52.08 80.0004C50.35 81.4404 50.33 81.7704 51.83 83.3604C60.6 92.6604 75.31 92.3404 83.71 82.6804C85.92 80.1404 85.8399 80.2104 83.4999 77.7304C82.2999 76.4604 81.29 76.3004 79.58 76.7304C77.71 77.2004 75.57 77.1804 73.65 76.8004C70.86 76.2504 69.7099 74.0404 70.6299 71.3404C71.1499 69.8104 72.1599 68.4504 72.8599 66.9604C73.1199 66.4204 73.4199 65.5204 73.1699 65.1804C71.4899 62.8704 69.6599 60.6404 67.8099 58.3104ZM86.65 124.26C86.44 129.16 86.2099 133.4 86.0999 137.63C86.0599 139.14 86.2799 140.85 87.8599 141.48C89.5599 142.16 90.8199 140.77 91.5399 139.57C93.9899 135.49 96.2099 131.28 98.4899 127.1C98.6399 126.82 98.5399 126.41 98.5699 125.73C94.5499 126.53 90.75 126.18 86.65 124.26ZM68.3699 134.4C68.4399 134.4 68.51 134.4 68.58 134.4C68.58 136.04 68.44 137.7 68.64 139.32C68.73 140.07 69.3599 141.13 69.9899 141.34C70.6399 141.56 71.74 141.11 72.34 140.6C73.1 139.95 73.7599 139.01 74.1099 138.06C75.5799 134.15 76.9299 130.18 78.3099 126.24C78.7299 125.04 78.3299 124.43 77.0099 124.29C75.09 124.07 73.16 123.81 71.27 123.4C69.63 123.04 69.0799 123.74 68.9899 125.22C68.7999 128.29 68.5799 131.35 68.3699 134.4ZM156.71 123.07C157.58 128 158.35 132.77 159.29 137.52C159.61 139.17 160.62 139.27 161.77 137.81C165.04 133.65 166.16 128.68 166.84 123.59C166.89 123.18 166.02 122.22 165.62 122.24C162.65 122.41 159.69 122.77 156.71 123.07ZM84.39 48.5104C84.07 48.4204 83.7599 48.3204 83.4399 48.2304C81.8799 50.4704 80.1899 52.6204 78.7999 54.9704C77.8399 56.5904 76.7199 57.1704 74.9299 56.8104C74.0299 56.6304 73.1 56.6104 71.84 56.4904C72.84 59.3304 74.4599 61.1204 76.5599 62.5004C76.9299 62.7504 77.6399 62.8604 78.0099 62.6704C80.7799 61.2904 83.7099 61.0304 87.0599 61.5304C86.4899 56.8804 86.21 52.5304 84.39 48.5104ZM63.6199 57.2004C63.4599 57.0204 63.2899 56.8404 63.1299 56.6604C61.6899 56.9904 60.1899 57.1704 58.8099 57.6704C57.0799 58.2904 55.95 57.8204 55.03 56.3204C54.01 54.6604 52.9499 53.0304 51.8099 51.4504C51.3999 50.8904 50.7099 50.5204 50.1599 50.0704C49.9099 50.1404 49.66 50.2204 49.4 50.2904C48.84 53.8304 48.2799 57.3704 47.6599 61.2904C51.8299 60.0404 55.0799 60.9504 58.1099 63.1104C58.5399 63.4204 59.5499 63.5204 59.8799 63.2404C61.7399 61.6204 63.0399 59.6004 63.6199 57.2004ZM182.89 122.33C179.98 122.33 177.54 122.26 175.11 122.4C174.66 122.43 173.87 123.33 173.89 123.8C174.04 127.08 174.22 130.37 174.67 133.62C174.95 135.62 176.11 135.95 177.32 134.33C178.82 132.32 180.07 130.09 181.14 127.82C181.94 126.12 182.3 124.23 182.89 122.33ZM46.9799 64.0904C45.4999 68.8404 45.92 73.4204 48.33 78.3804C49.54 77.1004 50.6199 76.1904 51.3599 75.0604C51.6799 74.5804 51.6 73.3804 51.21 72.9504C48.93 70.4204 47.5699 67.5004 46.9799 64.0904ZM88.65 67.5104C88.5 67.4704 88.3499 67.4404 88.1899 67.4004C87.4399 68.7504 86.7399 70.1404 85.9199 71.4404C84.5099 73.6604 84.8499 74.6404 87.7299 75.7104C88.7199 73.0204 88.96 70.3004 88.65 67.5104ZM80.89 71.0404C83.14 69.3804 83.9899 67.7304 84.2399 65.0304C82.7799 65.3804 80.89 65.4504 80.77 65.9404C80.42 67.3904 80.78 69.0104 80.89 71.0404ZM77.14 68.8204C76.91 68.7504 76.68 68.6804 76.45 68.6104C75.83 69.5304 75.1199 70.4104 74.6299 71.4004C74.4199 71.8204 74.48 72.7404 74.77 72.9704C75.22 73.3104 76.0399 73.4504 76.5999 73.3004C76.9799 73.1904 77.4199 72.4504 77.4299 71.9904C77.4599 70.9304 77.25 69.8704 77.14 68.8204ZM51.2399 64.8704C51.1199 67.1504 51.68 68.1904 53.33 68.7004C54.5 65.3404 54.0399 64.5004 51.2399 64.8704ZM58.0999 68.5104C57.7399 68.5504 57.3699 68.6004 57.0099 68.6404C57.1099 69.5704 57.1999 70.5104 57.2999 71.4404C57.7799 71.3804 58.2699 71.3304 58.7499 71.2704C58.5299 70.3604 58.3099 69.4304 58.0999 68.5104Z" fill="white"/>
<path d="M0.539895 97.8804C1.09989 85.1804 2.61994 73.8804 7.08994 63.2404C11.1599 53.5704 16.9499 45.0604 25.6099 38.8104C26.4499 38.2004 27.3699 37.5804 28.3499 37.3204C28.9699 37.1504 29.7599 37.6404 30.4699 37.8404C30.1799 38.4604 30.0599 39.3304 29.5699 39.6604C21.0999 45.3904 15.3599 53.4104 11.1099 62.4704C6.0999 73.1704 4.45993 84.6804 4.00993 96.3904C3.89993 99.1604 3.78989 101.94 3.46989 104.69C3.38989 105.38 2.60995 106.45 2.02995 106.54C0.749946 106.73 0.549895 105.54 0.539895 104.53C0.519895 101.89 0.539895 99.2704 0.539895 97.8804Z" fill="white"/>
<path d="M227.18 96.5602C227.18 97.7002 227.36 98.4402 227.13 99.0302C226.89 99.6402 226.27 100.11 225.81 100.64C225.32 100.15 224.5 99.7102 224.41 99.1502C223.96 96.3402 223.5 93.5102 223.4 90.6802C222.97 78.1802 220.94 65.9702 215.53 54.6402C212.25 47.7702 207.96 41.3802 204.12 34.7702C203.63 33.9302 202.96 33.1602 202.65 32.2602C202.48 31.7602 202.71 30.7902 203.09 30.5402C203.44 30.3002 204.44 30.5402 204.81 30.9102C205.7 31.8102 206.37 32.9202 207.15 33.9202C218.92 48.9702 225.25 66.0802 226.45 85.1202C226.7 89.0802 226.96 93.0502 227.18 96.5602Z" fill="white"/>
<path d="M20.6599 83.35C21.2299 70.72 23.5299 59.8 29.3499 49.84C30.6299 47.65 32.1699 45.59 33.7599 43.61C34.1899 43.07 35.4499 42.59 35.9299 42.84C37.0999 43.46 36.4799 44.49 35.9099 45.33C29.3099 55.02 25.6499 65.75 24.4699 77.39C23.8499 83.52 24.48 89.52 26.15 95.42C27.03 98.52 27.9399 101.61 28.8199 104.71C28.9799 105.29 29.2499 105.9 29.1699 106.46C29.0699 107.19 28.67 107.88 28.4 108.59C27.74 108.12 26.6999 107.78 26.4899 107.16C24.8699 102.34 23.2099 97.51 21.9899 92.58C21.1499 89.2 20.9799 85.64 20.6599 83.35Z" fill="white"/>
<path d="M204.59 86.0103C206.23 73.1603 202.56 61.3603 197.37 49.9003C196.48 47.9403 195.09 46.2103 194.06 44.3103C193.73 43.7003 193.47 42.6203 193.78 42.1703C194.45 41.2003 195.49 41.6903 196.07 42.4103C197.37 44.0403 198.76 45.6603 199.69 47.5003C205.12 58.2703 208.79 69.5103 208.08 81.8003C207.81 86.4403 207.58 91.0703 207.32 95.7103C207.29 96.2303 207.32 96.8203 207.09 97.2503C206.78 97.8503 206.25 98.3403 205.81 98.8703C205.3 98.3203 204.47 97.8403 204.35 97.2203C204.1 95.9203 204.16 94.5403 204.21 93.1903C204.29 90.8003 204.46 88.4103 204.59 86.0103Z" fill="white"/>
<path d="M73.63 10.3203C77.24 10.3303 78.29 11.3003 78.28 13.8803C78.28 15.0103 78.57 15.5903 79.65 16.0903C82.51 17.4103 83.09 20.3103 80.96 22.7403C78.86 25.1303 75.95 26.2503 73 27.1403C71.62 27.5603 70.68 26.4703 70.33 25.2703C69.39 22.0403 68.47 18.7803 67.84 15.4803C67.67 14.6003 68.29 13.1103 69.03 12.6003C70.71 11.4703 72.69 10.7703 73.63 10.3203ZM73.38 23.5603C74.3 23.1803 75.2999 22.8803 76.1699 22.3703C77.2799 21.7203 79.1799 21.1403 78.5499 19.6203C77.9299 18.1403 76.13 19.0003 74.89 19.3103C72.01 20.0403 71.77 20.7503 73.38 23.5603ZM75.0499 13.5603C73.2199 13.2303 71.8999 13.7203 70.9799 14.8603C70.6799 15.2303 71.06 16.1603 71.15 16.9803C73.11 16.4003 74.3799 15.5603 75.0499 13.5603Z" fill="white"/>
<path d="M137.26 4.68026C136.46 5.54026 135.68 6.41026 134.86 7.24026C133.04 9.10026 131.76 8.88026 130.55 6.54026C130.19 5.85026 129.8 5.17026 129.43 4.49026C129.24 4.50026 129.04 4.50026 128.85 4.51026C128.51 5.52026 128.1 6.51026 127.84 7.54026C127.37 9.43026 127.09 11.3703 126.51 13.2203C126.32 13.8203 125.45 14.2003 124.89 14.6803C124.56 14.0103 123.87 13.2803 123.97 12.6803C124.53 9.37026 125.14 6.04026 126.05 2.82026C126.34 1.79026 127.53 0.470259 128.47 0.320259C129.43 0.170259 130.65 1.21026 131.64 1.89026C132.22 2.29026 132.57 3.03026 133.2 3.84026C134.07 3.08026 134.83 2.42026 135.59 1.76026C136.64 0.850259 137.93 -0.129741 139.19 0.660259C140.11 1.23026 140.87 2.56026 141.07 3.67026C141.5 6.09026 141.56 8.57026 141.71 11.0403C141.75 11.7003 141.79 12.4603 141.52 13.0303C141.22 13.6903 140.57 14.1803 140.08 14.7503C139.63 14.1703 138.88 13.6303 138.78 12.9903C138.5 11.1503 138.51 9.26026 138.34 7.40026C138.26 6.54026 138.03 5.69026 137.87 4.84026C137.67 4.78026 137.46 4.73026 137.26 4.68026Z" fill="white"/>
<path d="M165.83 15.0104C165.11 16.5504 164.77 17.6304 164.13 18.4904C163.72 19.0304 162.87 19.2404 162.21 19.6004C161.97 18.9004 161.37 18.0904 161.55 17.5204C162.66 14.0404 163.9 10.5904 165.19 7.17042C165.78 5.60042 166.95 4.90041 168.75 5.22041C171.54 5.72041 173.32 7.01041 173.74 9.06041C174.16 11.1004 173.52 12.7204 171.88 13.7204C169.79 15.0004 169.83 14.9804 170.73 17.2104C171.21 18.3804 171.62 19.5904 171.86 20.8304C172.05 21.8004 172.45 23.1404 171.09 23.5304C169.61 23.9504 169.3 22.6104 168.91 21.5504C168.4 20.1504 167.9 18.7404 167.3 17.3704C167.02 16.7004 166.55 16.1304 165.83 15.0104ZM166.93 11.0304C169.26 11.5804 170.84 11.1604 170.64 10.1304C170.5 9.41041 169.57 8.40041 168.9 8.32042C167.11 8.12041 167.27 9.72042 166.93 11.0304Z" fill="white"/>
<path d="M85.9099 14.9505C86.0599 11.8805 86.6799 9.39049 88.5999 7.38049C90.9099 4.98049 94.0099 5.14049 95.7999 7.95049C96.5199 9.08049 97.1399 10.6705 96.9399 11.9105C96.5799 14.2205 95.77 16.5205 94.78 18.6505C93.95 20.4305 92.2899 21.4705 90.1599 21.0705C88.0299 20.6805 86.8 19.2105 86.21 17.2205C85.97 16.3805 85.9699 15.4605 85.9099 14.9505ZM89.3799 14.0505C88.8799 16.0805 89.3799 17.6805 90.5399 17.7605C92.1199 17.8705 92.3999 16.6405 92.7299 15.2105C91.5599 14.8105 90.4799 14.4405 89.3799 14.0505ZM94.0099 10.6605C93.1699 9.99049 92.63 9.55049 92.09 9.12049C91.79 9.56049 91.15 10.1805 91.27 10.4205C91.52 10.9205 92.1199 11.3405 92.6699 11.5505C92.8999 11.6405 93.3599 11.1105 94.0099 10.6605Z" fill="white"/>
<path d="M159.49 11.3304C159.23 13.1904 159.08 15.0704 158.64 16.8704C158.5 17.4604 157.58 17.8604 157.02 18.3504C156.64 17.7804 156.16 17.2504 155.9 16.6304C155.57 15.8504 155.66 14.5104 155.16 14.2704C153.7 13.5704 152.06 13.2204 150.45 12.9304C150.12 12.8704 149.55 13.6104 149.22 14.0704C148.57 14.9804 148.12 16.0704 147.36 16.8704C146.96 17.2904 146.1 17.2704 145.44 17.4404C145.31 16.8404 144.87 16.0504 145.1 15.6604C147.43 11.7404 149.59 7.67035 152.38 4.10035C154.65 1.19035 157.75 2.15035 158.67 5.75035C159.13 7.54035 159.22 9.44035 159.49 11.3304ZM151.64 9.90035C153.33 10.4204 154.5 10.7804 156.25 11.3104C155.92 9.18035 155.69 7.69035 155.46 6.19035C155.21 6.14035 154.95 6.09035 154.7 6.03035C153.78 7.19035 152.87 8.34035 151.64 9.90035Z" fill="white"/>
<path d="M53.4199 26.5504C53.5499 24.4604 53.55 22.3504 53.84 20.2804C54.32 16.8304 56.85 15.7204 59.65 17.7504C62.85 20.0604 64.63 23.4704 66.15 26.9904C66.36 27.4604 65.9799 28.4404 65.5499 28.8404C65.3199 29.0604 64.25 28.7504 63.84 28.3704C61.43 26.2004 61.4799 26.2204 58.6099 27.7604C57.2299 28.5004 56.2799 29.3404 56.5399 31.0504C56.5799 31.3404 56.6099 31.7204 56.4699 31.9304C56.0599 32.5404 55.56 33.0904 55.09 33.6704C54.63 33.0904 53.8299 32.5504 53.7599 31.9304C53.5799 30.1504 53.7 28.3504 53.7 26.5504C53.61 26.5604 53.5199 26.5604 53.4199 26.5504ZM57.7899 20.2604C57.4999 20.3604 57.2199 20.4604 56.9299 20.5604C56.8399 22.0104 56.75 23.4704 56.65 24.9204C56.84 25.0104 57.0299 25.0904 57.2199 25.1804C58.2199 24.6204 59.21 24.0704 60.59 23.2904C59.5 22.1004 58.6399 21.1804 57.7899 20.2604Z" fill="white"/>
<path d="M193.85 19.2302C191.9 21.3802 191.9 21.4802 193.83 22.8402C193.95 22.9302 194.08 23.0102 194.2 23.1002C195.01 23.7402 196.24 24.3502 195.55 25.5702C194.82 26.8602 193.7 25.9902 192.8 25.5402C190.65 24.4703 190.35 24.6102 189.27 26.7802C188.77 27.7902 188.95 28.4402 189.8 29.0902C190.69 29.7802 191.61 30.4703 192.3 31.3303C192.68 31.8003 192.61 32.6302 192.75 33.3002C192.07 33.4002 191.19 33.8203 190.75 33.5403C189.18 32.5403 187.68 31.4002 186.32 30.1302C185.3 29.1702 185.22 27.8102 185.93 26.5902C187.88 23.2102 189.87 19.8602 191.89 16.5302C192.65 15.2702 193.68 15.0302 194.89 16.0402C196.1 17.0502 197.37 17.9902 198.54 19.0302C199.27 19.6802 200.17 20.6102 199.19 21.4502C198.73 21.8402 197.41 21.5402 196.64 21.1902C195.65 20.7602 194.83 19.9502 193.85 19.2302Z" fill="white"/>
<path d="M104.14 12.4501C104.2 9.77014 107.14 6.07014 109.25 5.57014C109.74 5.45014 110.31 5.42014 110.8 5.53014C113.91 6.22014 116.06 10.9901 114.55 13.8101C111.86 18.8401 108.81 19.0901 105.27 14.5201C104.7 13.7801 104.36 12.8701 104.14 12.4501ZM110.1 14.1401C112.14 11.8701 112.28 10.3601 110.57 9.18014C109.23 8.26014 108.71 9.54014 108.13 10.2801C107 11.7701 107.48 12.6901 110.1 14.1401Z" fill="white"/>
<path d="M43.2599 37.6702C42.6099 37.1802 41.4699 36.7002 40.9599 35.8502C39.3199 33.0902 37.8299 30.2302 36.4599 27.3202C36.1799 26.7202 36.6599 25.7702 36.7999 24.9702C37.5099 25.3602 38.4999 25.5702 38.8799 26.1702C40.2499 28.3102 41.4599 30.5502 42.6499 32.8002C43.3899 34.2202 44.2899 34.3502 45.5399 33.5102C46.2199 33.0502 46.9099 32.5302 47.6799 32.3002C48.2199 32.1402 49.1299 32.2102 49.4499 32.5602C49.7499 32.8902 49.7199 33.9202 49.4099 34.3102C47.9799 36.1702 45.9799 37.1402 43.2599 37.6702Z" fill="white"/>
<path d="M175.44 25.8202C177.1 21.9002 178.67 18.1102 180.36 14.3702C180.54 13.9702 181.46 13.9102 182.04 13.7002C182.26 14.2802 182.81 14.9802 182.64 15.4302C181.29 19.1502 179.86 22.8402 178.33 26.4802C178.13 26.9602 177.16 27.3702 176.57 27.3502C176.2 27.3402 175.87 26.4402 175.44 25.8202Z" fill="white"/>
<path d="M186.9 9.18033C186.12 9.77033 185.69 10.3403 185.3 10.3103C184.89 10.2803 184.52 9.68033 184.14 9.32033C184.49 8.93033 184.8 8.31033 185.21 8.23033C185.59 8.17033 186.07 8.69033 186.9 9.18033Z" fill="white"/>
<path d="M70.3099 76.2805C70.0999 76.8505 69.6699 77.4905 69.6899 78.1005C69.7199 78.8205 69.9699 79.7505 70.4799 80.1505C70.8399 80.4405 71.9599 80.2205 72.4099 79.8405C73.5399 78.8805 74.5299 77.6805 75.9999 79.1705C76.9799 80.1605 76.5699 82.0405 75.2199 83.3905C73.5199 85.1005 70.8799 85.5605 68.5999 84.2405C67.2499 83.4505 66.3599 83.7005 65.1799 84.5105C63.1999 85.8705 60.6699 85.9005 59.3399 84.5405C58.7699 83.9605 58.4199 82.8105 58.5599 82.0305C58.6399 81.6105 59.9999 81.1105 60.7299 81.1905C63.6299 81.4805 64.5999 80.3705 63.7999 77.3905C63.3599 75.7505 63.8799 74.5505 65.3399 73.8805C66.8499 73.1805 69.0599 73.6805 69.7899 74.9305C70.0299 75.2905 70.1199 75.7405 70.3099 76.2805Z" fill="white"/>
</svg>
