<svg width="243" height="46" viewBox="0 0 243 46" fill="none" xmlns="http://www.w3.org/2000/svg">
<path d="M2.56084 41.8843C2.45417 41.8843 2.40084 41.831 2.40084 41.7243V36.9403C2.40084 36.8976 2.3955 36.871 2.38484 36.8603L0.160836 30.8923L0.144836 30.8283C0.144836 30.7429 0.192836 30.7003 0.288836 30.7003H1.15284C1.24884 30.7003 1.31284 30.7429 1.34484 30.8283L2.91284 35.5163C2.9235 35.5376 2.9395 35.5483 2.96084 35.5483C2.98217 35.5483 2.99817 35.5376 3.00884 35.5163L4.57684 30.8283C4.60884 30.7429 4.67284 30.7003 4.76884 30.7003H5.63284C5.68617 30.7003 5.7235 30.7216 5.74484 30.7643C5.77684 30.7963 5.78217 30.839 5.76084 30.8923L3.55284 36.8603C3.54217 36.871 3.53684 36.8976 3.53684 36.9403V41.7243C3.53684 41.831 3.4835 41.8843 3.37684 41.8843H2.56084Z" fill="white"/>
<path d="M12.6412 41.9803C11.9052 41.9803 11.3132 41.7936 10.8652 41.4203C10.4279 41.0363 10.2092 40.5296 10.2092 39.9003V39.7883C10.2092 39.6816 10.2625 39.6283 10.3692 39.6283H11.1372C11.2439 39.6283 11.2972 39.6816 11.2972 39.7883V39.8843C11.2972 40.2256 11.4199 40.5136 11.6652 40.7483C11.9212 40.983 12.2519 41.1003 12.6572 41.1003C13.0412 41.1003 13.3505 40.983 13.5852 40.7483C13.8199 40.5136 13.9372 40.215 13.9372 39.8523C13.9372 39.575 13.8625 39.3456 13.7132 39.1643C13.5639 38.9723 13.3879 38.823 13.1852 38.7163C12.9932 38.6096 12.6999 38.471 12.3052 38.3003C11.8892 38.1296 11.5425 37.9643 11.2652 37.8043C10.9985 37.6336 10.7639 37.399 10.5612 37.1003C10.3692 36.791 10.2732 36.4016 10.2732 35.9323C10.2732 35.2496 10.4812 34.711 10.8972 34.3163C11.3239 33.9216 11.8945 33.7243 12.6092 33.7243C13.3345 33.7243 13.9105 33.9269 14.3372 34.3323C14.7639 34.7376 14.9772 35.2763 14.9772 35.9483V35.9963C14.9772 36.103 14.9239 36.1563 14.8172 36.1563H14.0812C13.9745 36.1563 13.9212 36.103 13.9212 35.9963V35.9003C13.9212 35.5376 13.7985 35.239 13.5532 35.0043C13.3185 34.7696 13.0092 34.6523 12.6252 34.6523C12.2412 34.6523 11.9319 34.775 11.6972 35.0203C11.4732 35.255 11.3612 35.5483 11.3612 35.9003C11.3612 36.1563 11.4305 36.375 11.5692 36.5563C11.7079 36.727 11.8785 36.871 12.0812 36.9883C12.2839 37.095 12.5665 37.2283 12.9292 37.3883C13.3665 37.5803 13.7239 37.7616 14.0012 37.9323C14.2892 38.103 14.5399 38.343 14.7532 38.6523C14.9665 38.9616 15.0732 39.3456 15.0732 39.8043C15.0732 40.4656 14.8545 40.9936 14.4172 41.3883C13.9799 41.783 13.3879 41.9803 12.6412 41.9803Z" fill="white"/>
<path d="M21.3456 38.1243C21.3456 38.231 21.2923 38.2843 21.1856 38.2843H17.5376C17.4949 38.2843 17.4736 38.3056 17.4736 38.3483V39.5163C17.4736 39.9643 17.5963 40.3323 17.8416 40.6203C18.0976 40.8976 18.4283 41.0363 18.8336 41.0363C19.1749 41.0363 19.4629 40.935 19.6976 40.7323C19.9429 40.519 20.1029 40.247 20.1776 39.9163C20.2096 39.8203 20.2683 39.7723 20.3536 39.7723L21.1536 39.8043C21.1963 39.8043 21.2336 39.8203 21.2656 39.8523C21.2976 39.8843 21.3083 39.927 21.2976 39.9803C21.2123 40.6096 20.9509 41.111 20.5136 41.4843C20.0869 41.847 19.5269 42.0283 18.8336 42.0283C18.0763 42.0283 17.4683 41.8043 17.0096 41.3563C16.5616 40.9083 16.3376 40.3163 16.3376 39.5803V36.1243C16.3376 35.399 16.5616 34.8123 17.0096 34.3643C17.4683 33.9056 18.0763 33.6763 18.8336 33.6763C19.6016 33.6763 20.2096 33.9056 20.6576 34.3643C21.1163 34.8123 21.3456 35.399 21.3456 36.1243V38.1243ZM18.8336 34.6683C18.4283 34.6683 18.0976 34.8123 17.8416 35.1003C17.5963 35.3776 17.4736 35.7456 17.4736 36.2043V37.2763C17.4736 37.319 17.4949 37.3403 17.5376 37.3403H20.1616C20.2043 37.3403 20.2256 37.319 20.2256 37.2763V36.2043C20.2256 35.7456 20.0976 35.3776 19.8416 35.1003C19.5856 34.8123 19.2496 34.6683 18.8336 34.6683Z" fill="white"/>
<path d="M26.7092 33.9643C26.7092 33.8576 26.7625 33.8043 26.8692 33.8043H27.6852C27.7919 33.8043 27.8452 33.8576 27.8452 33.9643V41.7403C27.8452 42.8816 27.5785 43.7456 27.0452 44.3323C26.5225 44.9296 25.6425 45.2016 24.4052 45.1483C24.2985 45.1376 24.2452 45.079 24.2452 44.9723V44.2843C24.2452 44.1776 24.2985 44.1243 24.4052 44.1243C25.2585 44.1456 25.8559 43.9483 26.1972 43.5323C26.5385 43.127 26.7092 42.4976 26.7092 41.6443V41.1643C26.7092 41.143 26.6985 41.127 26.6772 41.1163C26.6665 41.1056 26.6505 41.111 26.6292 41.1323C26.4479 41.399 26.2132 41.6016 25.9252 41.7403C25.6479 41.879 25.3492 41.9483 25.0292 41.9483C24.3572 41.9483 23.8239 41.7243 23.4292 41.2763C23.0452 40.8283 22.8532 40.2363 22.8532 39.5003V36.1243C22.8532 35.3776 23.0452 34.7856 23.4292 34.3483C23.8239 33.9003 24.3572 33.6763 25.0292 33.6763C25.3492 33.6763 25.6479 33.7456 25.9252 33.8843C26.2132 34.0123 26.4479 34.2096 26.6292 34.4763C26.6505 34.5083 26.6665 34.5243 26.6772 34.5243C26.6985 34.5136 26.7092 34.4923 26.7092 34.4603V33.9643ZM25.3652 40.9563C25.7599 40.9563 26.0799 40.8176 26.3252 40.5403C26.5812 40.2523 26.7092 39.8843 26.7092 39.4363V36.2043C26.7092 35.7456 26.5812 35.3776 26.3252 35.1003C26.0799 34.8123 25.7599 34.6683 25.3652 34.6683C24.9599 34.6683 24.6292 34.8123 24.3732 35.1003C24.1172 35.3776 23.9892 35.7456 23.9892 36.2043V39.4363C23.9892 39.8843 24.1172 40.2523 24.3732 40.5403C24.6292 40.8176 24.9599 40.9563 25.3652 40.9563Z" fill="white"/>
<path d="M33.3346 33.9643C33.3346 33.8576 33.3879 33.8043 33.4946 33.8043H34.3106C34.4173 33.8043 34.4706 33.8576 34.4706 33.9643V41.7403C34.4706 41.847 34.4173 41.9003 34.3106 41.9003H33.4946C33.3879 41.9003 33.3346 41.847 33.3346 41.7403V41.1963C33.3346 41.1643 33.3239 41.1483 33.3026 41.1483C33.2919 41.1483 33.2759 41.159 33.2546 41.1803C32.9239 41.735 32.3906 42.0123 31.6546 42.0123C31.0146 42.0123 30.5026 41.8203 30.1186 41.4363C29.7453 41.0416 29.5586 40.4496 29.5586 39.6603V33.9643C29.5586 33.8576 29.6119 33.8043 29.7186 33.8043H30.5346C30.6413 33.8043 30.6946 33.8576 30.6946 33.9643V39.4043C30.6946 39.9376 30.8013 40.343 31.0146 40.6203C31.2386 40.887 31.5586 41.0203 31.9746 41.0203C32.4013 41.0203 32.7319 40.8656 32.9666 40.5563C33.2119 40.247 33.3346 39.8256 33.3346 39.2923V33.9643Z" fill="white"/>
<path d="M36.3878 41.9003C36.2812 41.9003 36.2278 41.847 36.2278 41.7403V33.9643C36.2278 33.8576 36.2812 33.8043 36.3878 33.8043H37.2038C37.3105 33.8043 37.3638 33.8576 37.3638 33.9643V41.7403C37.3638 41.847 37.3105 41.9003 37.2038 41.9003H36.3878ZM36.2438 32.7483C36.1798 32.7483 36.1372 32.7323 36.1158 32.7003C36.0945 32.6576 36.0998 32.6096 36.1318 32.5563L37.1238 30.8123C37.1772 30.7376 37.2412 30.7003 37.3158 30.7003H37.9718C38.0358 30.7003 38.0732 30.7216 38.0838 30.7643C38.1052 30.7963 38.0998 30.839 38.0678 30.8923L36.9478 32.6363C36.8945 32.7109 36.8305 32.7483 36.7558 32.7483H36.2438Z" fill="white"/>
<path d="M47.1581 38.1243C47.1581 38.231 47.1048 38.2843 46.9981 38.2843H43.3501C43.3074 38.2843 43.2861 38.3056 43.2861 38.3483V39.5163C43.2861 39.9643 43.4088 40.3323 43.6541 40.6203C43.9101 40.8976 44.2408 41.0363 44.6461 41.0363C44.9874 41.0363 45.2754 40.935 45.5101 40.7323C45.7554 40.519 45.9154 40.247 45.9901 39.9163C46.0221 39.8203 46.0808 39.7723 46.1661 39.7723L46.9661 39.8043C47.0088 39.8043 47.0461 39.8203 47.0781 39.8523C47.1101 39.8843 47.1208 39.927 47.1101 39.9803C47.0248 40.6096 46.7634 41.111 46.3261 41.4843C45.8994 41.847 45.3394 42.0283 44.6461 42.0283C43.8888 42.0283 43.2808 41.8043 42.8221 41.3563C42.3741 40.9083 42.1501 40.3163 42.1501 39.5803V36.1243C42.1501 35.399 42.3741 34.8123 42.8221 34.3643C43.2808 33.9056 43.8888 33.6763 44.6461 33.6763C45.4141 33.6763 46.0221 33.9056 46.4701 34.3643C46.9288 34.8123 47.1581 35.399 47.1581 36.1243V38.1243ZM44.6461 34.6683C44.2408 34.6683 43.9101 34.8123 43.6541 35.1003C43.4088 35.3776 43.2861 35.7456 43.2861 36.2043V37.2763C43.2861 37.319 43.3074 37.3403 43.3501 37.3403H45.9741C46.0168 37.3403 46.0381 37.319 46.0381 37.2763V36.2043C46.0381 35.7456 45.9101 35.3776 45.6541 35.1003C45.3981 34.8123 45.0621 34.6683 44.6461 34.6683Z" fill="white"/>
<path d="M50.9225 41.9803C50.1865 41.9803 49.5945 41.7936 49.1465 41.4203C48.7091 41.0363 48.4905 40.5296 48.4905 39.9003V39.7883C48.4905 39.6816 48.5438 39.6283 48.6505 39.6283H49.4185C49.5251 39.6283 49.5785 39.6816 49.5785 39.7883V39.8843C49.5785 40.2256 49.7011 40.5136 49.9465 40.7483C50.2025 40.983 50.5331 41.1003 50.9385 41.1003C51.3225 41.1003 51.6318 40.983 51.8665 40.7483C52.1011 40.5136 52.2185 40.215 52.2185 39.8523C52.2185 39.575 52.1438 39.3456 51.9945 39.1643C51.8451 38.9723 51.6691 38.823 51.4665 38.7163C51.2745 38.6096 50.9811 38.471 50.5865 38.3003C50.1705 38.1296 49.8238 37.9643 49.5465 37.8043C49.2798 37.6336 49.0451 37.399 48.8425 37.1003C48.6505 36.791 48.5545 36.4016 48.5545 35.9323C48.5545 35.2496 48.7625 34.711 49.1785 34.3163C49.6051 33.9216 50.1758 33.7243 50.8905 33.7243C51.6158 33.7243 52.1918 33.9269 52.6185 34.3323C53.0451 34.7376 53.2585 35.2763 53.2585 35.9483V35.9963C53.2585 36.103 53.2051 36.1563 53.0985 36.1563H52.3625C52.2558 36.1563 52.2025 36.103 52.2025 35.9963V35.9003C52.2025 35.5376 52.0798 35.239 51.8345 35.0043C51.5998 34.7696 51.2905 34.6523 50.9065 34.6523C50.5225 34.6523 50.2131 34.775 49.9785 35.0203C49.7545 35.255 49.6425 35.5483 49.6425 35.9003C49.6425 36.1563 49.7118 36.375 49.8505 36.5563C49.9891 36.727 50.1598 36.871 50.3625 36.9883C50.5651 37.095 50.8478 37.2283 51.2105 37.3883C51.6478 37.5803 52.0051 37.7616 52.2825 37.9323C52.5705 38.103 52.8211 38.343 53.0345 38.6523C53.2478 38.9616 53.3545 39.3456 53.3545 39.8043C53.3545 40.4656 53.1358 40.9936 52.6985 41.3883C52.2611 41.783 51.6691 41.9803 50.9225 41.9803Z" fill="white"/>
<path d="M58.4908 33.9643C58.4908 33.8576 58.5442 33.8043 58.6508 33.8043H59.4668C59.5735 33.8043 59.6268 33.8576 59.6268 33.9643V41.7403C59.6268 41.847 59.5735 41.9003 59.4668 41.9003H58.6508C58.5442 41.9003 58.4908 41.847 58.4908 41.7403V41.1963C58.4908 41.1643 58.4802 41.1483 58.4588 41.1483C58.4482 41.1483 58.4322 41.159 58.4108 41.1803C58.0802 41.735 57.5468 42.0123 56.8108 42.0123C56.1708 42.0123 55.6588 41.8203 55.2748 41.4363C54.9015 41.0416 54.7148 40.4496 54.7148 39.6603V33.9643C54.7148 33.8576 54.7682 33.8043 54.8748 33.8043H55.6908C55.7975 33.8043 55.8508 33.8576 55.8508 33.9643V39.4043C55.8508 39.9376 55.9575 40.343 56.1708 40.6203C56.3948 40.887 56.7148 41.0203 57.1308 41.0203C57.5575 41.0203 57.8882 40.8656 58.1228 40.5563C58.3682 40.247 58.4908 39.8256 58.4908 39.2923V33.9643Z" fill="white"/>
<path d="M63.8961 42.0283C63.1388 42.0283 62.5308 41.8043 62.0721 41.3563C61.6241 40.9083 61.4001 40.3163 61.4001 39.5803V36.1243C61.4001 35.399 61.6294 34.8123 62.0881 34.3643C62.5468 33.9056 63.1494 33.6763 63.8961 33.6763C64.3974 33.6763 64.8401 33.7776 65.2241 33.9803C65.6081 34.183 65.9014 34.455 66.1041 34.7963C66.3174 35.127 66.4241 35.495 66.4241 35.9003V36.0603C66.4241 36.167 66.3708 36.2203 66.2641 36.2203L65.4481 36.2523C65.3414 36.2523 65.2881 36.199 65.2881 36.0923V35.9803C65.2881 35.6283 65.1548 35.3243 64.8881 35.0683C64.6321 34.8016 64.3014 34.6683 63.8961 34.6683C63.4908 34.6683 63.1601 34.8123 62.9041 35.1003C62.6588 35.3776 62.5361 35.7456 62.5361 36.2043V39.5003C62.5361 39.959 62.6588 40.3323 62.9041 40.6203C63.1601 40.8976 63.4908 41.0363 63.8961 41.0363C64.3014 41.0363 64.6321 40.9083 64.8881 40.6523C65.1548 40.3856 65.2881 40.0763 65.2881 39.7243V39.6123C65.2881 39.5056 65.3414 39.4523 65.4481 39.4523L66.2641 39.4683C66.3708 39.4683 66.4241 39.5216 66.4241 39.6283V39.8043C66.4241 40.4443 66.1894 40.9776 65.7201 41.4043C65.2614 41.8203 64.6534 42.0283 63.8961 42.0283Z" fill="white"/>
<path d="M70.8936 33.6923C71.5443 33.6923 72.0456 33.9163 72.3976 34.3643C72.7602 34.8123 72.9416 35.4363 72.9416 36.2363V41.7403C72.9416 41.847 72.8883 41.9003 72.7816 41.9003H71.9656C71.8589 41.9003 71.8056 41.847 71.8056 41.7403V36.3323C71.8056 35.8096 71.6883 35.4043 71.4536 35.1163C71.2296 34.8283 70.9149 34.6843 70.5096 34.6843C70.0829 34.6843 69.7469 34.839 69.5016 35.1483C69.2669 35.4576 69.1496 35.879 69.1496 36.4123V41.7403C69.1496 41.847 69.0963 41.9003 68.9896 41.9003H68.1736C68.0669 41.9003 68.0136 41.847 68.0136 41.7403V30.8603C68.0136 30.7536 68.0669 30.7003 68.1736 30.7003H68.9896C69.0963 30.7003 69.1496 30.7536 69.1496 30.8603V34.4763C69.1496 34.4976 69.1603 34.5136 69.1816 34.5243C69.2029 34.535 69.2189 34.5243 69.2296 34.4923C69.4216 34.2256 69.6616 34.0283 69.9496 33.9003C70.2483 33.7616 70.5629 33.6923 70.8936 33.6923Z" fill="white"/>
<path d="M77.1628 33.6763C77.9095 33.6763 78.5068 33.9216 78.9548 34.4123C79.4028 34.8923 79.6268 35.5376 79.6268 36.3483V41.7403C79.6268 41.847 79.5735 41.9003 79.4668 41.9003H78.6508C78.5442 41.9003 78.4908 41.847 78.4908 41.7403V41.2603C78.4908 41.239 78.4802 41.2283 78.4588 41.2283C78.4482 41.2176 78.4322 41.223 78.4108 41.2443C78.0162 41.767 77.4242 42.0283 76.6348 42.0283C76.0482 42.0283 75.5362 41.863 75.0988 41.5323C74.6722 41.191 74.4588 40.5936 74.4588 39.7403C74.4588 38.8336 74.7202 38.1723 75.2428 37.7563C75.7655 37.3296 76.4535 37.1163 77.3068 37.1163H78.4268C78.4695 37.1163 78.4908 37.095 78.4908 37.0523V36.4283C78.4908 35.895 78.3682 35.4683 78.1228 35.1483C77.8775 34.8283 77.5468 34.6683 77.1308 34.6683C76.8108 34.6683 76.5335 34.775 76.2988 34.9883C76.0748 35.2016 75.9415 35.4736 75.8988 35.8043C75.8988 35.911 75.8455 35.9643 75.7388 35.9643L74.8428 35.9483C74.7895 35.9483 74.7468 35.9323 74.7148 35.9003C74.6935 35.8683 74.6882 35.831 74.6988 35.7883C74.7522 35.159 75.0082 34.6523 75.4668 34.2683C75.9255 33.8736 76.4908 33.6763 77.1628 33.6763ZM76.8748 41.0363C77.3122 41.0363 77.6908 40.8976 78.0108 40.6203C78.3308 40.3323 78.4908 39.9376 78.4908 39.4363V38.0923C78.4908 38.0496 78.4695 38.0283 78.4268 38.0283H77.2908C76.7788 38.0283 76.3735 38.167 76.0748 38.4443C75.7762 38.711 75.6268 39.1109 75.6268 39.6443C75.6268 40.1136 75.7388 40.4656 75.9628 40.7003C76.1975 40.9243 76.5015 41.0363 76.8748 41.0363Z" fill="white"/>
<path d="M84.2842 33.6923C84.9349 33.6923 85.4362 33.9163 85.7882 34.3643C86.1509 34.8123 86.3322 35.4363 86.3322 36.2363V41.7403C86.3322 41.847 86.2789 41.9003 86.1722 41.9003H85.3562C85.2495 41.9003 85.1962 41.847 85.1962 41.7403V36.3323C85.1962 35.8096 85.0789 35.4043 84.8442 35.1163C84.6202 34.8283 84.3055 34.6843 83.9002 34.6843C83.4735 34.6843 83.1375 34.839 82.8922 35.1483C82.6575 35.4576 82.5402 35.879 82.5402 36.4123V41.7403C82.5402 41.847 82.4869 41.9003 82.3802 41.9003H81.5642C81.4575 41.9003 81.4042 41.847 81.4042 41.7403V33.9643C81.4042 33.8576 81.4575 33.8043 81.5642 33.8043H82.3802C82.4869 33.8043 82.5402 33.8576 82.5402 33.9643V34.4763C82.5402 34.4976 82.5509 34.5136 82.5722 34.5243C82.5935 34.535 82.6095 34.5243 82.6202 34.4923C82.8122 34.2256 83.0522 34.0283 83.3402 33.9003C83.6389 33.7616 83.9535 33.6923 84.2842 33.6923Z" fill="white"/>
<path d="M91.8655 30.8603C91.8655 30.7536 91.9188 30.7003 92.0255 30.7003H92.8415C92.9481 30.7003 93.0015 30.7536 93.0015 30.8603V41.7403C93.0015 41.847 92.9481 41.9003 92.8415 41.9003H92.0255C91.9188 41.9003 91.8655 41.847 91.8655 41.7403V41.3883C91.8655 41.367 91.8548 41.351 91.8335 41.3403C91.8228 41.3296 91.8068 41.335 91.7855 41.3563C91.3801 41.8043 90.8681 42.0283 90.2495 42.0283C89.5668 42.0283 89.0228 41.8043 88.6175 41.3563C88.2121 40.8976 88.0095 40.3056 88.0095 39.5803V36.1243C88.0095 35.3776 88.2121 34.7856 88.6175 34.3483C89.0228 33.9003 89.5668 33.6763 90.2495 33.6763C90.8788 33.6763 91.3908 33.9056 91.7855 34.3643C91.8068 34.3856 91.8228 34.391 91.8335 34.3803C91.8548 34.3696 91.8655 34.3536 91.8655 34.3323V30.8603ZM90.5215 41.0363C90.9161 41.0363 91.2361 40.8976 91.4815 40.6203C91.7375 40.3323 91.8655 39.9643 91.8655 39.5163V36.2043C91.8655 35.7456 91.7375 35.3776 91.4815 35.1003C91.2361 34.8123 90.9161 34.6683 90.5215 34.6683C90.1161 34.6683 89.7801 34.8123 89.5135 35.1003C89.2575 35.3776 89.1295 35.7456 89.1295 36.2043V39.5163C89.1295 39.9643 89.2575 40.3323 89.5135 40.6203C89.7801 40.8976 90.1161 41.0363 90.5215 41.0363Z" fill="white"/>
<path d="M97.2871 42.0283C96.5191 42.0283 95.9058 41.8043 95.4471 41.3563C94.9991 40.9083 94.7751 40.3163 94.7751 39.5803V36.1403C94.7751 35.415 95.0044 34.823 95.4631 34.3643C95.9218 33.9056 96.5298 33.6763 97.2871 33.6763C98.0551 33.6763 98.6684 33.9056 99.1271 34.3643C99.5858 34.823 99.8151 35.415 99.8151 36.1403V39.5803C99.8151 40.3163 99.5858 40.9083 99.1271 41.3563C98.6684 41.8043 98.0551 42.0283 97.2871 42.0283ZM97.2871 41.0203C97.6924 41.0203 98.0231 40.8816 98.2791 40.6043C98.5457 40.327 98.6791 39.959 98.6791 39.5003V36.2043C98.6791 35.7456 98.5457 35.3776 98.2791 35.1003C98.0231 34.8123 97.6924 34.6683 97.2871 34.6683C96.8818 34.6683 96.5511 34.8123 96.2951 35.1003C96.0391 35.3776 95.9111 35.7456 95.9111 36.2043V39.5003C95.9111 39.959 96.0391 40.327 96.2951 40.6043C96.5511 40.8816 96.8818 41.0203 97.2871 41.0203Z" fill="white"/>
<path d="M109.451 41.9003C109.355 41.9003 109.291 41.8576 109.259 41.7723L107.627 36.8283C107.616 36.7963 107.595 36.7803 107.563 36.7803H106.171C106.128 36.7803 106.107 36.8016 106.107 36.8443V41.7403C106.107 41.847 106.054 41.9003 105.947 41.9003H105.131C105.024 41.9003 104.971 41.847 104.971 41.7403V30.8603C104.971 30.7536 105.024 30.7003 105.131 30.7003H107.771C108.55 30.7003 109.179 30.9883 109.659 31.5643C110.139 32.1296 110.379 32.8709 110.379 33.7883C110.379 34.4816 110.23 35.079 109.931 35.5803C109.632 36.0816 109.227 36.4336 108.715 36.6363C108.672 36.647 108.656 36.6736 108.667 36.7163L110.411 41.7243L110.427 41.7883C110.427 41.863 110.379 41.9003 110.283 41.9003H109.451ZM106.171 31.6923C106.128 31.6923 106.107 31.7136 106.107 31.7563V35.8043C106.107 35.847 106.128 35.8683 106.171 35.8683H107.611C108.102 35.8683 108.496 35.6816 108.795 35.3083C109.094 34.9243 109.243 34.4176 109.243 33.7883C109.243 33.1589 109.094 32.6523 108.795 32.2683C108.496 31.8843 108.102 31.6923 107.611 31.6923H106.171Z" fill="white"/>
<path d="M114.257 33.6763C115.003 33.6763 115.601 33.9216 116.049 34.4123C116.497 34.8923 116.721 35.5376 116.721 36.3483V41.7403C116.721 41.847 116.667 41.9003 116.561 41.9003H115.745C115.638 41.9003 115.585 41.847 115.585 41.7403V41.2603C115.585 41.239 115.574 41.2283 115.553 41.2283C115.542 41.2176 115.526 41.223 115.505 41.2443C115.11 41.767 114.518 42.0283 113.729 42.0283C113.142 42.0283 112.63 41.863 112.193 41.5323C111.766 41.191 111.553 40.5936 111.553 39.7403C111.553 38.8336 111.814 38.1723 112.337 37.7563C112.859 37.3296 113.547 37.1163 114.401 37.1163H115.521C115.563 37.1163 115.585 37.095 115.585 37.0523V36.4283C115.585 35.895 115.462 35.4683 115.217 35.1483C114.971 34.8283 114.641 34.6683 114.225 34.6683C113.905 34.6683 113.627 34.775 113.393 34.9883C113.169 35.2016 113.035 35.4736 112.993 35.8043C112.993 35.911 112.939 35.9643 112.833 35.9643L111.937 35.9483C111.883 35.9483 111.841 35.9323 111.809 35.9003C111.787 35.8683 111.782 35.831 111.793 35.7883C111.846 35.159 112.102 34.6523 112.561 34.2683C113.019 33.8736 113.585 33.6763 114.257 33.6763ZM113.969 41.0363C114.406 41.0363 114.785 40.8976 115.105 40.6203C115.425 40.3323 115.585 39.9376 115.585 39.4363V38.0923C115.585 38.0496 115.563 38.0283 115.521 38.0283H114.385C113.873 38.0283 113.467 38.167 113.169 38.4443C112.87 38.711 112.721 39.1109 112.721 39.6443C112.721 40.1136 112.833 40.4656 113.057 40.7003C113.291 40.9243 113.595 41.0363 113.969 41.0363Z" fill="white"/>
<path d="M122.178 30.8603C122.178 30.7536 122.231 30.7003 122.338 30.7003H123.154C123.261 30.7003 123.314 30.7536 123.314 30.8603V41.7403C123.314 41.847 123.261 41.9003 123.154 41.9003H122.338C122.231 41.9003 122.178 41.847 122.178 41.7403V41.3883C122.178 41.367 122.167 41.351 122.146 41.3403C122.135 41.3296 122.119 41.335 122.098 41.3563C121.693 41.8043 121.181 42.0283 120.562 42.0283C119.879 42.0283 119.335 41.8043 118.93 41.3563C118.525 40.8976 118.322 40.3056 118.322 39.5803V36.1243C118.322 35.3776 118.525 34.7856 118.93 34.3483C119.335 33.9003 119.879 33.6763 120.562 33.6763C121.191 33.6763 121.703 33.9056 122.098 34.3643C122.119 34.3856 122.135 34.391 122.146 34.3803C122.167 34.3696 122.178 34.3536 122.178 34.3323V30.8603ZM120.834 41.0363C121.229 41.0363 121.549 40.8976 121.794 40.6203C122.05 40.3323 122.178 39.9643 122.178 39.5163V36.2043C122.178 35.7456 122.05 35.3776 121.794 35.1003C121.549 34.8123 121.229 34.6683 120.834 34.6683C120.429 34.6683 120.093 34.8123 119.826 35.1003C119.57 35.3776 119.442 35.7456 119.442 36.2043V39.5163C119.442 39.9643 119.57 40.3323 119.826 40.6203C120.093 40.8976 120.429 41.0363 120.834 41.0363Z" fill="white"/>
<path d="M125.952 32.3323C125.685 32.3323 125.466 32.2469 125.296 32.0763C125.136 31.9056 125.056 31.6923 125.056 31.4363C125.056 31.1696 125.136 30.9563 125.296 30.7963C125.466 30.6256 125.685 30.5403 125.952 30.5403C126.208 30.5403 126.416 30.6256 126.576 30.7963C126.746 30.9563 126.832 31.1696 126.832 31.4363C126.832 31.6923 126.746 31.9056 126.576 32.0763C126.416 32.2469 126.208 32.3323 125.952 32.3323ZM125.552 41.9003C125.445 41.9003 125.392 41.847 125.392 41.7403V33.9643C125.392 33.8576 125.445 33.8043 125.552 33.8043H126.368C126.474 33.8043 126.528 33.8576 126.528 33.9643V41.7403C126.528 41.847 126.474 41.9003 126.368 41.9003H125.552Z" fill="white"/>
<path d="M130.928 42.0283C130.16 42.0283 129.546 41.8043 129.088 41.3563C128.64 40.9083 128.416 40.3163 128.416 39.5803V36.1403C128.416 35.415 128.645 34.823 129.104 34.3643C129.562 33.9056 130.17 33.6763 130.928 33.6763C131.696 33.6763 132.309 33.9056 132.768 34.3643C133.226 34.823 133.456 35.415 133.456 36.1403V39.5803C133.456 40.3163 133.226 40.9083 132.768 41.3563C132.309 41.8043 131.696 42.0283 130.928 42.0283ZM130.928 41.0203C131.333 41.0203 131.664 40.8816 131.92 40.6043C132.186 40.327 132.32 39.959 132.32 39.5003V36.2043C132.32 35.7456 132.186 35.3776 131.92 35.1003C131.664 34.8123 131.333 34.6683 130.928 34.6683C130.522 34.6683 130.192 34.8123 129.936 35.1003C129.68 35.3776 129.552 35.7456 129.552 36.2043V39.5003C129.552 39.959 129.68 40.327 129.936 40.6043C130.192 40.8816 130.522 41.0203 130.928 41.0203Z" fill="white"/>
<path d="M140.515 41.9003C140.419 41.9003 140.361 41.8523 140.339 41.7563L138.019 30.8763V30.8443C138.019 30.7483 138.067 30.7003 138.163 30.7003H139.059C139.166 30.7003 139.225 30.7483 139.235 30.8443L140.963 39.7883C140.974 39.8096 140.985 39.8203 140.995 39.8203C141.006 39.8203 141.017 39.8096 141.027 39.7883L142.739 30.8443C142.761 30.7483 142.819 30.7003 142.915 30.7003H143.779C143.897 30.7003 143.945 30.7589 143.923 30.8763L141.603 41.7563C141.593 41.8523 141.534 41.9003 141.427 41.9003H140.515Z" fill="white"/>
<path d="M147.616 33.6763C148.363 33.6763 148.96 33.9216 149.408 34.4123C149.856 34.8923 150.08 35.5376 150.08 36.3483V41.7403C150.08 41.847 150.027 41.9003 149.92 41.9003H149.104C148.997 41.9003 148.944 41.847 148.944 41.7403V41.2603C148.944 41.239 148.933 41.2283 148.912 41.2283C148.901 41.2176 148.885 41.223 148.864 41.2443C148.469 41.767 147.877 42.0283 147.088 42.0283C146.501 42.0283 145.989 41.863 145.552 41.5323C145.125 41.191 144.912 40.5936 144.912 39.7403C144.912 38.8336 145.173 38.1723 145.696 37.7563C146.219 37.3296 146.907 37.1163 147.76 37.1163H148.88C148.923 37.1163 148.944 37.095 148.944 37.0523V36.4283C148.944 35.895 148.821 35.4683 148.576 35.1483C148.331 34.8283 148 34.6683 147.584 34.6683C147.264 34.6683 146.987 34.775 146.752 34.9883C146.528 35.2016 146.395 35.4736 146.352 35.8043C146.352 35.911 146.299 35.9643 146.192 35.9643L145.296 35.9483C145.243 35.9483 145.2 35.9323 145.168 35.9003C145.147 35.8683 145.141 35.831 145.152 35.7883C145.205 35.159 145.461 34.6523 145.92 34.2683C146.379 33.8736 146.944 33.6763 147.616 33.6763ZM147.328 41.0363C147.765 41.0363 148.144 40.8976 148.464 40.6203C148.784 40.3323 148.944 39.9376 148.944 39.4363V38.0923C148.944 38.0496 148.923 38.0283 148.88 38.0283H147.744C147.232 38.0283 146.827 38.167 146.528 38.4443C146.229 38.711 146.08 39.1109 146.08 39.6443C146.08 40.1136 146.192 40.4656 146.416 40.7003C146.651 40.9243 146.955 41.0363 147.328 41.0363Z" fill="white"/>
<path d="M158.337 33.6923C158.977 33.6923 159.473 33.927 159.825 34.3963C160.177 34.8656 160.353 35.5163 160.353 36.3483V41.7403C160.353 41.847 160.3 41.9003 160.193 41.9003H159.393C159.287 41.9003 159.233 41.847 159.233 41.7403V36.4443C159.233 35.9003 159.116 35.4736 158.881 35.1643C158.657 34.8443 158.359 34.6843 157.985 34.6843C157.58 34.6843 157.26 34.839 157.025 35.1483C156.791 35.4576 156.673 35.879 156.673 36.4123V41.7403C156.673 41.847 156.62 41.9003 156.513 41.9003H155.697C155.591 41.9003 155.537 41.847 155.537 41.7403V36.4443C155.537 35.9003 155.42 35.4736 155.185 35.1643C154.961 34.8443 154.668 34.6843 154.305 34.6843C153.9 34.6843 153.575 34.839 153.329 35.1483C153.095 35.4576 152.977 35.879 152.977 36.4123V41.7403C152.977 41.847 152.924 41.9003 152.817 41.9003H152.017C151.911 41.9003 151.857 41.847 151.857 41.7403V33.9643C151.857 33.8576 151.911 33.8043 152.017 33.8043H152.817C152.924 33.8043 152.977 33.8576 152.977 33.9643V34.4603C152.977 34.4816 152.983 34.4976 152.993 34.5083C153.015 34.5083 153.036 34.4976 153.057 34.4763C153.26 34.2096 153.5 34.0123 153.777 33.8843C154.055 33.7563 154.348 33.6923 154.657 33.6923C155.063 33.6923 155.415 33.7936 155.713 33.9963C156.012 34.1883 156.241 34.4656 156.401 34.8283C156.412 34.8496 156.428 34.8603 156.449 34.8603C156.471 34.8603 156.487 34.8443 156.497 34.8123C156.689 34.4283 156.951 34.1456 157.281 33.9643C157.612 33.783 157.964 33.6923 158.337 33.6923Z" fill="white"/>
<path d="M165.08 33.6763C165.752 33.6763 166.291 33.9056 166.696 34.3643C167.102 34.8123 167.304 35.399 167.304 36.1243V39.5803C167.304 40.327 167.102 40.9243 166.696 41.3723C166.291 41.8096 165.752 42.0283 165.08 42.0283C164.782 42.0283 164.499 41.975 164.232 41.8683C163.966 41.751 163.731 41.575 163.528 41.3403C163.507 41.319 163.486 41.3136 163.464 41.3243C163.454 41.335 163.448 41.351 163.448 41.3723V44.8443C163.448 44.951 163.395 45.0043 163.288 45.0043H162.472C162.366 45.0043 162.312 44.951 162.312 44.8443V33.9643C162.312 33.8576 162.366 33.8043 162.472 33.8043H163.288C163.395 33.8043 163.448 33.8576 163.448 33.9643V34.3323C163.448 34.3536 163.459 34.3696 163.48 34.3803C163.502 34.3803 163.523 34.3696 163.544 34.3483C163.736 34.1243 163.966 33.959 164.232 33.8523C164.51 33.735 164.792 33.6763 165.08 33.6763ZM166.184 36.2043C166.184 35.7456 166.051 35.3776 165.784 35.1003C165.528 34.8123 165.198 34.6683 164.792 34.6683C164.398 34.6683 164.072 34.8123 163.816 35.1003C163.571 35.3776 163.448 35.7456 163.448 36.2043V39.5003C163.448 39.959 163.571 40.3323 163.816 40.6203C164.072 40.8976 164.398 41.0363 164.792 41.0363C165.198 41.0363 165.528 40.8976 165.784 40.6203C166.051 40.3323 166.184 39.959 166.184 39.5003V36.2043Z" fill="white"/>
<path d="M169.764 32.3323C169.497 32.3323 169.279 32.2469 169.108 32.0763C168.948 31.9056 168.868 31.6923 168.868 31.4363C168.868 31.1696 168.948 30.9563 169.108 30.7963C169.279 30.6256 169.497 30.5403 169.764 30.5403C170.02 30.5403 170.228 30.6256 170.388 30.7963C170.559 30.9563 170.644 31.1696 170.644 31.4363C170.644 31.6923 170.559 31.9056 170.388 32.0763C170.228 32.2469 170.02 32.3323 169.764 32.3323ZM169.364 41.9003C169.257 41.9003 169.204 41.847 169.204 41.7403V33.9643C169.204 33.8576 169.257 33.8043 169.364 33.8043H170.18C170.287 33.8043 170.34 33.8576 170.34 33.9643V41.7403C170.34 41.847 170.287 41.9003 170.18 41.9003H169.364Z" fill="white"/>
<path d="M175.14 33.7243C175.407 33.7243 175.636 33.783 175.828 33.9003C175.903 33.943 175.93 34.0123 175.908 34.1083L175.716 34.9403C175.706 35.0363 175.642 35.0683 175.524 35.0363C175.396 34.9723 175.236 34.9403 175.044 34.9403C174.959 34.9403 174.895 34.9456 174.852 34.9563C174.468 34.9776 174.154 35.1803 173.908 35.5643C173.663 35.9376 173.54 36.3963 173.54 36.9403V41.7403C173.54 41.847 173.487 41.9003 173.38 41.9003H172.564C172.458 41.9003 172.404 41.847 172.404 41.7403V33.9643C172.404 33.8576 172.458 33.8043 172.564 33.8043H173.38C173.487 33.8043 173.54 33.8576 173.54 33.9643V34.9243C173.54 34.9563 173.546 34.9723 173.556 34.9723C173.578 34.9723 173.599 34.9616 173.62 34.9403C173.93 34.1296 174.436 33.7243 175.14 33.7243Z" fill="white"/>
<path d="M179.413 33.6763C180.16 33.6763 180.757 33.9216 181.205 34.4123C181.653 34.8923 181.877 35.5376 181.877 36.3483V41.7403C181.877 41.847 181.824 41.9003 181.717 41.9003H180.901C180.794 41.9003 180.741 41.847 180.741 41.7403V41.2603C180.741 41.239 180.73 41.2283 180.709 41.2283C180.698 41.2176 180.682 41.223 180.661 41.2443C180.266 41.767 179.674 42.0283 178.885 42.0283C178.298 42.0283 177.786 41.863 177.349 41.5323C176.922 41.191 176.709 40.5936 176.709 39.7403C176.709 38.8336 176.97 38.1723 177.493 37.7563C178.016 37.3296 178.704 37.1163 179.557 37.1163H180.677C180.72 37.1163 180.741 37.095 180.741 37.0523V36.4283C180.741 35.895 180.618 35.4683 180.373 35.1483C180.127 34.8283 179.797 34.6683 179.381 34.6683C179.061 34.6683 178.784 34.775 178.549 34.9883C178.325 35.2016 178.192 35.4736 178.149 35.8043C178.149 35.911 178.095 35.9643 177.989 35.9643L177.093 35.9483C177.04 35.9483 176.997 35.9323 176.965 35.9003C176.944 35.8683 176.938 35.831 176.949 35.7883C177.002 35.159 177.258 34.6523 177.717 34.2683C178.176 33.8736 178.741 33.6763 179.413 33.6763ZM179.125 41.0363C179.562 41.0363 179.941 40.8976 180.261 40.6203C180.581 40.3323 180.741 39.9376 180.741 39.4363V38.0923C180.741 38.0496 180.72 38.0283 180.677 38.0283H179.541C179.029 38.0283 178.623 38.167 178.325 38.4443C178.026 38.711 177.877 39.1109 177.877 39.6443C177.877 40.1136 177.989 40.4656 178.213 40.7003C178.447 40.9243 178.751 41.0363 179.125 41.0363Z" fill="white"/>
<path d="M188.969 41.9803C188.233 41.9803 187.641 41.7936 187.193 41.4203C186.756 41.0363 186.537 40.5296 186.537 39.9003V39.7883C186.537 39.6816 186.591 39.6283 186.697 39.6283H187.465C187.572 39.6283 187.625 39.6816 187.625 39.7883V39.8843C187.625 40.2256 187.748 40.5136 187.993 40.7483C188.249 40.983 188.58 41.1003 188.985 41.1003C189.369 41.1003 189.679 40.983 189.913 40.7483C190.148 40.5136 190.265 40.215 190.265 39.8523C190.265 39.575 190.191 39.3456 190.041 39.1643C189.892 38.9723 189.716 38.823 189.513 38.7163C189.321 38.6096 189.028 38.471 188.633 38.3003C188.217 38.1296 187.871 37.9643 187.593 37.8043C187.327 37.6336 187.092 37.399 186.889 37.1003C186.697 36.791 186.601 36.4016 186.601 35.9323C186.601 35.2496 186.809 34.711 187.225 34.3163C187.652 33.9216 188.223 33.7243 188.937 33.7243C189.663 33.7243 190.239 33.9269 190.665 34.3323C191.092 34.7376 191.305 35.2763 191.305 35.9483V35.9963C191.305 36.103 191.252 36.1563 191.145 36.1563H190.409C190.303 36.1563 190.249 36.103 190.249 35.9963V35.9003C190.249 35.5376 190.127 35.239 189.881 35.0043C189.647 34.7696 189.337 34.6523 188.953 34.6523C188.569 34.6523 188.26 34.775 188.025 35.0203C187.801 35.255 187.689 35.5483 187.689 35.9003C187.689 36.1563 187.759 36.375 187.897 36.5563C188.036 36.727 188.207 36.871 188.409 36.9883C188.612 37.095 188.895 37.2283 189.257 37.3883C189.695 37.5803 190.052 37.7616 190.329 37.9323C190.617 38.103 190.868 38.343 191.081 38.6523C191.295 38.9616 191.401 39.3456 191.401 39.8043C191.401 40.4656 191.183 40.9936 190.745 41.3883C190.308 41.783 189.716 41.9803 188.969 41.9803Z" fill="white"/>
<path d="M193.53 32.3323C193.263 32.3323 193.044 32.2469 192.874 32.0763C192.714 31.9056 192.634 31.6923 192.634 31.4363C192.634 31.1696 192.714 30.9563 192.874 30.7963C193.044 30.6256 193.263 30.5403 193.53 30.5403C193.786 30.5403 193.994 30.6256 194.154 30.7963C194.324 30.9563 194.41 31.1696 194.41 31.4363C194.41 31.6923 194.324 31.9056 194.154 32.0763C193.994 32.2469 193.786 32.3323 193.53 32.3323ZM193.13 41.9003C193.023 41.9003 192.97 41.847 192.97 41.7403V33.9643C192.97 33.8576 193.023 33.8043 193.13 33.8043H193.946C194.052 33.8043 194.106 33.8576 194.106 33.9643V41.7403C194.106 41.847 194.052 41.9003 193.946 41.9003H193.13Z" fill="white"/>
<path d="M199.05 33.6923C199.701 33.6923 200.202 33.9163 200.554 34.3643C200.916 34.8123 201.098 35.4363 201.098 36.2363V41.7403C201.098 41.847 201.045 41.9003 200.938 41.9003H200.122C200.015 41.9003 199.962 41.847 199.962 41.7403V36.3323C199.962 35.8096 199.844 35.4043 199.61 35.1163C199.386 34.8283 199.071 34.6843 198.666 34.6843C198.239 34.6843 197.903 34.839 197.658 35.1483C197.423 35.4576 197.306 35.879 197.306 36.4123V41.7403C197.306 41.847 197.253 41.9003 197.146 41.9003H196.33C196.223 41.9003 196.17 41.847 196.17 41.7403V33.9643C196.17 33.8576 196.223 33.8043 196.33 33.8043H197.146C197.253 33.8043 197.306 33.8576 197.306 33.9643V34.4763C197.306 34.4976 197.316 34.5136 197.338 34.5243C197.359 34.535 197.375 34.5243 197.386 34.4923C197.578 34.2256 197.818 34.0283 198.106 33.9003C198.405 33.7616 198.719 33.6923 199.05 33.6923Z" fill="white"/>
<path d="M209.834 30.8603C209.834 30.7536 209.888 30.7003 209.994 30.7003H210.81C210.917 30.7003 210.97 30.7536 210.97 30.8603V41.7403C210.97 41.847 210.917 41.9003 210.81 41.9003H209.994C209.888 41.9003 209.834 41.847 209.834 41.7403V41.3883C209.834 41.367 209.824 41.351 209.802 41.3403C209.792 41.3296 209.776 41.335 209.754 41.3563C209.349 41.8043 208.837 42.0283 208.218 42.0283C207.536 42.0283 206.992 41.8043 206.586 41.3563C206.181 40.8976 205.978 40.3056 205.978 39.5803V36.1243C205.978 35.3776 206.181 34.7856 206.586 34.3483C206.992 33.9003 207.536 33.6763 208.218 33.6763C208.848 33.6763 209.36 33.9056 209.754 34.3643C209.776 34.3856 209.792 34.391 209.802 34.3803C209.824 34.3696 209.834 34.3536 209.834 34.3323V30.8603ZM208.49 41.0363C208.885 41.0363 209.205 40.8976 209.45 40.6203C209.706 40.3323 209.834 39.9643 209.834 39.5163V36.2043C209.834 35.7456 209.706 35.3776 209.45 35.1003C209.205 34.8123 208.885 34.6683 208.49 34.6683C208.085 34.6683 207.749 34.8123 207.482 35.1003C207.226 35.3776 207.098 35.7456 207.098 36.2043V39.5163C207.098 39.9643 207.226 40.3323 207.482 40.6203C207.749 40.8976 208.085 41.0363 208.49 41.0363Z" fill="white"/>
<path d="M215.656 33.7243C215.923 33.7243 216.152 33.783 216.344 33.9003C216.419 33.943 216.445 34.0123 216.424 34.1083L216.232 34.9403C216.221 35.0363 216.157 35.0683 216.04 35.0363C215.912 34.9723 215.752 34.9403 215.56 34.9403C215.474 34.9403 215.411 34.9456 215.368 34.9563C214.984 34.9776 214.669 35.1803 214.424 35.5643C214.179 35.9376 214.056 36.3963 214.056 36.9403V41.7403C214.056 41.847 214.003 41.9003 213.896 41.9003H213.08C212.973 41.9003 212.92 41.847 212.92 41.7403V33.9643C212.92 33.8576 212.973 33.8043 213.08 33.8043H213.896C214.003 33.8043 214.056 33.8576 214.056 33.9643V34.9243C214.056 34.9563 214.061 34.9723 214.072 34.9723C214.093 34.9723 214.115 34.9616 214.136 34.9403C214.445 34.1296 214.952 33.7243 215.656 33.7243Z" fill="white"/>
<path d="M219.928 33.6763C220.675 33.6763 221.272 33.9216 221.72 34.4123C222.168 34.8923 222.392 35.5376 222.392 36.3483V41.7403C222.392 41.847 222.339 41.9003 222.232 41.9003H221.416C221.31 41.9003 221.256 41.847 221.256 41.7403V41.2603C221.256 41.239 221.246 41.2283 221.224 41.2283C221.214 41.2176 221.198 41.223 221.176 41.2443C220.782 41.767 220.19 42.0283 219.4 42.0283C218.814 42.0283 218.302 41.863 217.864 41.5323C217.438 41.191 217.224 40.5936 217.224 39.7403C217.224 38.8336 217.486 38.1723 218.008 37.7563C218.531 37.3296 219.219 37.1163 220.072 37.1163H221.192C221.235 37.1163 221.256 37.095 221.256 37.0523V36.4283C221.256 35.895 221.134 35.4683 220.888 35.1483C220.643 34.8283 220.312 34.6683 219.896 34.6683C219.576 34.6683 219.299 34.775 219.064 34.9883C218.84 35.2016 218.707 35.4736 218.664 35.8043C218.664 35.911 218.611 35.9643 218.504 35.9643L217.608 35.9483C217.555 35.9483 217.512 35.9323 217.48 35.9003C217.459 35.8683 217.454 35.831 217.464 35.7883C217.518 35.159 217.774 34.6523 218.232 34.2683C218.691 33.8736 219.256 33.6763 219.928 33.6763ZM219.64 41.0363C220.078 41.0363 220.456 40.8976 220.776 40.6203C221.096 40.3323 221.256 39.9376 221.256 39.4363V38.0923C221.256 38.0496 221.235 38.0283 221.192 38.0283H220.056C219.544 38.0283 219.139 38.167 218.84 38.4443C218.542 38.711 218.392 39.1109 218.392 39.6443C218.392 40.1136 218.504 40.4656 218.728 40.7003C218.963 40.9243 219.267 41.0363 219.64 41.0363Z" fill="white"/>
<path d="M230.65 33.6923C231.29 33.6923 231.786 33.927 232.138 34.3963C232.49 34.8656 232.666 35.5163 232.666 36.3483V41.7403C232.666 41.847 232.613 41.9003 232.506 41.9003H231.706C231.599 41.9003 231.546 41.847 231.546 41.7403V36.4443C231.546 35.9003 231.428 35.4736 231.194 35.1643C230.97 34.8443 230.671 34.6843 230.298 34.6843C229.893 34.6843 229.572 34.839 229.338 35.1483C229.103 35.4576 228.986 35.879 228.986 36.4123V41.7403C228.986 41.847 228.933 41.9003 228.826 41.9003H228.01C227.903 41.9003 227.85 41.847 227.85 41.7403V36.4443C227.85 35.9003 227.732 35.4736 227.498 35.1643C227.274 34.8443 226.981 34.6843 226.618 34.6843C226.213 34.6843 225.887 34.839 225.642 35.1483C225.407 35.4576 225.29 35.879 225.29 36.4123V41.7403C225.29 41.847 225.237 41.9003 225.13 41.9003H224.33C224.223 41.9003 224.17 41.847 224.17 41.7403V33.9643C224.17 33.8576 224.223 33.8043 224.33 33.8043H225.13C225.237 33.8043 225.29 33.8576 225.29 33.9643V34.4603C225.29 34.4816 225.295 34.4976 225.306 34.5083C225.327 34.5083 225.349 34.4976 225.37 34.4763C225.573 34.2096 225.813 34.0123 226.09 33.8843C226.367 33.7563 226.661 33.6923 226.97 33.6923C227.375 33.6923 227.727 33.7936 228.026 33.9963C228.324 34.1883 228.554 34.4656 228.714 34.8283C228.725 34.8496 228.741 34.8603 228.762 34.8603C228.783 34.8603 228.799 34.8443 228.81 34.8123C229.002 34.4283 229.263 34.1456 229.594 33.9643C229.925 33.783 230.277 33.6923 230.65 33.6923Z" fill="white"/>
<path d="M236.913 33.6763C237.66 33.6763 238.257 33.9216 238.705 34.4123C239.153 34.8923 239.377 35.5376 239.377 36.3483V41.7403C239.377 41.847 239.324 41.9003 239.217 41.9003H238.401C238.294 41.9003 238.241 41.847 238.241 41.7403V41.2603C238.241 41.239 238.23 41.2283 238.209 41.2283C238.198 41.2176 238.182 41.223 238.161 41.2443C237.766 41.767 237.174 42.0283 236.385 42.0283C235.798 42.0283 235.286 41.863 234.849 41.5323C234.422 41.191 234.209 40.5936 234.209 39.7403C234.209 38.8336 234.47 38.1723 234.993 37.7563C235.516 37.3296 236.204 37.1163 237.057 37.1163H238.177C238.22 37.1163 238.241 37.095 238.241 37.0523V36.4283C238.241 35.895 238.118 35.4683 237.873 35.1483C237.627 34.8283 237.297 34.6683 236.881 34.6683C236.561 34.6683 236.284 34.775 236.049 34.9883C235.825 35.2016 235.692 35.4736 235.649 35.8043C235.649 35.911 235.595 35.9643 235.489 35.9643L234.593 35.9483C234.54 35.9483 234.497 35.9323 234.465 35.9003C234.444 35.8683 234.438 35.831 234.449 35.7883C234.502 35.159 234.758 34.6523 235.217 34.2683C235.676 33.8736 236.241 33.6763 236.913 33.6763ZM236.625 41.0363C237.062 41.0363 237.441 40.8976 237.761 40.6203C238.081 40.3323 238.241 39.9376 238.241 39.4363V38.0923C238.241 38.0496 238.22 38.0283 238.177 38.0283H237.041C236.529 38.0283 236.123 38.167 235.825 38.4443C235.526 38.711 235.377 39.1109 235.377 39.6443C235.377 40.1136 235.489 40.4656 235.713 40.7003C235.947 40.9243 236.251 41.0363 236.625 41.0363Z" fill="white"/>
<path d="M241.589 41.8683C241.322 41.8683 241.103 41.783 240.933 41.6123C240.773 41.4416 240.693 41.2283 240.693 40.9723C240.693 40.7056 240.773 40.4923 240.933 40.3323C241.103 40.1616 241.322 40.0763 241.589 40.0763C241.845 40.0763 242.058 40.1616 242.229 40.3323C242.4 40.4923 242.485 40.7056 242.485 40.9723C242.485 41.2283 242.4 41.4416 242.229 41.6123C242.058 41.783 241.845 41.8683 241.589 41.8683Z" fill="white"/>
<path d="M13.8985 18.6394C13.8985 20.8474 13.2505 22.5514 11.9545 23.7514C10.6825 24.9514 9.0145 25.5514 6.9505 25.5514H0.614495C0.494495 25.5514 0.386495 25.5154 0.290495 25.4434C0.218495 25.3474 0.182495 25.2394 0.182495 25.1194V0.78343C0.182495 0.66343 0.218495 0.56743 0.290495 0.49543C0.386495 0.399429 0.494495 0.351429 0.614495 0.351429H6.3025C8.5825 0.351429 10.3705 0.92743 11.6665 2.07943C12.9625 3.23143 13.6105 4.91143 13.6105 7.11943C13.6105 9.59143 12.7345 11.3554 10.9825 12.4114C10.8625 12.4834 10.8385 12.5554 10.9105 12.6274C11.8465 13.2274 12.5785 14.0314 13.1065 15.0394C13.6345 16.0474 13.8985 17.2474 13.8985 18.6394ZM4.5385 3.95143C4.4185 3.95143 4.3585 4.01143 4.3585 4.13143V10.8274C4.3585 10.9474 4.4185 11.0074 4.5385 11.0074H6.3745C7.3585 11.0074 8.1265 10.7074 8.6785 10.1074C9.2305 9.50743 9.5065 8.65543 9.5065 7.55143C9.5065 6.39943 9.2305 5.51143 8.6785 4.88743C8.1265 4.26343 7.3585 3.95143 6.3745 3.95143H4.5385ZM6.6265 21.9154C7.5865 21.9154 8.34249 21.5794 8.8945 20.9074C9.4465 20.2354 9.7225 19.2874 9.7225 18.0634C9.7225 16.8154 9.4465 15.8434 8.8945 15.1474C8.34249 14.4274 7.5865 14.0674 6.6265 14.0674H4.5385C4.4185 14.0674 4.3585 14.1274 4.3585 14.2474V21.7354C4.3585 21.8554 4.4185 21.9154 4.5385 21.9154H6.6265Z" fill="#3FABF5"/>
<path d="M26.3323 25.5514C26.0443 25.5514 25.8883 25.4194 25.8643 25.1554L25.1803 21.3754C25.1803 21.2554 25.1083 21.1954 24.9643 21.1954H19.7083C19.5643 21.1954 19.4923 21.2554 19.4923 21.3754L18.8083 25.1554C18.7843 25.4194 18.6283 25.5514 18.3403 25.5514H15.0643C14.7283 25.5514 14.5963 25.3954 14.6683 25.0834L19.9963 0.747431C20.0443 0.48343 20.2003 0.351429 20.4643 0.351429H24.2803C24.5443 0.351429 24.7003 0.48343 24.7483 0.747431L30.0763 25.0834V25.2274C30.0763 25.4434 29.9443 25.5514 29.6803 25.5514H26.3323ZM20.1403 17.7394C20.1163 17.8594 20.1763 17.9194 20.3203 17.9194H24.3163C24.4603 17.9194 24.5203 17.8594 24.4963 17.7394L22.4083 6.36343C22.3843 6.29143 22.3483 6.25543 22.3003 6.25543C22.2523 6.25543 22.2163 6.29143 22.1923 6.36343L20.1403 17.7394Z" fill="#3FABF5"/>
<path d="M37.9597 25.8394C35.9677 25.8394 34.3597 25.2514 33.1357 24.0754C31.9117 22.8754 31.2997 21.2914 31.2997 19.3234V16.6594C31.2997 16.5394 31.3357 16.4434 31.4077 16.3714C31.5037 16.2754 31.6117 16.2274 31.7317 16.2274H35.0437C35.1637 16.2274 35.2597 16.2754 35.3317 16.3714C35.4277 16.4434 35.4757 16.5394 35.4757 16.6594V19.3954C35.4757 20.2354 35.7037 20.9194 36.1597 21.4474C36.6157 21.9754 37.2157 22.2394 37.9597 22.2394C38.7037 22.2394 39.3037 21.9754 39.7597 21.4474C40.2397 20.9194 40.4797 20.2354 40.4797 19.3954V0.78343C40.4797 0.66343 40.5157 0.56743 40.5877 0.49543C40.6837 0.399429 40.7917 0.351429 40.9117 0.351429H44.2237C44.3437 0.351429 44.4397 0.399429 44.5117 0.49543C44.6077 0.56743 44.6557 0.66343 44.6557 0.78343V19.3234C44.6557 21.2914 44.0317 22.8754 42.7837 24.0754C41.5597 25.2514 39.9517 25.8394 37.9597 25.8394Z" fill="#3FABF5"/>
<path d="M58.4299 25.5514C58.1419 25.5514 57.9859 25.4194 57.9619 25.1554L57.2779 21.3754C57.2779 21.2554 57.2059 21.1954 57.0619 21.1954H51.8059C51.6619 21.1954 51.5899 21.2554 51.5899 21.3754L50.9059 25.1554C50.8819 25.4194 50.7259 25.5514 50.4379 25.5514H47.1619C46.8259 25.5514 46.6939 25.3954 46.7659 25.0834L52.0939 0.747431C52.1419 0.48343 52.2979 0.351429 52.5619 0.351429H56.3779C56.6419 0.351429 56.7979 0.48343 56.8459 0.747431L62.1739 25.0834V25.2274C62.1739 25.4434 62.0419 25.5514 61.7779 25.5514H58.4299ZM52.2379 17.7394C52.2139 17.8594 52.2739 17.9194 52.4179 17.9194H56.4139C56.5579 17.9194 56.6179 17.8594 56.5939 17.7394L54.5059 6.36343C54.4819 6.29143 54.4459 6.25543 54.3979 6.25543C54.3499 6.25543 54.3139 6.29143 54.2899 6.36343L52.2379 17.7394Z" fill="#3FABF5"/>
<path d="M75.4385 0.351429C75.5585 0.351429 75.6545 0.399429 75.7265 0.49543C75.8225 0.56743 75.8705 0.66343 75.8705 0.78343V3.51943C75.8705 3.63943 75.8225 3.74743 75.7265 3.84343C75.6545 3.91543 75.5585 3.95143 75.4385 3.95143H70.8665C70.7465 3.95143 70.6865 4.01143 70.6865 4.13143V25.1194C70.6865 25.2394 70.6385 25.3474 70.5425 25.4434C70.4705 25.5154 70.3745 25.5514 70.2545 25.5514H66.9425C66.8225 25.5514 66.7145 25.5154 66.6185 25.4434C66.5465 25.3474 66.5105 25.2394 66.5105 25.1194V4.13143C66.5105 4.01143 66.4505 3.95143 66.3305 3.95143H62.0105C61.8905 3.95143 61.7825 3.91543 61.6865 3.84343C61.6145 3.74743 61.5785 3.63943 61.5785 3.51943V0.78343C61.5785 0.66343 61.6145 0.56743 61.6865 0.49543C61.7825 0.399429 61.8905 0.351429 62.0105 0.351429H75.4385Z" fill="#3FABF5"/>
<path d="M91.3559 3.51943C91.3559 3.63943 91.3079 3.74743 91.2119 3.84343C91.1399 3.91543 91.0439 3.95143 90.9239 3.95143H83.1479C83.0279 3.95143 82.9679 4.01143 82.9679 4.13143V10.9354C82.9679 11.0554 83.0279 11.1154 83.1479 11.1154H87.7559C87.8759 11.1154 87.9719 11.1634 88.0439 11.2594C88.1399 11.3314 88.1879 11.4274 88.1879 11.5474V14.3194C88.1879 14.4394 88.1399 14.5474 88.0439 14.6434C87.9719 14.7154 87.8759 14.7514 87.7559 14.7514H83.1479C83.0279 14.7514 82.9679 14.8114 82.9679 14.9314V21.7714C82.9679 21.8914 83.0279 21.9514 83.1479 21.9514H90.9239C91.0439 21.9514 91.1399 21.9994 91.2119 22.0954C91.3079 22.1674 91.3559 22.2634 91.3559 22.3834V25.1194C91.3559 25.2394 91.3079 25.3474 91.2119 25.4434C91.1399 25.5154 91.0439 25.5514 90.9239 25.5514H79.2239C79.1039 25.5514 78.9959 25.5154 78.8999 25.4434C78.8279 25.3474 78.7919 25.2394 78.7919 25.1194V0.78343C78.7919 0.66343 78.8279 0.56743 78.8999 0.49543C78.9959 0.399429 79.1039 0.351429 79.2239 0.351429H90.9239C91.0439 0.351429 91.1399 0.399429 91.2119 0.49543C91.3079 0.56743 91.3559 0.66343 91.3559 0.78343V3.51943Z" fill="#3FABF5"/>
<path d="M102.075 25.5514C101.955 25.5514 101.847 25.5154 101.751 25.4434C101.679 25.3474 101.643 25.2394 101.643 25.1194V0.78343C101.643 0.66343 101.679 0.56743 101.751 0.49543C101.847 0.399429 101.955 0.351429 102.075 0.351429H105.387C105.507 0.351429 105.603 0.399429 105.675 0.49543C105.771 0.56743 105.819 0.66343 105.819 0.78343V21.7714C105.819 21.8914 105.879 21.9514 105.999 21.9514H113.775C113.895 21.9514 113.991 21.9994 114.063 22.0954C114.159 22.1674 114.207 22.2634 114.207 22.3834V25.1194C114.207 25.2394 114.159 25.3474 114.063 25.4434C113.991 25.5154 113.895 25.5514 113.775 25.5514H102.075Z" fill="#3FABF5"/>
<path d="M127.758 25.5514C127.47 25.5514 127.314 25.4194 127.29 25.1554L126.606 21.3754C126.606 21.2554 126.534 21.1954 126.39 21.1954H121.134C120.99 21.1954 120.918 21.2554 120.918 21.3754L120.234 25.1554C120.21 25.4194 120.054 25.5514 119.766 25.5514H116.49C116.154 25.5514 116.022 25.3954 116.094 25.0834L121.422 0.747431C121.47 0.48343 121.626 0.351429 121.89 0.351429H125.706C125.97 0.351429 126.126 0.48343 126.174 0.747431L131.502 25.0834V25.2274C131.502 25.4434 131.37 25.5514 131.106 25.5514H127.758ZM121.566 17.7394C121.542 17.8594 121.602 17.9194 121.746 17.9194H125.742C125.886 17.9194 125.946 17.8594 125.922 17.7394L123.834 6.36343C123.81 6.29143 123.774 6.25543 123.726 6.25543C123.678 6.25543 123.642 6.29143 123.618 6.36343L121.566 17.7394Z" fill="#3FABF5"/>
<path d="M151.383 25.5514C151.095 25.5514 150.939 25.4194 150.915 25.1554L150.231 21.3754C150.231 21.2554 150.159 21.1954 150.015 21.1954H144.759C144.615 21.1954 144.543 21.2554 144.543 21.3754L143.859 25.1554C143.835 25.4194 143.679 25.5514 143.391 25.5514H140.115C139.779 25.5514 139.647 25.3954 139.719 25.0834L145.047 0.747431C145.095 0.48343 145.251 0.351429 145.515 0.351429H149.331C149.595 0.351429 149.751 0.48343 149.799 0.747431L155.127 25.0834V25.2274C155.127 25.4434 154.995 25.5514 154.731 25.5514H151.383ZM145.191 17.7394C145.167 17.8594 145.227 17.9194 145.371 17.9194H149.367C149.511 17.9194 149.571 17.8594 149.547 17.7394L147.459 6.36343C147.435 6.29143 147.399 6.25543 147.351 6.25543C147.303 6.25543 147.267 6.29143 147.243 6.36343L145.191 17.7394Z" fill="#3FABF5"/>
<path d="M164.741 0.31543C166.013 0.31543 167.129 0.62743 168.089 1.25143C169.073 1.87543 169.829 2.75143 170.357 3.87943C170.909 5.00743 171.185 6.29143 171.185 7.73143C171.185 9.89143 170.609 11.6314 169.457 12.9514C168.329 14.2714 166.829 14.9314 164.957 14.9314H161.897C161.777 14.9314 161.717 14.9914 161.717 15.1114V25.1194C161.717 25.2394 161.669 25.3474 161.573 25.4434C161.501 25.5154 161.405 25.5514 161.285 25.5514H157.973C157.853 25.5514 157.745 25.5154 157.649 25.4434C157.577 25.3474 157.541 25.2394 157.541 25.1194V0.747431C157.541 0.627431 157.577 0.53143 157.649 0.45943C157.745 0.36343 157.853 0.31543 157.973 0.31543H164.741ZM164.057 11.6554C164.945 11.6554 165.653 11.3194 166.181 10.6474C166.733 9.95143 167.009 9.01543 167.009 7.83943C167.009 6.63943 166.733 5.69143 166.181 4.99543C165.653 4.27543 164.945 3.91543 164.057 3.91543H161.897C161.777 3.91543 161.717 3.97543 161.717 4.09543V11.4754C161.717 11.5954 161.777 11.6554 161.897 11.6554H164.057Z" fill="#3FABF5"/>
<path d="M181.194 0.31543C182.466 0.31543 183.582 0.62743 184.542 1.25143C185.526 1.87543 186.282 2.75143 186.81 3.87943C187.362 5.00743 187.638 6.29143 187.638 7.73143C187.638 9.89143 187.062 11.6314 185.91 12.9514C184.782 14.2714 183.282 14.9314 181.41 14.9314H178.35C178.23 14.9314 178.17 14.9914 178.17 15.1114V25.1194C178.17 25.2394 178.122 25.3474 178.026 25.4434C177.954 25.5154 177.858 25.5514 177.738 25.5514H174.426C174.306 25.5514 174.198 25.5154 174.102 25.4434C174.03 25.3474 173.994 25.2394 173.994 25.1194V0.747431C173.994 0.627431 174.03 0.53143 174.102 0.45943C174.198 0.36343 174.306 0.31543 174.426 0.31543H181.194ZM180.51 11.6554C181.398 11.6554 182.106 11.3194 182.634 10.6474C183.186 9.95143 183.462 9.01543 183.462 7.83943C183.462 6.63943 183.186 5.69143 182.634 4.99543C182.106 4.27543 181.398 3.91543 180.51 3.91543H178.35C178.23 3.91543 178.17 3.97543 178.17 4.09543V11.4754C178.17 11.5954 178.23 11.6554 178.35 11.6554H180.51Z" fill="#3FABF5"/>
</svg>
