<svg width="124" height="45" viewBox="0 0 124 45" fill="none" xmlns="http://www.w3.org/2000/svg">
<path d="M2.90088 34.8985C2.83255 34.8985 2.79838 34.8643 2.79838 34.796V31.7313C2.79838 31.7039 2.79496 31.6868 2.78813 31.68L1.36338 27.8568L1.35313 27.8158C1.35313 27.7611 1.38388 27.7338 1.44538 27.7338H1.99888C2.06038 27.7338 2.10138 27.7611 2.12188 27.8158L3.12638 30.819C3.13321 30.8327 3.14346 30.8395 3.15713 30.8395C3.1708 30.8395 3.18105 30.8327 3.18788 30.819L4.19238 27.8158C4.21288 27.7611 4.25388 27.7338 4.31538 27.7338H4.86888C4.90305 27.7338 4.92696 27.7474 4.94063 27.7748C4.96113 27.7953 4.96455 27.8226 4.95088 27.8568L3.53638 31.68C3.52955 31.6868 3.52613 31.7039 3.52613 31.7313V34.796C3.52613 34.8643 3.49196 34.8985 3.42363 34.8985H2.90088ZM9.35862 34.96C8.88712 34.96 8.50787 34.8404 8.22087 34.6013C7.9407 34.3553 7.80062 34.0307 7.80062 33.6275V33.5558C7.80062 33.4874 7.83479 33.4533 7.90312 33.4533H8.39512C8.46345 33.4533 8.49762 33.4874 8.49762 33.5558V33.6173C8.49762 33.8359 8.5762 34.0204 8.73337 34.1708C8.89737 34.3211 9.1092 34.3963 9.36887 34.3963C9.61487 34.3963 9.81304 34.3211 9.96337 34.1708C10.1137 34.0204 10.1889 33.8291 10.1889 33.5968C10.1889 33.4191 10.141 33.2722 10.0454 33.156C9.9497 33.033 9.83695 32.9373 9.70712 32.869C9.58412 32.8007 9.3962 32.7118 9.14337 32.6025C8.87687 32.4932 8.65479 32.3873 8.47712 32.2848C8.30629 32.1754 8.15595 32.0251 8.02612 31.8338C7.90312 31.6356 7.84162 31.3862 7.84162 31.0855C7.84162 30.6482 7.97487 30.3031 8.24137 30.0503C8.5147 29.7974 8.88029 29.671 9.33812 29.671C9.80279 29.671 10.1718 29.8008 10.4451 30.0605C10.7185 30.3202 10.8551 30.6653 10.8551 31.0958V31.1265C10.8551 31.1948 10.821 31.229 10.7526 31.229H10.2811C10.2128 31.229 10.1786 31.1948 10.1786 31.1265V31.065C10.1786 30.8327 10.1 30.6413 9.94287 30.491C9.79254 30.3407 9.59437 30.2655 9.34837 30.2655C9.10237 30.2655 8.9042 30.3441 8.75387 30.5013C8.61037 30.6516 8.53862 30.8395 8.53862 31.065C8.53862 31.229 8.58304 31.3691 8.67187 31.4853C8.7607 31.5946 8.87004 31.6868 8.99987 31.762C9.1297 31.8303 9.31079 31.9158 9.54312 32.0183C9.82329 32.1413 10.0522 32.2574 10.2299 32.3668C10.4144 32.4761 10.575 32.6298 10.7116 32.828C10.8483 33.0262 10.9166 33.2722 10.9166 33.566C10.9166 33.9897 10.7765 34.3279 10.4964 34.5808C10.2162 34.8336 9.83695 34.96 9.35862 34.96ZM14.9349 32.4898C14.9349 32.5581 14.9007 32.5923 14.8324 32.5923H12.4954C12.468 32.5923 12.4544 32.6059 12.4544 32.6333V33.3815C12.4544 33.6685 12.5329 33.9043 12.6901 34.0888C12.8541 34.2664 13.0659 34.3553 13.3256 34.3553C13.5443 34.3553 13.7288 34.2903 13.8791 34.1605C14.0363 34.0238 14.1388 33.8496 14.1866 33.6378C14.2071 33.5763 14.2447 33.5455 14.2994 33.5455L14.8119 33.566C14.8392 33.566 14.8631 33.5763 14.8836 33.5968C14.9041 33.6173 14.9109 33.6446 14.9041 33.6788C14.8494 34.0819 14.682 34.4031 14.4019 34.6423C14.1285 34.8746 13.7698 34.9908 13.3256 34.9908C12.8404 34.9908 12.4509 34.8473 12.1571 34.5603C11.8701 34.2733 11.7266 33.894 11.7266 33.4225V31.2085C11.7266 30.7438 11.8701 30.368 12.1571 30.081C12.4509 29.7872 12.8404 29.6403 13.3256 29.6403C13.8176 29.6403 14.2071 29.7872 14.4941 30.081C14.7879 30.368 14.9349 30.7438 14.9349 31.2085V32.4898ZM13.3256 30.2758C13.0659 30.2758 12.8541 30.368 12.6901 30.5525C12.5329 30.7302 12.4544 30.9659 12.4544 31.2598V31.9465C12.4544 31.9738 12.468 31.9875 12.4954 31.9875H14.1764C14.2037 31.9875 14.2174 31.9738 14.2174 31.9465V31.2598C14.2174 30.9659 14.1354 30.7302 13.9714 30.5525C13.8074 30.368 13.5921 30.2758 13.3256 30.2758ZM18.3709 29.8248C18.3709 29.7564 18.4051 29.7223 18.4734 29.7223H18.9962C19.0645 29.7223 19.0987 29.7564 19.0987 29.8248V34.8063C19.0987 35.5374 18.9279 36.0909 18.5862 36.4668C18.2514 36.8494 17.6876 37.0237 16.8949 36.9895C16.8266 36.9827 16.7924 36.9451 16.7924 36.8768V36.436C16.7924 36.3677 16.8266 36.3335 16.8949 36.3335C17.4416 36.3472 17.8243 36.2208 18.0429 35.9543C18.2616 35.6946 18.3709 35.2914 18.3709 34.7448V34.4373C18.3709 34.4236 18.3641 34.4133 18.3504 34.4065C18.3436 34.3997 18.3334 34.4031 18.3197 34.4168C18.2035 34.5876 18.0532 34.7174 17.8687 34.8063C17.691 34.8951 17.4997 34.9395 17.2947 34.9395C16.8642 34.9395 16.5225 34.796 16.2697 34.509C16.0237 34.222 15.9007 33.8428 15.9007 33.3713V31.2085C15.9007 30.7302 16.0237 30.3509 16.2697 30.0708C16.5225 29.7838 16.8642 29.6403 17.2947 29.6403C17.4997 29.6403 17.691 29.6847 17.8687 29.7735C18.0532 29.8555 18.2035 29.9819 18.3197 30.1528C18.3334 30.1733 18.3436 30.1835 18.3504 30.1835C18.3641 30.1767 18.3709 30.163 18.3709 30.1425V29.8248ZM17.5099 34.304C17.7628 34.304 17.9678 34.2152 18.1249 34.0375C18.2889 33.853 18.3709 33.6173 18.3709 33.3303V31.2598C18.3709 30.9659 18.2889 30.7302 18.1249 30.5525C17.9678 30.368 17.7628 30.2758 17.5099 30.2758C17.2503 30.2758 17.0384 30.368 16.8744 30.5525C16.7104 30.7302 16.6284 30.9659 16.6284 31.2598V33.3303C16.6284 33.6173 16.7104 33.853 16.8744 34.0375C17.0384 34.2152 17.2503 34.304 17.5099 34.304ZM22.6153 29.8248C22.6153 29.7564 22.6495 29.7223 22.7178 29.7223H23.2406C23.3089 29.7223 23.3431 29.7564 23.3431 29.8248V34.8063C23.3431 34.8746 23.3089 34.9088 23.2406 34.9088H22.7178C22.6495 34.9088 22.6153 34.8746 22.6153 34.8063V34.4578C22.6153 34.4373 22.6085 34.427 22.5948 34.427C22.588 34.427 22.5777 34.4338 22.5641 34.4475C22.3522 34.8028 22.0106 34.9805 21.5391 34.9805C21.1291 34.9805 20.8011 34.8575 20.5551 34.6115C20.3159 34.3587 20.1963 33.9794 20.1963 33.4738V29.8248C20.1963 29.7564 20.2305 29.7223 20.2988 29.7223H20.8216C20.8899 29.7223 20.9241 29.7564 20.9241 29.8248V33.3098C20.9241 33.6514 20.9924 33.9111 21.1291 34.0888C21.2726 34.2596 21.4776 34.345 21.7441 34.345C22.0174 34.345 22.2292 34.2459 22.3796 34.0478C22.5367 33.8496 22.6153 33.5797 22.6153 33.238V29.8248ZM24.5713 34.9088C24.503 34.9088 24.4688 34.8746 24.4688 34.8063V29.8248C24.4688 29.7564 24.503 29.7223 24.5713 29.7223H25.0941C25.1624 29.7223 25.1966 29.7564 25.1966 29.8248V34.8063C25.1966 34.8746 25.1624 34.9088 25.0941 34.9088H24.5713ZM24.4791 29.0458C24.4381 29.0458 24.4107 29.0355 24.3971 29.015C24.3834 28.9877 24.3868 28.9569 24.4073 28.9228L25.0428 27.8055C25.077 27.7577 25.118 27.7338 25.1658 27.7338H25.5861C25.6271 27.7338 25.651 27.7474 25.6578 27.7748C25.6715 27.7953 25.6681 27.8226 25.6476 27.8568L24.9301 28.974C24.8959 29.0218 24.8549 29.0458 24.8071 29.0458H24.4791ZM31.471 32.4898C31.471 32.5581 31.4368 32.5923 31.3685 32.5923H29.0315C29.0042 32.5923 28.9905 32.6059 28.9905 32.6333V33.3815C28.9905 33.6685 29.0691 33.9043 29.2262 34.0888C29.3902 34.2664 29.6021 34.3553 29.8617 34.3553C30.0804 34.3553 30.2649 34.2903 30.4152 34.1605C30.5724 34.0238 30.6749 33.8496 30.7227 33.6378C30.7432 33.5763 30.7808 33.5455 30.8355 33.5455L31.348 33.566C31.3753 33.566 31.3992 33.5763 31.4197 33.5968C31.4402 33.6173 31.4471 33.6446 31.4402 33.6788C31.3856 34.0819 31.2182 34.4031 30.938 34.6423C30.6647 34.8746 30.3059 34.9908 29.8617 34.9908C29.3766 34.9908 28.9871 34.8473 28.6932 34.5603C28.4062 34.2733 28.2627 33.894 28.2627 33.4225V31.2085C28.2627 30.7438 28.4062 30.368 28.6932 30.081C28.9871 29.7872 29.3766 29.6403 29.8617 29.6403C30.3537 29.6403 30.7432 29.7872 31.0302 30.081C31.3241 30.368 31.471 30.7438 31.471 31.2085V32.4898ZM29.8617 30.2758C29.6021 30.2758 29.3902 30.368 29.2262 30.5525C29.0691 30.7302 28.9905 30.9659 28.9905 31.2598V31.9465C28.9905 31.9738 29.0042 31.9875 29.0315 31.9875H30.7125C30.7398 31.9875 30.7535 31.9738 30.7535 31.9465V31.2598C30.7535 30.9659 30.6715 30.7302 30.5075 30.5525C30.3435 30.368 30.1282 30.2758 29.8617 30.2758ZM33.8825 34.96C33.411 34.96 33.0318 34.8404 32.7448 34.6013C32.4646 34.3553 32.3245 34.0307 32.3245 33.6275V33.5558C32.3245 33.4874 32.3587 33.4533 32.427 33.4533H32.919C32.9874 33.4533 33.0215 33.4874 33.0215 33.5558V33.6173C33.0215 33.8359 33.1001 34.0204 33.2573 34.1708C33.4213 34.3211 33.6331 34.3963 33.8928 34.3963C34.1388 34.3963 34.337 34.3211 34.4873 34.1708C34.6376 34.0204 34.7128 33.8291 34.7128 33.5968C34.7128 33.4191 34.665 33.2722 34.5693 33.156C34.4736 33.033 34.3609 32.9373 34.231 32.869C34.108 32.8007 33.9201 32.7118 33.6673 32.6025C33.4008 32.4932 33.1787 32.3873 33.001 32.2848C32.8302 32.1754 32.6799 32.0251 32.55 31.8338C32.427 31.6356 32.3655 31.3862 32.3655 31.0855C32.3655 30.6482 32.4988 30.3031 32.7653 30.0503C33.0386 29.7974 33.4042 29.671 33.862 29.671C34.3267 29.671 34.6957 29.8008 34.969 30.0605C35.2424 30.3202 35.379 30.6653 35.379 31.0958V31.1265C35.379 31.1948 35.3449 31.229 35.2765 31.229H34.805C34.7367 31.229 34.7025 31.1948 34.7025 31.1265V31.065C34.7025 30.8327 34.624 30.6413 34.4668 30.491C34.3165 30.3407 34.1183 30.2655 33.8723 30.2655C33.6263 30.2655 33.4281 30.3441 33.2778 30.5013C33.1343 30.6516 33.0625 30.8395 33.0625 31.065C33.0625 31.229 33.107 31.3691 33.1958 31.4853C33.2846 31.5946 33.394 31.6868 33.5238 31.762C33.6536 31.8303 33.8347 31.9158 34.067 32.0183C34.3472 32.1413 34.5761 32.2574 34.7538 32.3668C34.9383 32.4761 35.0989 32.6298 35.2355 32.828C35.3722 33.0262 35.4405 33.2722 35.4405 33.566C35.4405 33.9897 35.3005 34.3279 35.0203 34.5808C34.7401 34.8336 34.3609 34.96 33.8825 34.96ZM37.8495 34.9908C37.3644 34.9908 36.9749 34.8473 36.681 34.5603C36.394 34.2733 36.2505 33.894 36.2505 33.4225V31.2085C36.2505 30.7438 36.3975 30.368 36.6913 30.081C36.9851 29.7872 37.3712 29.6403 37.8495 29.6403C38.1707 29.6403 38.4543 29.7052 38.7003 29.835C38.9463 29.9648 39.1342 30.1391 39.264 30.3578C39.4007 30.5696 39.469 30.8053 39.469 31.065V31.1675C39.469 31.2358 39.4349 31.27 39.3665 31.27L38.8438 31.2905C38.7755 31.2905 38.7413 31.2563 38.7413 31.188V31.1163C38.7413 30.8908 38.6559 30.696 38.485 30.532C38.321 30.3612 38.1092 30.2758 37.8495 30.2758C37.5899 30.2758 37.378 30.368 37.214 30.5525C37.0569 30.7302 36.9783 30.9659 36.9783 31.2598V33.3713C36.9783 33.6651 37.0569 33.9043 37.214 34.0888C37.378 34.2664 37.5899 34.3553 37.8495 34.3553C38.1092 34.3553 38.321 34.2733 38.485 34.1093C38.6559 33.9384 38.7413 33.7403 38.7413 33.5148V33.443C38.7413 33.3747 38.7755 33.3405 38.8438 33.3405L39.3665 33.3508C39.4349 33.3508 39.469 33.3849 39.469 33.4533V33.566C39.469 33.976 39.3187 34.3177 39.018 34.591C38.7242 34.8575 38.3347 34.9908 37.8495 34.9908ZM42.8551 29.8248C42.8551 29.7564 42.8892 29.7223 42.9576 29.7223H43.4803C43.5486 29.7223 43.5828 29.7564 43.5828 29.8248V34.8063C43.5828 34.8746 43.5486 34.9088 43.4803 34.9088H42.9576C42.8892 34.9088 42.8551 34.8746 42.8551 34.8063V34.4578C42.8551 34.4373 42.8482 34.427 42.8346 34.427C42.8277 34.427 42.8175 34.4338 42.8038 34.4475C42.592 34.8028 42.2503 34.9805 41.7788 34.9805C41.3688 34.9805 41.0408 34.8575 40.7948 34.6115C40.5556 34.3587 40.4361 33.9794 40.4361 33.4738V29.8248C40.4361 29.7564 40.4702 29.7223 40.5386 29.7223H41.0613C41.1296 29.7223 41.1638 29.7564 41.1638 29.8248V33.3098C41.1638 33.6514 41.2321 33.9111 41.3688 34.0888C41.5123 34.2596 41.7173 34.345 41.9838 34.345C42.2571 34.345 42.469 34.2459 42.6193 34.0478C42.7765 33.8496 42.8551 33.5797 42.8551 33.238V29.8248ZM46.3178 34.9908C45.8326 34.9908 45.4431 34.8473 45.1493 34.5603C44.8623 34.2733 44.7188 33.894 44.7188 33.4225V31.2085C44.7188 30.7438 44.8657 30.368 45.1595 30.081C45.4534 29.7872 45.8395 29.6403 46.3178 29.6403C46.639 29.6403 46.9225 29.7052 47.1685 29.835C47.4145 29.9648 47.6025 30.1391 47.7323 30.3578C47.869 30.5696 47.9373 30.8053 47.9373 31.065V31.1675C47.9373 31.2358 47.9031 31.27 47.8348 31.27L47.312 31.2905C47.2437 31.2905 47.2095 31.2563 47.2095 31.188V31.1163C47.2095 30.8908 47.1241 30.696 46.9533 30.532C46.7893 30.3612 46.5775 30.2758 46.3178 30.2758C46.0581 30.2758 45.8463 30.368 45.6823 30.5525C45.5251 30.7302 45.4465 30.9659 45.4465 31.2598V33.3713C45.4465 33.6651 45.5251 33.9043 45.6823 34.0888C45.8463 34.2664 46.0581 34.3553 46.3178 34.3553C46.5775 34.3553 46.7893 34.2733 46.9533 34.1093C47.1241 33.9384 47.2095 33.7403 47.2095 33.5148V33.443C47.2095 33.3747 47.2437 33.3405 47.312 33.3405L47.8348 33.3508C47.9031 33.3508 47.9373 33.3849 47.9373 33.4533V33.566C47.9373 33.976 47.787 34.3177 47.4863 34.591C47.1925 34.8575 46.803 34.9908 46.3178 34.9908ZM50.8006 29.6505C51.2174 29.6505 51.5386 29.794 51.7641 30.081C51.9964 30.368 52.1126 30.7678 52.1126 31.2803V34.8063C52.1126 34.8746 52.0784 34.9088 52.0101 34.9088H51.4873C51.419 34.9088 51.3848 34.8746 51.3848 34.8063V31.3418C51.3848 31.0069 51.3097 30.7473 51.1593 30.5628C51.0158 30.3783 50.8142 30.286 50.5546 30.286C50.2812 30.286 50.066 30.3851 49.9088 30.5833C49.7585 30.7814 49.6833 31.0513 49.6833 31.393V34.8063C49.6833 34.8746 49.6492 34.9088 49.5808 34.9088H49.0581C48.9897 34.9088 48.9556 34.8746 48.9556 34.8063V27.8363C48.9556 27.7679 48.9897 27.7338 49.0581 27.7338H49.5808C49.6492 27.7338 49.6833 27.7679 49.6833 27.8363V30.1528C49.6833 30.1664 49.6902 30.1767 49.7038 30.1835C49.7175 30.1903 49.7277 30.1835 49.7346 30.163C49.8576 29.9922 50.0113 29.8658 50.1958 29.7838C50.3872 29.6949 50.5887 29.6505 50.8006 29.6505ZM54.8168 29.6403C55.2951 29.6403 55.6778 29.7974 55.9648 30.1118C56.2518 30.4193 56.3953 30.8327 56.3953 31.352V34.8063C56.3953 34.8746 56.3611 34.9088 56.2928 34.9088H55.7701C55.7017 34.9088 55.6676 34.8746 55.6676 34.8063V34.4988C55.6676 34.4851 55.6607 34.4783 55.6471 34.4783C55.6402 34.4714 55.63 34.4748 55.6163 34.4885C55.3635 34.8233 54.9842 34.9908 54.4786 34.9908C54.1027 34.9908 53.7747 34.8848 53.4946 34.673C53.2212 34.4543 53.0846 34.0717 53.0846 33.525C53.0846 32.9442 53.252 32.5205 53.5868 32.254C53.9216 31.9807 54.3624 31.844 54.9091 31.844H55.6266C55.6539 31.844 55.6676 31.8303 55.6676 31.803V31.4033C55.6676 31.0616 55.589 30.7883 55.4318 30.5833C55.2746 30.3783 55.0628 30.2758 54.7963 30.2758C54.5913 30.2758 54.4136 30.3441 54.2633 30.4808C54.1198 30.6174 54.0344 30.7917 54.0071 31.0035C54.0071 31.0718 53.9729 31.106 53.9046 31.106L53.3306 31.0958C53.2964 31.0958 53.2691 31.0855 53.2486 31.065C53.2349 31.0445 53.2315 31.0206 53.2383 30.9933C53.2725 30.5901 53.4365 30.2655 53.7303 30.0195C54.0241 29.7667 54.3863 29.6403 54.8168 29.6403ZM54.6323 34.3553C54.9125 34.3553 55.1551 34.2664 55.3601 34.0888C55.5651 33.9043 55.6676 33.6514 55.6676 33.3303V32.4693C55.6676 32.4419 55.6539 32.4283 55.6266 32.4283H54.8988C54.5708 32.4283 54.3111 32.5171 54.1198 32.6948C53.9285 32.8656 53.8328 33.1218 53.8328 33.4635C53.8328 33.7642 53.9046 33.9897 54.0481 34.14C54.1984 34.2835 54.3931 34.3553 54.6323 34.3553ZM59.3789 29.6505C59.7958 29.6505 60.1169 29.794 60.3424 30.081C60.5748 30.368 60.6909 30.7678 60.6909 31.2803V34.8063C60.6909 34.8746 60.6568 34.9088 60.5884 34.9088H60.0657C59.9974 34.9088 59.9632 34.8746 59.9632 34.8063V31.3418C59.9632 31.0069 59.888 30.7473 59.7377 30.5628C59.5942 30.3783 59.3926 30.286 59.1329 30.286C58.8596 30.286 58.6444 30.3851 58.4872 30.5833C58.3369 30.7814 58.2617 31.0513 58.2617 31.393V34.8063C58.2617 34.8746 58.2275 34.9088 58.1592 34.9088H57.6364C57.5681 34.9088 57.5339 34.8746 57.5339 34.8063V29.8248C57.5339 29.7564 57.5681 29.7223 57.6364 29.7223H58.1592C58.2275 29.7223 58.2617 29.7564 58.2617 29.8248V30.1528C58.2617 30.1664 58.2685 30.1767 58.2822 30.1835C58.2959 30.1903 58.3061 30.1835 58.3129 30.163C58.4359 29.9922 58.5897 29.8658 58.7742 29.7838C58.9655 29.6949 59.1671 29.6505 59.3789 29.6505ZM64.2357 27.8363C64.2357 27.7679 64.2698 27.7338 64.3382 27.7338H64.8609C64.9293 27.7338 64.9634 27.7679 64.9634 27.8363V34.8063C64.9634 34.8746 64.9293 34.9088 64.8609 34.9088H64.3382C64.2698 34.9088 64.2357 34.8746 64.2357 34.8063V34.5808C64.2357 34.5671 64.2288 34.5568 64.2152 34.55C64.2083 34.5432 64.1981 34.5466 64.1844 34.5603C63.9248 34.8473 63.5968 34.9908 63.2004 34.9908C62.7631 34.9908 62.4146 34.8473 62.1549 34.5603C61.8953 34.2664 61.7654 33.8872 61.7654 33.4225V31.2085C61.7654 30.7302 61.8953 30.3509 62.1549 30.0708C62.4146 29.7838 62.7631 29.6403 63.2004 29.6403C63.6036 29.6403 63.9316 29.7872 64.1844 30.081C64.1981 30.0947 64.2083 30.0981 64.2152 30.0913C64.2288 30.0844 64.2357 30.0742 64.2357 30.0605V27.8363ZM63.3747 34.3553C63.6275 34.3553 63.8325 34.2664 63.9897 34.0888C64.1537 33.9043 64.2357 33.6685 64.2357 33.3815V31.2598C64.2357 30.9659 64.1537 30.7302 63.9897 30.5525C63.8325 30.368 63.6275 30.2758 63.3747 30.2758C63.115 30.2758 62.8998 30.368 62.7289 30.5525C62.5649 30.7302 62.4829 30.9659 62.4829 31.2598V33.3815C62.4829 33.6685 62.5649 33.9043 62.7289 34.0888C62.8998 34.2664 63.115 34.3553 63.3747 34.3553ZM67.7089 34.9908C67.2169 34.9908 66.824 34.8473 66.5302 34.5603C66.2432 34.2733 66.0997 33.894 66.0997 33.4225V31.2188C66.0997 30.7541 66.2466 30.3748 66.5404 30.081C66.8342 29.7872 67.2237 29.6403 67.7089 29.6403C68.2009 29.6403 68.5938 29.7872 68.8877 30.081C69.1815 30.3748 69.3284 30.7541 69.3284 31.2188V33.4225C69.3284 33.894 69.1815 34.2733 68.8877 34.5603C68.5938 34.8473 68.2009 34.9908 67.7089 34.9908ZM67.7089 34.345C67.9686 34.345 68.1804 34.2562 68.3444 34.0785C68.5152 33.9008 68.6007 33.6651 68.6007 33.3713V31.2598C68.6007 30.9659 68.5152 30.7302 68.3444 30.5525C68.1804 30.368 67.9686 30.2758 67.7089 30.2758C67.4492 30.2758 67.2374 30.368 67.0734 30.5525C66.9094 30.7302 66.8274 30.9659 66.8274 31.2598V33.3713C66.8274 33.6651 66.9094 33.9008 67.0734 34.0785C67.2374 34.2562 67.4492 34.345 67.7089 34.345ZM75.5013 34.9088C75.4398 34.9088 75.3988 34.8814 75.3783 34.8268L74.3328 31.6595C74.326 31.639 74.3123 31.6288 74.2918 31.6288H73.4001C73.3727 31.6288 73.3591 31.6424 73.3591 31.6698V34.8063C73.3591 34.8746 73.3249 34.9088 73.2566 34.9088H72.7338C72.6655 34.9088 72.6313 34.8746 72.6313 34.8063V27.8363C72.6313 27.7679 72.6655 27.7338 72.7338 27.7338H74.4251C74.9239 27.7338 75.3271 27.9183 75.6346 28.2873C75.9421 28.6494 76.0958 29.1243 76.0958 29.712C76.0958 30.1562 76.0001 30.5388 75.8088 30.86C75.6175 31.1812 75.3578 31.4067 75.0298 31.5365C75.0025 31.5433 74.9922 31.5604 74.9991 31.5878L76.1163 34.796L76.1266 34.837C76.1266 34.8848 76.0958 34.9088 76.0343 34.9088H75.5013ZM73.4001 28.3693C73.3727 28.3693 73.3591 28.3829 73.3591 28.4103V31.0035C73.3591 31.0308 73.3727 31.0445 73.4001 31.0445H74.3226C74.6369 31.0445 74.8897 30.9249 75.0811 30.6858C75.2724 30.4398 75.3681 30.1152 75.3681 29.712C75.3681 29.3088 75.2724 28.9843 75.0811 28.7383C74.8897 28.4923 74.6369 28.3693 74.3226 28.3693H73.4001ZM78.58 29.6403C79.0583 29.6403 79.441 29.7974 79.728 30.1118C80.015 30.4193 80.1585 30.8327 80.1585 31.352V34.8063C80.1585 34.8746 80.1243 34.9088 80.056 34.9088H79.5332C79.4649 34.9088 79.4307 34.8746 79.4307 34.8063V34.4988C79.4307 34.4851 79.4239 34.4783 79.4102 34.4783C79.4034 34.4714 79.3932 34.4748 79.3795 34.4885C79.1267 34.8233 78.7474 34.9908 78.2417 34.9908C77.8659 34.9908 77.5379 34.8848 77.2577 34.673C76.9844 34.4543 76.8477 34.0717 76.8477 33.525C76.8477 32.9442 77.0152 32.5205 77.35 32.254C77.6848 31.9807 78.1256 31.844 78.6722 31.844H79.3897C79.4171 31.844 79.4307 31.8303 79.4307 31.803V31.4033C79.4307 31.0616 79.3522 30.7883 79.195 30.5833C79.0378 30.3783 78.826 30.2758 78.5595 30.2758C78.3545 30.2758 78.1768 30.3441 78.0265 30.4808C77.883 30.6174 77.7976 30.7917 77.7702 31.0035C77.7702 31.0718 77.7361 31.106 77.6677 31.106L77.0937 31.0958C77.0596 31.0958 77.0322 31.0855 77.0117 31.065C76.9981 31.0445 76.9947 31.0206 77.0015 30.9933C77.0357 30.5901 77.1997 30.2655 77.4935 30.0195C77.7873 29.7667 78.1495 29.6403 78.58 29.6403ZM78.3955 34.3553C78.6757 34.3553 78.9182 34.2664 79.1232 34.0888C79.3282 33.9043 79.4307 33.6514 79.4307 33.3303V32.4693C79.4307 32.4419 79.4171 32.4283 79.3897 32.4283H78.662C78.334 32.4283 78.0743 32.5171 77.883 32.6948C77.6917 32.8656 77.596 33.1218 77.596 33.4635C77.596 33.7642 77.6677 33.9897 77.8112 34.14C77.9616 34.2835 78.1563 34.3553 78.3955 34.3553ZM83.6546 27.8363C83.6546 27.7679 83.6888 27.7338 83.7571 27.7338H84.2799C84.3482 27.7338 84.3824 27.7679 84.3824 27.8363V34.8063C84.3824 34.8746 84.3482 34.9088 84.2799 34.9088H83.7571C83.6888 34.9088 83.6546 34.8746 83.6546 34.8063V34.5808C83.6546 34.5671 83.6478 34.5568 83.6341 34.55C83.6273 34.5432 83.617 34.5466 83.6034 34.5603C83.3437 34.8473 83.0157 34.9908 82.6194 34.9908C82.182 34.9908 81.8335 34.8473 81.5739 34.5603C81.3142 34.2664 81.1844 33.8872 81.1844 33.4225V31.2085C81.1844 30.7302 81.3142 30.3509 81.5739 30.0708C81.8335 29.7838 82.182 29.6403 82.6194 29.6403C83.0225 29.6403 83.3505 29.7872 83.6034 30.081C83.617 30.0947 83.6273 30.0981 83.6341 30.0913C83.6478 30.0844 83.6546 30.0742 83.6546 30.0605V27.8363ZM82.7936 34.3553C83.0465 34.3553 83.2515 34.2664 83.4086 34.0888C83.5726 33.9043 83.6546 33.6685 83.6546 33.3815V31.2598C83.6546 30.9659 83.5726 30.7302 83.4086 30.5525C83.2515 30.368 83.0465 30.2758 82.7936 30.2758C82.534 30.2758 82.3187 30.368 82.1479 30.5525C81.9839 30.7302 81.9019 30.9659 81.9019 31.2598V33.3815C81.9019 33.6685 81.9839 33.9043 82.1479 34.0888C82.3187 34.2664 82.534 34.3553 82.7936 34.3553ZM86.0721 28.7793C85.9013 28.7793 85.7612 28.7246 85.6519 28.6153C85.5494 28.5059 85.4981 28.3693 85.4981 28.2053C85.4981 28.0344 85.5494 27.8978 85.6519 27.7953C85.7612 27.6859 85.9013 27.6313 86.0721 27.6313C86.2361 27.6313 86.3694 27.6859 86.4719 27.7953C86.5812 27.8978 86.6359 28.0344 86.6359 28.2053C86.6359 28.3693 86.5812 28.5059 86.4719 28.6153C86.3694 28.7246 86.2361 28.7793 86.0721 28.7793ZM85.8159 34.9088C85.7475 34.9088 85.7134 34.8746 85.7134 34.8063V29.8248C85.7134 29.7564 85.7475 29.7223 85.8159 29.7223H86.3386C86.4069 29.7223 86.4411 29.7564 86.4411 29.8248V34.8063C86.4411 34.8746 86.4069 34.9088 86.3386 34.9088H85.8159ZM89.2599 34.9908C88.7679 34.9908 88.375 34.8473 88.0812 34.5603C87.7942 34.2733 87.6507 33.894 87.6507 33.4225V31.2188C87.6507 30.7541 87.7976 30.3748 88.0914 30.081C88.3853 29.7872 88.7748 29.6403 89.2599 29.6403C89.7519 29.6403 90.1449 29.7872 90.4387 30.081C90.7325 30.3748 90.8794 30.7541 90.8794 31.2188V33.4225C90.8794 33.894 90.7325 34.2733 90.4387 34.5603C90.1449 34.8473 89.7519 34.9908 89.2599 34.9908ZM89.2599 34.345C89.5196 34.345 89.7314 34.2562 89.8954 34.0785C90.0663 33.9008 90.1517 33.6651 90.1517 33.3713V31.2598C90.1517 30.9659 90.0663 30.7302 89.8954 30.5525C89.7314 30.368 89.5196 30.2758 89.2599 30.2758C89.0003 30.2758 88.7884 30.368 88.6244 30.5525C88.4604 30.7302 88.3784 30.9659 88.3784 31.2598V33.3713C88.3784 33.6651 88.4604 33.9008 88.6244 34.0785C88.7884 34.2562 89.0003 34.345 89.2599 34.345ZM95.4021 34.9088C95.3406 34.9088 95.303 34.878 95.2893 34.8165L93.8031 27.8465V27.826C93.8031 27.7645 93.8338 27.7338 93.8953 27.7338H94.4693C94.5377 27.7338 94.5753 27.7645 94.5821 27.826L95.6891 33.5558C95.6959 33.5694 95.7028 33.5763 95.7096 33.5763C95.7164 33.5763 95.7233 33.5694 95.7301 33.5558L96.8268 27.826C96.8405 27.7645 96.8781 27.7338 96.9396 27.7338H97.4931C97.5683 27.7338 97.599 27.7713 97.5853 27.8465L96.0991 34.8165C96.0923 34.878 96.0547 34.9088 95.9863 34.9088H95.4021ZM99.9508 29.6403C100.429 29.6403 100.812 29.7974 101.099 30.1118C101.386 30.4193 101.529 30.8327 101.529 31.352V34.8063C101.529 34.8746 101.495 34.9088 101.427 34.9088H100.904C100.836 34.9088 100.802 34.8746 100.802 34.8063V34.4988C100.802 34.4851 100.795 34.4783 100.781 34.4783C100.774 34.4714 100.764 34.4748 100.75 34.4885C100.498 34.8233 100.118 34.9908 99.6126 34.9908C99.2368 34.9908 98.9088 34.8848 98.6286 34.673C98.3553 34.4543 98.2186 34.0717 98.2186 33.525C98.2186 32.9442 98.386 32.5205 98.7208 32.254C99.0557 31.9807 99.4964 31.844 100.043 31.844H100.761C100.788 31.844 100.802 31.8303 100.802 31.803V31.4033C100.802 31.0616 100.723 30.7883 100.566 30.5833C100.409 30.3783 100.197 30.2758 99.9303 30.2758C99.7253 30.2758 99.5477 30.3441 99.3973 30.4808C99.2538 30.6174 99.1684 30.7917 99.1411 31.0035C99.1411 31.0718 99.1069 31.106 99.0386 31.106L98.4646 31.0958C98.4304 31.0958 98.4031 31.0855 98.3826 31.065C98.3689 31.0445 98.3655 31.0206 98.3723 30.9933C98.4065 30.5901 98.5705 30.2655 98.8643 30.0195C99.1582 29.7667 99.5203 29.6403 99.9508 29.6403ZM99.7663 34.3553C100.047 34.3553 100.289 34.2664 100.494 34.0888C100.699 33.9043 100.802 33.6514 100.802 33.3303V32.4693C100.802 32.4419 100.788 32.4283 100.761 32.4283H100.033C99.7048 32.4283 99.4452 32.5171 99.2538 32.6948C99.0625 32.8656 98.9668 33.1218 98.9668 33.4635C98.9668 33.7642 99.0386 33.9897 99.1821 34.14C99.3324 34.2835 99.5272 34.3553 99.7663 34.3553ZM106.819 29.6505C107.229 29.6505 107.547 29.8008 107.772 30.1015C107.998 30.4022 108.111 30.819 108.111 31.352V34.8063C108.111 34.8746 108.077 34.9088 108.008 34.9088H107.496C107.427 34.9088 107.393 34.8746 107.393 34.8063V31.4135C107.393 31.065 107.318 30.7917 107.168 30.5935C107.024 30.3885 106.833 30.286 106.594 30.286C106.334 30.286 106.129 30.3851 105.979 30.5833C105.828 30.7814 105.753 31.0513 105.753 31.393V34.8063C105.753 34.8746 105.719 34.9088 105.651 34.9088H105.128C105.06 34.9088 105.025 34.8746 105.025 34.8063V31.4135C105.025 31.065 104.95 30.7917 104.8 30.5935C104.656 30.3885 104.469 30.286 104.236 30.286C103.977 30.286 103.768 30.3851 103.611 30.5833C103.461 30.7814 103.385 31.0513 103.385 31.393V34.8063C103.385 34.8746 103.351 34.9088 103.283 34.9088H102.77C102.702 34.9088 102.668 34.8746 102.668 34.8063V29.8248C102.668 29.7564 102.702 29.7223 102.77 29.7223H103.283C103.351 29.7223 103.385 29.7564 103.385 29.8248V30.1425C103.385 30.1562 103.389 30.1664 103.396 30.1733C103.409 30.1733 103.423 30.1664 103.437 30.1528C103.567 29.9819 103.72 29.8555 103.898 29.7735C104.076 29.6915 104.264 29.6505 104.462 29.6505C104.721 29.6505 104.947 29.7154 105.138 29.8453C105.33 29.9683 105.476 30.1459 105.579 30.3783C105.586 30.3919 105.596 30.3988 105.61 30.3988C105.623 30.3988 105.634 30.3885 105.64 30.368C105.763 30.122 105.931 29.9409 106.143 29.8248C106.355 29.7086 106.58 29.6505 106.819 29.6505ZM111.139 29.6403C111.569 29.6403 111.915 29.7872 112.174 30.081C112.434 30.368 112.564 30.7438 112.564 31.2085V33.4225C112.564 33.9008 112.434 34.2835 112.174 34.5705C111.915 34.8507 111.569 34.9908 111.139 34.9908C110.948 34.9908 110.767 34.9566 110.596 34.8883C110.425 34.8131 110.275 34.7003 110.145 34.55C110.131 34.5363 110.117 34.5329 110.104 34.5398C110.097 34.5466 110.093 34.5568 110.093 34.5705V36.7948C110.093 36.8631 110.059 36.8973 109.991 36.8973H109.468C109.4 36.8973 109.366 36.8631 109.366 36.7948V29.8248C109.366 29.7564 109.4 29.7223 109.468 29.7223H109.991C110.059 29.7223 110.093 29.7564 110.093 29.8248V30.0605C110.093 30.0742 110.1 30.0844 110.114 30.0913C110.128 30.0913 110.141 30.0844 110.155 30.0708C110.278 29.9273 110.425 29.8213 110.596 29.753C110.773 29.6778 110.954 29.6403 111.139 29.6403ZM111.846 31.2598C111.846 30.9659 111.761 30.7302 111.59 30.5525C111.426 30.368 111.214 30.2758 110.954 30.2758C110.702 30.2758 110.493 30.368 110.329 30.5525C110.172 30.7302 110.093 30.9659 110.093 31.2598V33.3713C110.093 33.6651 110.172 33.9043 110.329 34.0888C110.493 34.2664 110.702 34.3553 110.954 34.3553C111.214 34.3553 111.426 34.2664 111.59 34.0888C111.761 33.9043 111.846 33.6651 111.846 33.3713V31.2598ZM114.139 28.7793C113.969 28.7793 113.829 28.7246 113.719 28.6153C113.617 28.5059 113.565 28.3693 113.565 28.2053C113.565 28.0344 113.617 27.8978 113.719 27.7953C113.829 27.6859 113.969 27.6313 114.139 27.6313C114.303 27.6313 114.437 27.6859 114.539 27.7953C114.649 27.8978 114.703 28.0344 114.703 28.2053C114.703 28.3693 114.649 28.5059 114.539 28.6153C114.437 28.7246 114.303 28.7793 114.139 28.7793ZM113.883 34.9088C113.815 34.9088 113.781 34.8746 113.781 34.8063V29.8248C113.781 29.7564 113.815 29.7223 113.883 29.7223H114.406C114.474 29.7223 114.508 29.7564 114.508 29.8248V34.8063C114.508 34.8746 114.474 34.9088 114.406 34.9088H113.883ZM117.584 29.671C117.754 29.671 117.901 29.7086 118.024 29.7838C118.072 29.8111 118.089 29.8555 118.076 29.917L117.953 30.45C117.946 30.5115 117.905 30.532 117.83 30.5115C117.748 30.4705 117.645 30.45 117.522 30.45C117.467 30.45 117.426 30.4534 117.399 30.4603C117.153 30.4739 116.951 30.6038 116.794 30.8498C116.637 31.0889 116.559 31.3828 116.559 31.7313V34.8063C116.559 34.8746 116.524 34.9088 116.456 34.9088H115.933C115.865 34.9088 115.831 34.8746 115.831 34.8063V29.8248C115.831 29.7564 115.865 29.7223 115.933 29.7223H116.456C116.524 29.7223 116.559 29.7564 116.559 29.8248V30.4398C116.559 30.4603 116.562 30.4705 116.569 30.4705C116.582 30.4705 116.596 30.4637 116.61 30.45C116.808 29.9307 117.133 29.671 117.584 29.671ZM120.321 29.6403C120.799 29.6403 121.182 29.7974 121.469 30.1118C121.756 30.4193 121.899 30.8327 121.899 31.352V34.8063C121.899 34.8746 121.865 34.9088 121.797 34.9088H121.274C121.206 34.9088 121.171 34.8746 121.171 34.8063V34.4988C121.171 34.4851 121.165 34.4783 121.151 34.4783C121.144 34.4714 121.134 34.4748 121.12 34.4885C120.867 34.8233 120.488 34.9908 119.982 34.9908C119.607 34.9908 119.279 34.8848 118.998 34.673C118.725 34.4543 118.588 34.0717 118.588 33.525C118.588 32.9442 118.756 32.5205 119.091 32.254C119.426 31.9807 119.866 31.844 120.413 31.844H121.13C121.158 31.844 121.171 31.8303 121.171 31.803V31.4033C121.171 31.0616 121.093 30.7883 120.936 30.5833C120.779 30.3783 120.567 30.2758 120.3 30.2758C120.095 30.2758 119.918 30.3441 119.767 30.4808C119.624 30.6174 119.538 30.7917 119.511 31.0035C119.511 31.0718 119.477 31.106 119.408 31.106L118.834 31.0958C118.8 31.0958 118.773 31.0855 118.752 31.065C118.739 31.0445 118.735 31.0206 118.742 30.9933C118.776 30.5901 118.94 30.2655 119.234 30.0195C119.528 29.7667 119.89 29.6403 120.321 29.6403ZM120.136 34.3553C120.416 34.3553 120.659 34.2664 120.864 34.0888C121.069 33.9043 121.171 33.6514 121.171 33.3303V32.4693C121.171 32.4419 121.158 32.4283 121.13 32.4283H120.403C120.075 32.4283 119.815 32.5171 119.624 32.6948C119.432 32.8656 119.337 33.1218 119.337 33.4635C119.337 33.7642 119.408 33.9897 119.552 34.14C119.702 34.2835 119.897 34.3553 120.136 34.3553Z" fill="white"/>
<path d="M10.1573 19.8898C10.1573 21.3219 9.73695 22.4272 8.89635 23.2055C8.07132 23.9838 6.98943 24.373 5.6507 24.373H1.5411C1.46327 24.373 1.39322 24.3496 1.33095 24.3029C1.28425 24.2407 1.2609 24.1706 1.2609 24.0928V8.30819C1.2609 8.23035 1.28425 8.16808 1.33095 8.12138C1.39322 8.05912 1.46327 8.02798 1.5411 8.02798H5.2304C6.70923 8.02798 7.86895 8.40158 8.70955 9.14879C9.55015 9.89599 9.97045 10.9857 9.97045 12.4178C9.97045 14.0212 9.40227 15.1653 8.2659 15.8502C8.18807 15.8969 8.1725 15.9436 8.2192 15.9903C8.8263 16.3795 9.30108 16.901 9.64355 17.5548C9.98602 18.2086 10.1573 18.9869 10.1573 19.8898ZM4.08625 10.363C4.00842 10.363 3.9695 10.4019 3.9695 10.4797V14.8228C3.9695 14.9007 4.00842 14.9396 4.08625 14.9396H5.2771C5.91533 14.9396 6.41347 14.745 6.7715 14.3558C7.12953 13.9667 7.30855 13.4141 7.30855 12.698C7.30855 11.9508 7.12953 11.3748 6.7715 10.9701C6.41347 10.5654 5.91533 10.363 5.2771 10.363H4.08625ZM5.44055 22.0146C6.06322 22.0146 6.55357 21.7967 6.9116 21.3608C7.26963 20.925 7.44865 20.3101 7.44865 19.5162C7.44865 18.7067 7.26963 18.0763 6.9116 17.6248C6.55357 17.1578 6.06322 16.9243 5.44055 16.9243H4.08625C4.00842 16.9243 3.9695 16.9633 3.9695 17.0411V21.8979C3.9695 21.9757 4.00842 22.0146 4.08625 22.0146H5.44055ZM18.2219 24.373C18.0351 24.373 17.934 24.2874 17.9184 24.1161L17.4747 21.6644C17.4747 21.5866 17.428 21.5476 17.3346 21.5476H13.9255C13.8321 21.5476 13.7854 21.5866 13.7854 21.6644L13.3418 24.1161C13.3262 24.2874 13.225 24.373 13.0382 24.373H10.9134C10.6955 24.373 10.6098 24.2718 10.6565 24.0694L14.1123 8.28484C14.1435 8.1136 14.2447 8.02798 14.4159 8.02798H16.891C17.0622 8.02798 17.1634 8.1136 17.1945 8.28484L20.6503 24.0694V24.1628C20.6503 24.3029 20.5647 24.373 20.3935 24.373H18.2219ZM14.2057 19.306C14.1902 19.3839 14.2291 19.4228 14.3225 19.4228H16.9143C17.0077 19.4228 17.0467 19.3839 17.0311 19.306L15.6768 11.9274C15.6612 11.8807 15.6379 11.8574 15.6067 11.8574C15.5756 11.8574 15.5523 11.8807 15.5367 11.9274L14.2057 19.306ZM25.7636 24.5598C24.4716 24.5598 23.4286 24.1784 22.6347 23.4156C21.8408 22.6373 21.4439 21.6099 21.4439 20.3334V18.6055C21.4439 18.5277 21.4672 18.4654 21.5139 18.4187C21.5762 18.3565 21.6462 18.3253 21.7241 18.3253H23.8723C23.9501 18.3253 24.0124 18.3565 24.0591 18.4187C24.1213 18.4654 24.1525 18.5277 24.1525 18.6055V20.3801C24.1525 20.925 24.3004 21.3686 24.5961 21.7111C24.8919 22.0536 25.2811 22.2248 25.7636 22.2248C26.2462 22.2248 26.6354 22.0536 26.9311 21.7111C27.2425 21.3686 27.3981 20.925 27.3981 20.3801V8.30819C27.3981 8.23035 27.4215 8.16808 27.4682 8.12138C27.5304 8.05912 27.6005 8.02798 27.6783 8.02798H29.8265C29.9044 8.02798 29.9666 8.05912 30.0133 8.12138C30.0756 8.16808 30.1067 8.23035 30.1067 8.30819V20.3334C30.1067 21.6099 29.702 22.6373 28.8925 23.4156C28.0986 24.1784 27.0557 24.5598 25.7636 24.5598ZM39.0408 24.373C38.854 24.373 38.7529 24.2874 38.7373 24.1161L38.2936 21.6644C38.2936 21.5866 38.2469 21.5476 38.1535 21.5476H34.7444C34.651 21.5476 34.6043 21.5866 34.6043 21.6644L34.1607 24.1161C34.1451 24.2874 34.0439 24.373 33.8571 24.373H31.7323C31.5144 24.373 31.4287 24.2718 31.4754 24.0694L34.9312 8.28484C34.9624 8.1136 35.0636 8.02798 35.2348 8.02798H37.7099C37.8811 8.02798 37.9823 8.1136 38.0134 8.28484L41.4692 24.0694V24.1628C41.4692 24.3029 41.3836 24.373 41.2124 24.373H39.0408ZM35.0246 19.306C35.0091 19.3839 35.048 19.4228 35.1414 19.4228H37.7332C37.8266 19.4228 37.8656 19.3839 37.85 19.306L36.4957 11.9274C36.4801 11.8807 36.4568 11.8574 36.4256 11.8574C36.3945 11.8574 36.3712 11.8807 36.3556 11.9274L35.0246 19.306ZM50.0728 8.02798C50.1506 8.02798 50.2129 8.05912 50.2596 8.12138C50.3219 8.16808 50.353 8.23035 50.353 8.30819V10.0828C50.353 10.1606 50.3219 10.2307 50.2596 10.2929C50.2129 10.3396 50.1506 10.363 50.0728 10.363H47.1073C47.0295 10.363 46.9906 10.4019 46.9906 10.4797V24.0928C46.9906 24.1706 46.9595 24.2407 46.8972 24.3029C46.8505 24.3496 46.7882 24.373 46.7104 24.373H44.5622C44.4844 24.373 44.4143 24.3496 44.352 24.3029C44.3053 24.2407 44.282 24.1706 44.282 24.0928V10.4797C44.282 10.4019 44.2431 10.363 44.1652 10.363H41.3632C41.2854 10.363 41.2154 10.3396 41.1531 10.2929C41.1064 10.2307 41.083 10.1606 41.083 10.0828V8.30819C41.083 8.23035 41.1064 8.16808 41.1531 8.12138C41.2154 8.05912 41.2854 8.02798 41.3632 8.02798H50.0728ZM60.397 10.0828C60.397 10.1606 60.3658 10.2307 60.3036 10.2929C60.2569 10.3396 60.1946 10.363 60.1168 10.363H55.0732C54.9953 10.363 54.9564 10.4019 54.9564 10.4797V14.8929C54.9564 14.9707 54.9953 15.0096 55.0732 15.0096H58.062C58.1398 15.0096 58.2021 15.0408 58.2488 15.103C58.311 15.1497 58.3422 15.212 58.3422 15.2898V17.0878C58.3422 17.1656 58.311 17.2357 58.2488 17.2979C58.2021 17.3446 58.1398 17.368 58.062 17.368H55.0732C54.9953 17.368 54.9564 17.4069 54.9564 17.4847V21.9212C54.9564 21.9991 54.9953 22.038 55.0732 22.038H60.1168C60.1946 22.038 60.2569 22.0691 60.3036 22.1314C60.3658 22.1781 60.397 22.2404 60.397 22.3182V24.0928C60.397 24.1706 60.3658 24.2407 60.3036 24.3029C60.2569 24.3496 60.1946 24.373 60.1168 24.373H52.528C52.4502 24.373 52.3801 24.3496 52.3179 24.3029C52.2712 24.2407 52.2478 24.1706 52.2478 24.0928V8.30819C52.2478 8.23035 52.2712 8.16808 52.3179 8.12138C52.3801 8.05912 52.4502 8.02798 52.528 8.02798H60.1168C60.1946 8.02798 60.2569 8.05912 60.3036 8.12138C60.3658 8.16808 60.397 8.23035 60.397 8.30819V10.0828ZM67.3498 24.373C67.272 24.373 67.2019 24.3496 67.1396 24.3029C67.0929 24.2407 67.0696 24.1706 67.0696 24.0928V8.30819C67.0696 8.23035 67.0929 8.16808 67.1396 8.12138C67.2019 8.05912 67.272 8.02798 67.3498 8.02798H69.498C69.5758 8.02798 69.6381 8.05912 69.6848 8.12138C69.7471 8.16808 69.7782 8.23035 69.7782 8.30819V21.9212C69.7782 21.9991 69.8171 22.038 69.8949 22.038H74.9385C75.0164 22.038 75.0786 22.0691 75.1253 22.1314C75.1876 22.1781 75.2187 22.2404 75.2187 22.3182V24.0928C75.2187 24.1706 75.1876 24.2407 75.1253 24.3029C75.0786 24.3496 75.0164 24.373 74.9385 24.373H67.3498ZM84.0078 24.373C83.821 24.373 83.7198 24.2874 83.7043 24.1161L83.2606 21.6644C83.2606 21.5866 83.2139 21.5476 83.1205 21.5476H79.7114C79.618 21.5476 79.5713 21.5866 79.5713 21.6644L79.1277 24.1161C79.1121 24.2874 79.0109 24.373 78.8241 24.373H76.6993C76.4813 24.373 76.3957 24.2718 76.4424 24.0694L79.8982 8.28484C79.9294 8.1136 80.0305 8.02798 80.2018 8.02798H82.6769C82.8481 8.02798 82.9493 8.1136 82.9804 8.28484L86.4362 24.0694V24.1628C86.4362 24.3029 86.3506 24.373 86.1794 24.373H84.0078ZM79.9916 19.306C79.9761 19.3839 80.015 19.4228 80.1084 19.4228H82.7002C82.7936 19.4228 82.8325 19.3839 82.817 19.306L81.4627 11.9274C81.4471 11.8807 81.4238 11.8574 81.3926 11.8574C81.3615 11.8574 81.3381 11.8807 81.3226 11.9274L79.9916 19.306ZM99.3313 24.373C99.1445 24.373 99.0433 24.2874 99.0277 24.1161L98.5841 21.6644C98.5841 21.5866 98.5374 21.5476 98.444 21.5476H95.0349C94.9415 21.5476 94.8948 21.5866 94.8948 21.6644L94.4511 24.1161C94.4355 24.2874 94.3344 24.373 94.1476 24.373H92.0227C91.8048 24.373 91.7192 24.2718 91.7659 24.0694L95.2217 8.28484C95.2528 8.1136 95.354 8.02798 95.5252 8.02798H98.0003C98.1715 8.02798 98.2727 8.1136 98.3039 8.28484L101.76 24.0694V24.1628C101.76 24.3029 101.674 24.373 101.503 24.373H99.3313ZM95.3151 19.306C95.2995 19.3839 95.3384 19.4228 95.4318 19.4228H98.0237C98.1171 19.4228 98.156 19.3839 98.1404 19.306L96.7861 11.9274C96.7705 11.8807 96.7472 11.8574 96.7161 11.8574C96.6849 11.8574 96.6616 11.8807 96.646 11.9274L95.3151 19.306ZM107.995 8.00463C108.82 8.00463 109.544 8.207 110.167 8.61174C110.805 9.01647 111.296 9.58465 111.638 10.3163C111.996 11.0479 112.175 11.8807 112.175 12.8147C112.175 14.2157 111.801 15.3443 111.054 16.2005C110.323 17.0567 109.35 17.4847 108.135 17.4847H106.151C106.073 17.4847 106.034 17.5237 106.034 17.6015V24.0928C106.034 24.1706 106.003 24.2407 105.941 24.3029C105.894 24.3496 105.832 24.373 105.754 24.373H103.606C103.528 24.373 103.458 24.3496 103.395 24.3029C103.349 24.2407 103.325 24.1706 103.325 24.0928V8.28484C103.325 8.207 103.349 8.14474 103.395 8.09803C103.458 8.03577 103.528 8.00463 103.606 8.00463H107.995ZM107.552 15.3599C108.128 15.3599 108.587 15.142 108.929 14.7061C109.287 14.2547 109.466 13.6476 109.466 12.8848C109.466 12.1065 109.287 11.4916 108.929 11.0401C108.587 10.5731 108.128 10.3396 107.552 10.3396H106.151C106.073 10.3396 106.034 10.3786 106.034 10.4564V15.2431C106.034 15.321 106.073 15.3599 106.151 15.3599H107.552ZM118.667 8.00463C119.492 8.00463 120.216 8.207 120.839 8.61174C121.477 9.01647 121.967 9.58465 122.31 10.3163C122.668 11.0479 122.847 11.8807 122.847 12.8147C122.847 14.2157 122.473 15.3443 121.726 16.2005C120.994 17.0567 120.021 17.4847 118.807 17.4847H116.822C116.745 17.4847 116.706 17.5237 116.706 17.6015V24.0928C116.706 24.1706 116.675 24.2407 116.612 24.3029C116.566 24.3496 116.503 24.373 116.425 24.373H114.277C114.199 24.373 114.129 24.3496 114.067 24.3029C114.02 24.2407 113.997 24.1706 113.997 24.0928V8.28484C113.997 8.207 114.02 8.14474 114.067 8.09803C114.129 8.03577 114.199 8.00463 114.277 8.00463H118.667ZM118.223 15.3599C118.799 15.3599 119.259 15.142 119.601 14.7061C119.959 14.2547 120.138 13.6476 120.138 12.8848C120.138 12.1065 119.959 11.4916 119.601 11.0401C119.259 10.5731 118.799 10.3396 118.223 10.3396H116.822C116.745 10.3396 116.706 10.3786 116.706 10.4564V15.2431C116.706 15.321 116.745 15.3599 116.822 15.3599H118.223Z" fill="white"/>
</svg>
