<svg xmlns="http://www.w3.org/2000/svg" width="132" height="31" fill="none" viewBox="0 0 132 31"><path fill="#8BC43C" d="M4.29003 20.9115C4.31139 20.8617 4.35411 20.8367 4.41819 20.8367H4.97355C5.04475 20.8367 5.08035 20.8723 5.08035 20.9435V28.2059C5.08035 28.2771 5.04475 28.3127 4.97355 28.3127H4.42887C4.35767 28.3127 4.32207 28.2771 4.32207 28.2059V22.4815C4.32207 22.4601 4.31495 22.4494 4.30071 22.4494C4.29359 22.4494 4.28291 22.4565 4.26867 22.4708L3.15795 24.7777C3.13659 24.8275 3.10099 24.8524 3.05115 24.8524C2.99419 24.8524 2.95503 24.8275 2.93367 24.7777L1.82295 22.4815C1.80871 22.4672 1.79447 22.4601 1.78023 22.4601C1.77311 22.4601 1.76955 22.4708 1.76955 22.4921V28.2059C1.76955 28.2771 1.73395 28.3127 1.66275 28.3127H1.11807C1.04687 28.3127 1.01127 28.2771 1.01127 28.2059V20.9435C1.01127 20.8723 1.04687 20.8367 1.11807 20.8367H1.67343C1.73751 20.8367 1.78023 20.8617 1.80159 20.9115L3.01911 23.3786C3.02623 23.3928 3.03691 23.3999 3.05115 23.3999C3.06539 23.3999 3.07607 23.3928 3.08319 23.3786L4.29003 20.9115ZM9.42161 28.3127C9.35753 28.3127 9.31837 28.2807 9.30413 28.2166L9.03713 26.8923C9.03713 26.8781 9.03001 26.8674 9.01577 26.8603C9.00865 26.8531 8.99797 26.8496 8.98373 26.8496H7.05065C7.03641 26.8496 7.02217 26.8531 7.00793 26.8603C7.00081 26.8674 6.99725 26.8781 6.99725 26.8923L6.73025 28.2166C6.72313 28.2807 6.68397 28.3127 6.61277 28.3127H6.06809C6.03249 28.3127 6.00401 28.3021 5.98265 28.2807C5.96841 28.2593 5.96485 28.2309 5.97197 28.1953L7.57397 20.9329C7.58821 20.8688 7.62737 20.8367 7.69145 20.8367H8.33225C8.40345 20.8367 8.44261 20.8688 8.44973 20.9329L10.0731 28.1953V28.2166C10.0731 28.2807 10.041 28.3127 9.97697 28.3127H9.42161ZM7.13609 26.1874C7.13609 26.2159 7.14677 26.2301 7.16813 26.2301H8.85557C8.87693 26.2301 8.88761 26.2159 8.88761 26.1874L8.03321 21.9902C8.02609 21.9688 8.01897 21.9581 8.01185 21.9581C8.00473 21.9581 7.99761 21.9688 7.99049 21.9902L7.13609 26.1874ZM7.64873 20.1319C7.60601 20.1319 7.57753 20.1212 7.56329 20.0998C7.54905 20.0713 7.55261 20.0393 7.57397 20.0037L8.23613 18.8396C8.27173 18.7897 8.31445 18.7648 8.36429 18.7648H8.80217C8.84489 18.7648 8.86981 18.7791 8.87693 18.8075C8.89117 18.8289 8.88761 18.8574 8.86625 18.893L8.11865 20.0571C8.08305 20.1069 8.04033 20.1319 7.99049 20.1319H7.64873ZM12.2264 28.3982C11.6996 28.3982 11.2724 28.2237 10.9448 27.8749C10.6173 27.526 10.4536 27.0703 10.4536 26.5078V26.2622C10.4536 26.191 10.4892 26.1554 10.5604 26.1554H11.0837C11.1549 26.1554 11.1905 26.191 11.1905 26.2622V26.4758C11.1905 26.8531 11.2866 27.1593 11.4788 27.3943C11.6711 27.6221 11.9203 27.736 12.2264 27.736C12.5255 27.736 12.7747 27.6257 12.974 27.4049C13.1734 27.1842 13.2731 26.8923 13.2731 26.5292C13.2731 26.2871 13.2232 26.0806 13.1236 25.9097C13.031 25.7317 12.9064 25.5787 12.7498 25.4505C12.6002 25.3152 12.3475 25.1123 11.9915 24.8417C11.6355 24.5783 11.3542 24.354 11.1478 24.1689C10.9413 23.9767 10.7704 23.7488 10.6351 23.4854C10.507 23.2219 10.4429 22.9122 10.4429 22.5562C10.4429 22.0009 10.6031 21.563 10.9235 21.2426C11.2439 20.9151 11.6604 20.7513 12.173 20.7513C12.7142 20.7513 13.1449 20.9293 13.4653 21.2853C13.7928 21.6342 13.9566 22.1005 13.9566 22.6844V22.9514C13.9566 23.0226 13.921 23.0582 13.8498 23.0582H13.3158C13.2446 23.0582 13.209 23.0226 13.209 22.9514V22.6737C13.209 22.2963 13.1129 21.9937 12.9206 21.7659C12.7355 21.5309 12.4863 21.4135 12.173 21.4135C11.8882 21.4135 11.6533 21.5167 11.4682 21.7232C11.283 21.9225 11.1905 22.2073 11.1905 22.5776C11.1905 22.7983 11.2296 22.9941 11.308 23.165C11.3934 23.3287 11.518 23.4854 11.6818 23.6349C11.8455 23.7844 12.0876 23.9802 12.408 24.2223C12.8352 24.5356 13.152 24.7919 13.3585 24.9913C13.5721 25.1835 13.7359 25.3971 13.8498 25.6321C13.9637 25.8599 14.0207 26.1376 14.0207 26.4651C14.0207 27.0489 13.8534 27.5189 13.5187 27.8749C13.1841 28.2237 12.7533 28.3982 12.2264 28.3982ZM20.6125 20.9115C20.6339 20.8617 20.6766 20.8367 20.7407 20.8367H21.296C21.3672 20.8367 21.4028 20.8723 21.4028 20.9435V28.2059C21.4028 28.2771 21.3672 28.3127 21.296 28.3127H20.7513C20.6801 28.3127 20.6445 28.2771 20.6445 28.2059V22.4815C20.6445 22.4601 20.6374 22.4494 20.6232 22.4494C20.6161 22.4494 20.6054 22.4565 20.5911 22.4708L19.4804 24.7777C19.4591 24.8275 19.4235 24.8524 19.3736 24.8524C19.3167 24.8524 19.2775 24.8275 19.2561 24.7777L18.1454 22.4815C18.1312 22.4672 18.1169 22.4601 18.1027 22.4601C18.0956 22.4601 18.092 22.4708 18.092 22.4921V28.2059C18.092 28.2771 18.0564 28.3127 17.9852 28.3127H17.4405C17.3693 28.3127 17.3337 28.2771 17.3337 28.2059V20.9435C17.3337 20.8723 17.3693 20.8367 17.4405 20.8367H17.9959C18.06 20.8367 18.1027 20.8617 18.1241 20.9115L19.3416 23.3786C19.3487 23.3928 19.3594 23.3999 19.3736 23.3999C19.3879 23.3999 19.3985 23.3928 19.4057 23.3786L20.6125 20.9115ZM24.6867 28.3982C24.1385 28.3982 23.6971 28.2095 23.3624 27.8321C23.0278 27.4548 22.8605 26.9564 22.8605 26.3369V20.9435C22.8605 20.8723 22.8961 20.8367 22.9673 20.8367H23.5119C23.5831 20.8367 23.6187 20.8723 23.6187 20.9435V26.4224C23.6187 26.814 23.7149 27.1308 23.9071 27.3729C24.1065 27.615 24.3663 27.736 24.6867 27.736C25.0143 27.736 25.2777 27.615 25.4771 27.3729C25.6764 27.1308 25.7761 26.814 25.7761 26.4224V20.9435C25.7761 20.8723 25.8117 20.8367 25.8829 20.8367H26.4276C26.4988 20.8367 26.5344 20.8723 26.5344 20.9435V26.3369C26.5344 26.9564 26.3635 27.4548 26.0217 27.8321C25.6871 28.2095 25.2421 28.3982 24.6867 28.3982ZM24.3236 20.1319C24.2809 20.1319 24.2524 20.1212 24.2382 20.0998C24.2239 20.0713 24.2275 20.0393 24.2489 20.0037L24.911 18.8396C24.9466 18.7897 24.9893 18.7648 25.0392 18.7648H25.4771C25.5198 18.7648 25.5447 18.7791 25.5518 18.8075C25.5661 18.8289 25.5625 18.8574 25.5411 18.893L24.7935 20.0571C24.7579 20.1069 24.7152 20.1319 24.6654 20.1319H24.3236ZM29.4563 28.3982C28.9294 28.3982 28.5022 28.2237 28.1747 27.8749C27.8472 27.526 27.6834 27.0703 27.6834 26.5078V26.2622C27.6834 26.191 27.719 26.1554 27.7902 26.1554H28.3135C28.3847 26.1554 28.4203 26.191 28.4203 26.2622V26.4758C28.4203 26.8531 28.5164 27.1593 28.7087 27.3943C28.9009 27.6221 29.1501 27.736 29.4563 27.736C29.7553 27.736 30.0045 27.6257 30.2039 27.4049C30.4032 27.1842 30.5029 26.8923 30.5029 26.5292C30.5029 26.2871 30.4531 26.0806 30.3534 25.9097C30.2608 25.7317 30.1362 25.5787 29.9796 25.4505C29.8301 25.3152 29.5773 25.1123 29.2213 24.8417C28.8653 24.5783 28.5841 24.354 28.3776 24.1689C28.1711 23.9767 28.0002 23.7488 27.865 23.4854C27.7368 23.2219 27.6727 22.9122 27.6727 22.5562C27.6727 22.0009 27.8329 21.563 28.1533 21.2426C28.4737 20.9151 28.8902 20.7513 29.4029 20.7513C29.944 20.7513 30.3748 20.9293 30.6952 21.2853C31.0227 21.6342 31.1864 22.1005 31.1864 22.6844V22.9514C31.1864 23.0226 31.1508 23.0582 31.0796 23.0582H30.5456C30.4744 23.0582 30.4388 23.0226 30.4388 22.9514V22.6737C30.4388 22.2963 30.3427 21.9937 30.1505 21.7659C29.9654 21.5309 29.7162 21.4135 29.4029 21.4135C29.1181 21.4135 28.8831 21.5167 28.698 21.7232C28.5129 21.9225 28.4203 22.2073 28.4203 22.5776C28.4203 22.7983 28.4595 22.9941 28.5378 23.165C28.6232 23.3287 28.7478 23.4854 28.9116 23.6349C29.0754 23.7844 29.3174 23.9802 29.6378 24.2223C30.065 24.5356 30.3819 24.7919 30.5884 24.9913C30.802 25.1835 30.9657 25.3971 31.0796 25.6321C31.1936 25.8599 31.2505 26.1376 31.2505 26.4651C31.2505 27.0489 31.0832 27.5189 30.7486 27.8749C30.4139 28.2237 29.9832 28.3982 29.4563 28.3982ZM32.5537 28.3127C32.4825 28.3127 32.4469 28.2771 32.4469 28.2059V20.9435C32.4469 20.8723 32.4825 20.8367 32.5537 20.8367H33.0983C33.1695 20.8367 33.2051 20.8723 33.2051 20.9435V28.2059C33.2051 28.2771 33.1695 28.3127 33.0983 28.3127H32.5537ZM36.3754 28.3982C35.8272 28.3982 35.3857 28.2309 35.0511 27.8962C34.7236 27.5616 34.5598 27.113 34.5598 26.5505V22.5883C34.5598 22.0329 34.7236 21.5879 35.0511 21.2533C35.3857 20.9186 35.8272 20.7513 36.3754 20.7513C36.9308 20.7513 37.3722 20.9186 37.6997 21.2533C38.0344 21.5808 38.2017 22.0258 38.2017 22.5883V22.7698C38.2017 22.841 38.1661 22.8766 38.0949 22.8766L37.5395 22.9087C37.4683 22.9087 37.4327 22.8731 37.4327 22.8019V22.5349C37.4327 22.2002 37.3366 21.9297 37.1444 21.7232C36.9521 21.5167 36.6958 21.4135 36.3754 21.4135C36.0621 21.4135 35.8058 21.5167 35.6065 21.7232C35.4142 21.9297 35.3181 22.2002 35.3181 22.5349V26.6146C35.3181 26.9493 35.4142 27.2198 35.6065 27.4263C35.8058 27.6328 36.0621 27.736 36.3754 27.736C36.6958 27.736 36.9521 27.6328 37.1444 27.4263C37.3366 27.2198 37.4327 26.9493 37.4327 26.6146V26.3476C37.4327 26.2764 37.4683 26.2408 37.5395 26.2408L38.0949 26.2729C38.1661 26.2729 38.2017 26.3085 38.2017 26.3797V26.5505C38.2017 27.113 38.0344 27.5616 37.6997 27.8962C37.3651 28.2309 36.9237 28.3982 36.3754 28.3982ZM42.2856 28.3127C42.2215 28.3127 42.1823 28.2807 42.1681 28.2166L41.9011 26.8923C41.9011 26.8781 41.894 26.8674 41.8797 26.8603C41.8726 26.8531 41.8619 26.8496 41.8477 26.8496H39.9146C39.9004 26.8496 39.8861 26.8531 39.8719 26.8603C39.8648 26.8674 39.8612 26.8781 39.8612 26.8923L39.5942 28.2166C39.5871 28.2807 39.5479 28.3127 39.4767 28.3127H38.932C38.8964 28.3127 38.868 28.3021 38.8466 28.2807C38.8324 28.2593 38.8288 28.2309 38.8359 28.1953L40.4379 20.9329C40.4522 20.8688 40.4913 20.8367 40.5554 20.8367H41.1962C41.2674 20.8367 41.3066 20.8688 41.3137 20.9329L42.937 28.1953V28.2166C42.937 28.2807 42.905 28.3127 42.8409 28.3127H42.2856ZM40 26.1874C40 26.2159 40.0107 26.2301 40.0321 26.2301H41.7195C41.7409 26.2301 41.7516 26.2159 41.7516 26.1874L40.8972 21.9902C40.89 21.9688 40.8829 21.9581 40.8758 21.9581C40.8687 21.9581 40.8616 21.9688 40.8544 21.9902L40 26.1874ZM46.0914 28.3127C46.0202 28.3127 45.9846 28.2771 45.9846 28.2059V20.9435C45.9846 20.8723 46.0202 20.8367 46.0914 20.8367H47.7361C48.2843 20.8367 48.7222 21.0183 49.0497 21.3814C49.3773 21.7374 49.541 22.218 49.541 22.8232V26.3263C49.541 26.9315 49.3773 27.4156 49.0497 27.7787C48.7222 28.1347 48.2843 28.3127 47.7361 28.3127H46.0914ZM46.7429 27.6079C46.7429 27.6363 46.7571 27.6506 46.7856 27.6506L47.7254 27.6399C48.0387 27.6399 48.2879 27.5189 48.473 27.2768C48.6653 27.0347 48.7649 26.7072 48.7721 26.2942V22.8553C48.7721 22.4352 48.6795 22.1041 48.4944 21.862C48.3093 21.6199 48.0529 21.4989 47.7254 21.4989H46.7856C46.7571 21.4989 46.7429 21.5131 46.7429 21.5416V27.6079ZM54.2617 21.3921C54.2617 21.4633 54.2261 21.4989 54.1549 21.4989H51.6771C51.6486 21.4989 51.6344 21.5131 51.6344 21.5416V24.1903C51.6344 24.2187 51.6486 24.233 51.6771 24.233H53.2364C53.3076 24.233 53.3432 24.2686 53.3432 24.3398V24.799C53.3432 24.8702 53.3076 24.9058 53.2364 24.9058H51.6771C51.6486 24.9058 51.6344 24.9201 51.6344 24.9485V27.6079C51.6344 27.6363 51.6486 27.6506 51.6771 27.6506H54.1549C54.2261 27.6506 54.2617 27.6862 54.2617 27.7574V28.2059C54.2617 28.2771 54.2261 28.3127 54.1549 28.3127H50.9829C50.9117 28.3127 50.8761 28.2771 50.8761 28.2059V20.9435C50.8761 20.8723 50.9117 20.8367 50.9829 20.8367H54.1549C54.2261 20.8367 54.2617 20.8723 54.2617 20.9435V21.3921ZM59.0453 28.3982C58.5184 28.3982 58.0912 28.2237 57.7637 27.8749C57.4362 27.526 57.2724 27.0703 57.2724 26.5078V26.2622C57.2724 26.191 57.308 26.1554 57.3792 26.1554H57.9025C57.9737 26.1554 58.0093 26.191 58.0093 26.2622V26.4758C58.0093 26.8531 58.1055 27.1593 58.2977 27.3943C58.4899 27.6221 58.7391 27.736 59.0453 27.736C59.3443 27.736 59.5935 27.6257 59.7929 27.4049C59.9923 27.1842 60.0919 26.8923 60.0919 26.5292C60.0919 26.2871 60.0421 26.0806 59.9424 25.9097C59.8499 25.7317 59.7253 25.5787 59.5686 25.4505C59.4191 25.3152 59.1663 25.1123 58.8103 24.8417C58.4543 24.5783 58.1731 24.354 57.9666 24.1689C57.7601 23.9767 57.5893 23.7488 57.454 23.4854C57.3258 23.2219 57.2617 22.9122 57.2617 22.5562C57.2617 22.0009 57.4219 21.563 57.7423 21.2426C58.0627 20.9151 58.4793 20.7513 58.9919 20.7513C59.533 20.7513 59.9638 20.9293 60.2842 21.2853C60.6117 21.6342 60.7755 22.1005 60.7755 22.6844V22.9514C60.7755 23.0226 60.7399 23.0582 60.6687 23.0582H60.1347C60.0635 23.0582 60.0279 23.0226 60.0279 22.9514V22.6737C60.0279 22.2963 59.9317 21.9937 59.7395 21.7659C59.5544 21.5309 59.3052 21.4135 58.9919 21.4135C58.7071 21.4135 58.4721 21.5167 58.287 21.7232C58.1019 21.9225 58.0093 22.2073 58.0093 22.5776C58.0093 22.7983 58.0485 22.9941 58.1268 23.165C58.2123 23.3287 58.3369 23.4854 58.5006 23.6349C58.6644 23.7844 58.9065 23.9802 59.2269 24.2223C59.6541 24.5356 59.9709 24.7919 60.1774 24.9913C60.391 25.1835 60.5547 25.3971 60.6687 25.6321C60.7826 25.8599 60.8395 26.1376 60.8395 26.4651C60.8395 27.0489 60.6722 27.5189 60.3376 27.8749C60.0029 28.2237 59.5722 28.3982 59.0453 28.3982ZM65.3484 21.3921C65.3484 21.4633 65.3128 21.4989 65.2416 21.4989H62.7639C62.7354 21.4989 62.7211 21.5131 62.7211 21.5416V24.1903C62.7211 24.2187 62.7354 24.233 62.7639 24.233H64.3231C64.3943 24.233 64.4299 24.2686 64.4299 24.3398V24.799C64.4299 24.8702 64.3943 24.9058 64.3231 24.9058H62.7639C62.7354 24.9058 62.7211 24.9201 62.7211 24.9485V27.6079C62.7211 27.6363 62.7354 27.6506 62.7639 27.6506H65.2416C65.3128 27.6506 65.3484 27.6862 65.3484 27.7574V28.2059C65.3484 28.2771 65.3128 28.3127 65.2416 28.3127H62.0697C61.9985 28.3127 61.9629 28.2771 61.9629 28.2059V20.9435C61.9629 20.8723 61.9985 20.8367 62.0697 20.8367H65.2416C65.3128 20.8367 65.3484 20.8723 65.3484 20.9435V21.3921ZM66.6483 28.3127C66.5771 28.3127 66.5415 28.2771 66.5415 28.2059V20.9435C66.5415 20.8723 66.5771 20.8367 66.6483 20.8367H67.193C67.2642 20.8367 67.2998 20.8723 67.2998 20.9435V27.6079C67.2998 27.6363 67.314 27.6506 67.3425 27.6506H69.7882C69.8594 27.6506 69.895 27.6862 69.895 27.7574V28.2059C69.895 28.2771 69.8594 28.3127 69.7882 28.3127H66.6483ZM74.1615 21.3921C74.1615 21.4633 74.1259 21.4989 74.0547 21.4989H71.577C71.5485 21.4989 71.5342 21.5131 71.5342 21.5416V24.1903C71.5342 24.2187 71.5485 24.233 71.577 24.233H73.1362C73.2074 24.233 73.243 24.2686 73.243 24.3398V24.799C73.243 24.8702 73.2074 24.9058 73.1362 24.9058H71.577C71.5485 24.9058 71.5342 24.9201 71.5342 24.9485V27.6079C71.5342 27.6363 71.5485 27.6506 71.577 27.6506H74.0547C74.1259 27.6506 74.1615 27.6862 74.1615 27.7574V28.2059C74.1615 28.2771 74.1259 28.3127 74.0547 28.3127H70.8828C70.8116 28.3127 70.776 28.2771 70.776 28.2059V20.9435C70.776 20.8723 70.8116 20.8367 70.8828 20.8367H74.0547C74.1259 20.8367 74.1615 20.8723 74.1615 20.9435V21.3921ZM76.9886 28.3982C76.4404 28.3982 75.9989 28.2309 75.6643 27.8962C75.3368 27.5616 75.173 27.113 75.173 26.5505V22.5883C75.173 22.0329 75.3368 21.5879 75.6643 21.2533C75.9989 20.9186 76.4404 20.7513 76.9886 20.7513C77.544 20.7513 77.9854 20.9186 78.3129 21.2533C78.6476 21.5808 78.8149 22.0258 78.8149 22.5883V22.7698C78.8149 22.841 78.7793 22.8766 78.7081 22.8766L78.1527 22.9087C78.0815 22.9087 78.0459 22.8731 78.0459 22.8019V22.5349C78.0459 22.2002 77.9498 21.9297 77.7576 21.7232C77.5653 21.5167 77.309 21.4135 76.9886 21.4135C76.6753 21.4135 76.419 21.5167 76.2197 21.7232C76.0274 21.9297 75.9313 22.2002 75.9313 22.5349V26.6146C75.9313 26.9493 76.0274 27.2198 76.2197 27.4263C76.419 27.6328 76.6753 27.736 76.9886 27.736C77.309 27.736 77.5653 27.6328 77.7576 27.4263C77.9498 27.2198 78.0459 26.9493 78.0459 26.6146V26.3476C78.0459 26.2764 78.0815 26.2408 78.1527 26.2408L78.7081 26.2729C78.7793 26.2729 78.8149 26.3085 78.8149 26.3797V26.5505C78.8149 27.113 78.6476 27.5616 78.3129 27.8962C77.9783 28.2309 77.5369 28.3982 76.9886 28.3982ZM81.755 28.3982C81.2068 28.3982 80.7653 28.2309 80.4307 27.8962C80.1032 27.5616 79.9394 27.113 79.9394 26.5505V22.5883C79.9394 22.0329 80.1032 21.5879 80.4307 21.2533C80.7653 20.9186 81.2068 20.7513 81.755 20.7513C82.3104 20.7513 82.7518 20.9186 83.0793 21.2533C83.414 21.5808 83.5813 22.0258 83.5813 22.5883V22.7698C83.5813 22.841 83.5457 22.8766 83.4745 22.8766L82.9191 22.9087C82.8479 22.9087 82.8123 22.8731 82.8123 22.8019V22.5349C82.8123 22.2002 82.7162 21.9297 82.524 21.7232C82.3317 21.5167 82.0754 21.4135 81.755 21.4135C81.4417 21.4135 81.1854 21.5167 80.986 21.7232C80.7938 21.9297 80.6977 22.2002 80.6977 22.5349V26.6146C80.6977 26.9493 80.7938 27.2198 80.986 27.4263C81.1854 27.6328 81.4417 27.736 81.755 27.736C82.0754 27.736 82.3317 27.6328 82.524 27.4263C82.7162 27.2198 82.8123 26.9493 82.8123 26.6146V26.3476C82.8123 26.2764 82.8479 26.2408 82.9191 26.2408L83.4745 26.2729C83.5457 26.2729 83.5813 26.3085 83.5813 26.3797V26.5505C83.5813 27.113 83.414 27.5616 83.0793 27.8962C82.7447 28.2309 82.3032 28.3982 81.755 28.3982ZM84.9941 28.3127C84.9229 28.3127 84.8873 28.2771 84.8873 28.2059V20.9435C84.8873 20.8723 84.9229 20.8367 84.9941 20.8367H85.5388C85.61 20.8367 85.6456 20.8723 85.6456 20.9435V28.2059C85.6456 28.2771 85.61 28.3127 85.5388 28.3127H84.9941ZM88.8373 28.3982C88.289 28.3982 87.844 28.2273 87.5023 27.8855C87.1676 27.5438 87.0003 27.0917 87.0003 26.5292V22.6203C87.0003 22.0578 87.1676 21.6057 87.5023 21.2639C87.844 20.9222 88.289 20.7513 88.8373 20.7513C89.3926 20.7513 89.8412 20.9222 90.1829 21.2639C90.5247 21.6057 90.6956 22.0578 90.6956 22.6203V26.5292C90.6956 27.0845 90.5247 27.5367 90.1829 27.8855C89.8412 28.2273 89.3926 28.3982 88.8373 28.3982ZM88.8373 27.736C89.1648 27.736 89.4282 27.6292 89.6276 27.4156C89.8341 27.1949 89.9373 26.9137 89.9373 26.5719V22.5883C89.9373 22.2394 89.8341 21.9581 89.6276 21.7445C89.4282 21.5238 89.1648 21.4135 88.8373 21.4135C88.5169 21.4135 88.257 21.5238 88.0576 21.7445C87.8583 21.9581 87.7586 22.2394 87.7586 22.5883V26.5719C87.7586 26.9137 87.8583 27.1949 88.0576 27.4156C88.257 27.6292 88.5169 27.736 88.8373 27.736ZM88.4741 20.1425C88.4314 20.1425 88.4029 20.1319 88.3887 20.1105C88.3745 20.082 88.378 20.05 88.3994 20.0144L89.0615 18.8503C89.0971 18.8004 89.1399 18.7755 89.1897 18.7755H89.6276C89.6703 18.7755 89.6952 18.7897 89.7023 18.8182C89.7166 18.8396 89.713 18.8681 89.6917 18.9037L88.9441 20.0678C88.9085 20.1176 88.8657 20.1425 88.8159 20.1425H88.4741ZM95.0429 20.9435C95.0429 20.8723 95.0785 20.8367 95.1497 20.8367H95.6837C95.7549 20.8367 95.7905 20.8723 95.7905 20.9435V28.2059C95.7905 28.2771 95.7549 28.3127 95.6837 28.3127H95.0536C94.9966 28.3127 94.9575 28.2843 94.9361 28.2273L92.8535 22.7057C92.8464 22.6844 92.8357 22.6773 92.8215 22.6844C92.8072 22.6844 92.8001 22.6951 92.8001 22.7164L92.8108 28.2059C92.8108 28.2771 92.7752 28.3127 92.704 28.3127H92.1593C92.0881 28.3127 92.0525 28.2771 92.0525 28.2059V20.9435C92.0525 20.8723 92.0881 20.8367 92.1593 20.8367H92.7788C92.8357 20.8367 92.8749 20.8652 92.8962 20.9222L94.9895 26.4544C94.9966 26.4758 95.0073 26.4865 95.0216 26.4865C95.0358 26.4793 95.0429 26.4651 95.0429 26.4437V20.9435ZM99.5644 28.3127C99.4932 28.3127 99.4576 28.2771 99.4576 28.2059V20.9435C99.4576 20.8723 99.4932 20.8367 99.5644 20.8367H100.109C100.18 20.8367 100.216 20.8723 100.216 20.9435V28.2059C100.216 28.2771 100.18 28.3127 100.109 28.3127H99.5644ZM104.743 20.9435C104.743 20.8723 104.778 20.8367 104.849 20.8367H105.383C105.455 20.8367 105.49 20.8723 105.49 20.9435V28.2059C105.49 28.2771 105.455 28.3127 105.383 28.3127H104.753C104.696 28.3127 104.657 28.2843 104.636 28.2273L102.553 22.7057C102.546 22.6844 102.535 22.6773 102.521 22.6844C102.507 22.6844 102.5 22.6951 102.5 22.7164L102.51 28.2059C102.51 28.2771 102.475 28.3127 102.404 28.3127H101.859C101.788 28.3127 101.752 28.2771 101.752 28.2059V20.9435C101.752 20.8723 101.788 20.8367 101.859 20.8367H102.478C102.535 20.8367 102.574 20.8652 102.596 20.9222L104.689 26.4544C104.696 26.4758 104.707 26.4865 104.721 26.4865C104.735 26.4793 104.743 26.4651 104.743 26.4437V20.9435ZM107.126 28.3127C107.055 28.3127 107.019 28.2771 107.019 28.2059V20.9435C107.019 20.8723 107.055 20.8367 107.126 20.8367H108.771C109.319 20.8367 109.757 21.0183 110.084 21.3814C110.412 21.7374 110.576 22.218 110.576 22.8232V26.3263C110.576 26.9315 110.412 27.4156 110.084 27.7787C109.757 28.1347 109.319 28.3127 108.771 28.3127H107.126ZM107.777 27.6079C107.777 27.6363 107.792 27.6506 107.82 27.6506L108.76 27.6399C109.073 27.6399 109.322 27.5189 109.508 27.2768C109.7 27.0347 109.799 26.7072 109.807 26.2942V22.8553C109.807 22.4352 109.714 22.1041 109.529 21.862C109.344 21.6199 109.087 21.4989 108.76 21.4989H107.82C107.792 21.4989 107.777 21.5131 107.777 21.5416V27.6079ZM115.296 21.3921C115.296 21.4633 115.261 21.4989 115.189 21.4989H112.712C112.683 21.4989 112.669 21.5131 112.669 21.5416V24.1903C112.669 24.2187 112.683 24.233 112.712 24.233H114.271C114.342 24.233 114.378 24.2686 114.378 24.3398V24.799C114.378 24.8702 114.342 24.9058 114.271 24.9058H112.712C112.683 24.9058 112.669 24.9201 112.669 24.9485V27.6079C112.669 27.6363 112.683 27.6506 112.712 27.6506H115.189C115.261 27.6506 115.296 27.6862 115.296 27.7574V28.2059C115.296 28.2771 115.261 28.3127 115.189 28.3127H112.017C111.946 28.3127 111.911 28.2771 111.911 28.2059V20.9435C111.911 20.8723 111.946 20.8367 112.017 20.8367H115.189C115.261 20.8367 115.296 20.8723 115.296 20.9435V21.3921ZM118.123 28.3982C117.575 28.3982 117.134 28.2309 116.799 27.8962C116.471 27.5616 116.308 27.113 116.308 26.5505V22.5883C116.308 22.0329 116.471 21.5879 116.799 21.2533C117.134 20.9186 117.575 20.7513 118.123 20.7513C118.679 20.7513 119.12 20.9186 119.448 21.2533C119.782 21.5808 119.95 22.0258 119.95 22.5883V22.7698C119.95 22.841 119.914 22.8766 119.843 22.8766L119.287 22.9087C119.216 22.9087 119.181 22.8731 119.181 22.8019V22.5349C119.181 22.2002 119.085 21.9297 118.892 21.7232C118.7 21.5167 118.444 21.4135 118.123 21.4135C117.81 21.4135 117.554 21.5167 117.354 21.7232C117.162 21.9297 117.066 22.2002 117.066 22.5349V26.6146C117.066 26.9493 117.162 27.2198 117.354 27.4263C117.554 27.6328 117.81 27.736 118.123 27.736C118.444 27.736 118.7 27.6328 118.892 27.4263C119.085 27.2198 119.181 26.9493 119.181 26.6146V26.3476C119.181 26.2764 119.216 26.2408 119.287 26.2408L119.843 26.2729C119.914 26.2729 119.95 26.3085 119.95 26.3797V26.5505C119.95 27.113 119.782 27.5616 119.448 27.8962C119.113 28.2309 118.672 28.3982 118.123 28.3982ZM121.362 28.3127C121.291 28.3127 121.256 28.2771 121.256 28.2059V20.9435C121.256 20.8723 121.291 20.8367 121.362 20.8367H121.907C121.978 20.8367 122.014 20.8723 122.014 20.9435V28.2059C122.014 28.2771 121.978 28.3127 121.907 28.3127H121.362ZM125.003 28.3982C124.476 28.3982 124.049 28.2237 123.721 27.8749C123.394 27.526 123.23 27.0703 123.23 26.5078V26.2622C123.23 26.191 123.265 26.1554 123.337 26.1554H123.86C123.931 26.1554 123.967 26.191 123.967 26.2622V26.4758C123.967 26.8531 124.063 27.1593 124.255 27.3943C124.447 27.6221 124.696 27.736 125.003 27.736C125.302 27.736 125.551 27.6257 125.75 27.4049C125.95 27.1842 126.049 26.8923 126.049 26.5292C126.049 26.2871 125.999 26.0806 125.9 25.9097C125.807 25.7317 125.683 25.5787 125.526 25.4505C125.376 25.3152 125.124 25.1123 124.768 24.8417C124.412 24.5783 124.13 24.354 123.924 24.1689C123.717 23.9767 123.547 23.7488 123.411 23.4854C123.283 23.2219 123.219 22.9122 123.219 22.5562C123.219 22.0009 123.379 21.563 123.7 21.2426C124.02 20.9151 124.437 20.7513 124.949 20.7513C125.49 20.7513 125.921 20.9293 126.242 21.2853C126.569 21.6342 126.733 22.1005 126.733 22.6844V22.9514C126.733 23.0226 126.697 23.0582 126.626 23.0582H126.092C126.021 23.0582 125.985 23.0226 125.985 22.9514V22.6737C125.985 22.2963 125.889 21.9937 125.697 21.7659C125.512 21.5309 125.263 21.4135 124.949 21.4135C124.664 21.4135 124.429 21.5167 124.244 21.7232C124.059 21.9225 123.967 22.2073 123.967 22.5776C123.967 22.7983 124.006 22.9941 124.084 23.165C124.17 23.3287 124.294 23.4854 124.458 23.6349C124.622 23.7844 124.864 23.9802 125.184 24.2223C125.611 24.5356 125.928 24.7919 126.135 24.9913C126.348 25.1835 126.512 25.3971 126.626 25.6321C126.74 25.8599 126.797 26.1376 126.797 26.4651C126.797 27.0489 126.63 27.5189 126.295 27.8749C125.96 28.2237 125.53 28.3982 125.003 28.3982ZM130.813 28.3127C130.749 28.3127 130.709 28.2807 130.695 28.2166L130.428 26.8923C130.428 26.8781 130.421 26.8674 130.407 26.8603C130.4 26.8531 130.389 26.8496 130.375 26.8496H128.442C128.428 26.8496 128.413 26.8531 128.399 26.8603C128.392 26.8674 128.388 26.8781 128.388 26.8923L128.121 28.2166C128.114 28.2807 128.075 28.3127 128.004 28.3127H127.459C127.424 28.3127 127.395 28.3021 127.374 28.2807C127.36 28.2593 127.356 28.2309 127.363 28.1953L128.965 20.9329C128.979 20.8688 129.018 20.8367 129.083 20.8367H129.723C129.795 20.8367 129.834 20.8688 129.841 20.9329L131.464 28.1953V28.2166C131.464 28.2807 131.432 28.3127 131.368 28.3127H130.813ZM128.527 26.1874C128.527 26.2159 128.538 26.2301 128.559 26.2301H130.247C130.268 26.2301 130.279 26.2159 130.279 26.1874L129.424 21.9902C129.417 21.9688 129.41 21.9581 129.403 21.9581C129.396 21.9581 129.389 21.9688 129.382 21.9902L128.527 26.1874Z"/><path fill="#CCC" d="M6.11376 4.60697C6.11376 4.54697 6.13176 4.49897 6.16776 4.46297C6.21576 4.41497 6.26976 4.39097 6.32976 4.39097H7.96775C8.02775 4.39097 8.07575 4.41497 8.11176 4.46297C8.15975 4.49897 8.18375 4.54697 8.18375 4.60697V16.775C8.18375 16.835 8.15975 16.889 8.11176 16.937C8.07575 16.973 8.02775 16.991 7.96775 16.991H6.07776C5.95775 16.991 5.87975 16.931 5.84375 16.811L3.16175 9.17897C3.14975 9.14297 3.12575 9.13097 3.08975 9.14297C3.06575 9.14297 3.05375 9.16097 3.05375 9.19697L3.07175 16.775C3.07175 16.835 3.04775 16.889 2.99975 16.937C2.96375 16.973 2.91575 16.991 2.85575 16.991H1.21775C1.15775 16.991 1.10375 16.973 1.05575 16.937C1.01975 16.889 1.00175 16.835 1.00175 16.775V4.60697C1.00175 4.54697 1.01975 4.49897 1.05575 4.46297C1.10375 4.41497 1.15775 4.39097 1.21775 4.39097H3.07175C3.19175 4.39097 3.26975 4.45097 3.30575 4.57097L6.00575 12.149C6.01775 12.185 6.03575 12.203 6.05975 12.203C6.09576 12.191 6.11376 12.167 6.11376 12.131V4.60697ZM13.4548 17.135C12.4228 17.135 11.5948 16.805 10.9708 16.145C10.3588 15.473 10.0528 14.591 10.0528 13.499V4.60697C10.0528 4.54697 10.0708 4.49897 10.1068 4.46297C10.1548 4.41497 10.2088 4.39097 10.2688 4.39097H11.9248C11.9848 4.39097 12.0328 4.41497 12.0688 4.46297C12.1168 4.49897 12.1408 4.54697 12.1408 4.60697V13.715C12.1408 14.195 12.2608 14.585 12.5008 14.885C12.7408 15.185 13.0588 15.335 13.4548 15.335C13.8508 15.335 14.1688 15.185 14.4088 14.885C14.6488 14.585 14.7688 14.195 14.7688 13.715V4.60697C14.7688 4.54697 14.7868 4.49897 14.8228 4.46297C14.8708 4.41497 14.9248 4.39097 14.9848 4.39097H16.6408C16.7008 4.39097 16.7488 4.41497 16.7848 4.46297C16.8328 4.49897 16.8568 4.54697 16.8568 4.60697V13.499C16.8568 14.591 16.5448 15.473 15.9208 16.145C15.2968 16.805 14.4748 17.135 13.4548 17.135ZM24.8443 5.97497C24.8443 6.03497 24.8203 6.08897 24.7723 6.13697C24.7363 6.17297 24.6883 6.19097 24.6283 6.19097H20.7403C20.6803 6.19097 20.6503 6.22097 20.6503 6.28097V9.68297C20.6503 9.74297 20.6803 9.77297 20.7403 9.77297H23.0443C23.1043 9.77297 23.1523 9.79697 23.1883 9.84497C23.2363 9.88097 23.2603 9.92897 23.2603 9.98897V11.375C23.2603 11.435 23.2363 11.489 23.1883 11.537C23.1523 11.573 23.1043 11.591 23.0443 11.591H20.7403C20.6803 11.591 20.6503 11.621 20.6503 11.681V15.101C20.6503 15.161 20.6803 15.191 20.7403 15.191H24.6283C24.6883 15.191 24.7363 15.215 24.7723 15.263C24.8203 15.299 24.8443 15.347 24.8443 15.407V16.775C24.8443 16.835 24.8203 16.889 24.7723 16.937C24.7363 16.973 24.6883 16.991 24.6283 16.991H18.7783C18.7183 16.991 18.6643 16.973 18.6163 16.937C18.5803 16.889 18.5623 16.835 18.5623 16.775V4.60697C18.5623 4.54697 18.5803 4.49897 18.6163 4.46297C18.6643 4.41497 18.7183 4.39097 18.7783 4.39097H24.6283C24.6883 4.39097 24.7363 4.41497 24.7723 4.46297C24.8203 4.49897 24.8443 4.54697 24.8443 4.60697V5.97497ZM29.3546 17.135C28.3586 17.135 27.5546 16.835 26.9426 16.235C26.3306 15.635 26.0246 14.849 26.0246 13.877V13.409C26.0246 13.349 26.0426 13.301 26.0786 13.265C26.1266 13.217 26.1806 13.193 26.2406 13.193H27.8786C27.9386 13.193 27.9866 13.217 28.0226 13.265C28.0706 13.301 28.0946 13.349 28.0946 13.409V13.769C28.0946 14.237 28.2086 14.615 28.4366 14.903C28.6766 15.191 28.9826 15.335 29.3546 15.335C29.7266 15.335 30.0326 15.203 30.2726 14.939C30.5126 14.663 30.6326 14.303 30.6326 13.859C30.6326 13.547 30.5666 13.277 30.4346 13.049C30.3026 12.821 30.1166 12.605 29.8766 12.401C29.6366 12.197 29.2526 11.903 28.7246 11.519C28.1246 11.087 27.6386 10.703 27.2666 10.367C26.9066 10.031 26.6006 9.62897 26.3486 9.16097C26.1086 8.68097 25.9886 8.12897 25.9886 7.50497C25.9886 6.50897 26.2886 5.71697 26.8886 5.12897C27.4886 4.54097 28.2806 4.24697 29.2646 4.24697C30.2606 4.24697 31.0646 4.55897 31.6766 5.18297C32.2886 5.79497 32.5946 6.61097 32.5946 7.63097V8.06297C32.5946 8.12297 32.5706 8.17697 32.5226 8.22497C32.4866 8.26097 32.4386 8.27897 32.3786 8.27897H30.7586C30.6986 8.27897 30.6446 8.26097 30.5966 8.22497C30.5606 8.17697 30.5426 8.12297 30.5426 8.06297V7.59497C30.5426 7.12697 30.4226 6.75497 30.1826 6.47897C29.9546 6.19097 29.6486 6.04697 29.2646 6.04697C28.9046 6.04697 28.6106 6.17897 28.3826 6.44297C28.1546 6.69497 28.0406 7.04897 28.0406 7.50497C28.0406 7.93697 28.1606 8.30297 28.4006 8.60297C28.6526 8.90297 29.1386 9.31697 29.8586 9.84497C30.5906 10.385 31.1426 10.829 31.5146 11.177C31.8866 11.513 32.1746 11.885 32.3786 12.293C32.5826 12.701 32.6846 13.187 32.6846 13.751C32.6846 14.771 32.3786 15.593 31.7666 16.217C31.1546 16.829 30.3506 17.135 29.3546 17.135ZM40.4931 4.39097C40.5531 4.39097 40.6011 4.41497 40.6371 4.46297C40.6851 4.49897 40.7091 4.54697 40.7091 4.60697V5.97497C40.7091 6.03497 40.6851 6.08897 40.6371 6.13697C40.6011 6.17297 40.5531 6.19097 40.4931 6.19097H38.2071C38.1471 6.19097 38.1171 6.22097 38.1171 6.28097V16.775C38.1171 16.835 38.0931 16.889 38.0451 16.937C38.0091 16.973 37.9611 16.991 37.9011 16.991H36.2451C36.1851 16.991 36.1311 16.973 36.0831 16.937C36.0471 16.889 36.0291 16.835 36.0291 16.775V6.28097C36.0291 6.22097 35.9991 6.19097 35.9391 6.19097H33.7791C33.7191 6.19097 33.6651 6.17297 33.6171 6.13697C33.5811 6.08897 33.5631 6.03497 33.5631 5.97497V4.60697C33.5631 4.54697 33.5811 4.49897 33.6171 4.46297C33.6651 4.41497 33.7191 4.39097 33.7791 4.39097H40.4931ZM47.1557 16.991C47.0357 16.991 46.9577 16.931 46.9217 16.811L45.3917 11.645C45.3677 11.597 45.3377 11.573 45.3017 11.573H44.3477C44.2877 11.573 44.2577 11.603 44.2577 11.663V16.775C44.2577 16.835 44.2337 16.889 44.1857 16.937C44.1497 16.973 44.1017 16.991 44.0417 16.991H42.3857C42.3257 16.991 42.2717 16.973 42.2237 16.937C42.1877 16.889 42.1697 16.835 42.1697 16.775V4.60697C42.1697 4.54697 42.1877 4.49897 42.2237 4.46297C42.2717 4.41497 42.3257 4.39097 42.3857 4.39097H45.7697C46.4057 4.39097 46.9637 4.54697 47.4437 4.85897C47.9357 5.15897 48.3137 5.59097 48.5777 6.15497C48.8537 6.70697 48.9917 7.34297 48.9917 8.06297C48.9917 8.80697 48.8477 9.44897 48.5597 9.98897C48.2717 10.529 47.8697 10.937 47.3537 11.213C47.3057 11.225 47.2877 11.261 47.2997 11.321L49.0637 16.739C49.0757 16.763 49.0817 16.793 49.0817 16.829C49.0817 16.937 49.0157 16.991 48.8837 16.991H47.1557ZM44.3477 6.19097C44.2877 6.19097 44.2577 6.22097 44.2577 6.28097V9.86297C44.2577 9.92297 44.2877 9.95297 44.3477 9.95297H45.4457C45.8777 9.95297 46.2257 9.78497 46.4897 9.44897C46.7657 9.11297 46.9037 8.65697 46.9037 8.08097C46.9037 7.50497 46.7657 7.04897 46.4897 6.71297C46.2257 6.36497 45.8777 6.19097 45.4457 6.19097H44.3477ZM55.7192 16.991C55.5752 16.991 55.4972 16.925 55.4852 16.793L55.1432 14.903C55.1432 14.843 55.1072 14.813 55.0352 14.813H52.4072C52.3352 14.813 52.2992 14.843 52.2992 14.903L51.9572 16.793C51.9452 16.925 51.8672 16.991 51.7232 16.991H50.0852C49.9172 16.991 49.8512 16.913 49.8872 16.757L52.5512 4.58897C52.5752 4.45697 52.6532 4.39097 52.7852 4.39097H54.6932C54.8252 4.39097 54.9032 4.45697 54.9272 4.58897L57.5912 16.757V16.829C57.5912 16.937 57.5252 16.991 57.3932 16.991H55.7192ZM52.6232 13.085C52.6112 13.145 52.6412 13.175 52.7132 13.175H54.7112C54.7832 13.175 54.8132 13.145 54.8012 13.085L53.7572 7.39697C53.7452 7.36097 53.7272 7.34297 53.7032 7.34297C53.6792 7.34297 53.6612 7.36097 53.6492 7.39697L52.6232 13.085ZM61.3643 17.135C60.3683 17.135 59.5643 16.835 58.9523 16.235C58.3403 15.635 58.0343 14.849 58.0343 13.877V13.409C58.0343 13.349 58.0523 13.301 58.0883 13.265C58.1363 13.217 58.1903 13.193 58.2503 13.193H59.8883C59.9483 13.193 59.9963 13.217 60.0323 13.265C60.0803 13.301 60.1043 13.349 60.1043 13.409V13.769C60.1043 14.237 60.2183 14.615 60.4463 14.903C60.6863 15.191 60.9923 15.335 61.3643 15.335C61.7363 15.335 62.0423 15.203 62.2823 14.939C62.5223 14.663 62.6423 14.303 62.6423 13.859C62.6423 13.547 62.5763 13.277 62.4443 13.049C62.3123 12.821 62.1263 12.605 61.8863 12.401C61.6463 12.197 61.2623 11.903 60.7343 11.519C60.1343 11.087 59.6483 10.703 59.2763 10.367C58.9163 10.031 58.6103 9.62897 58.3583 9.16097C58.1183 8.68097 57.9983 8.12897 57.9983 7.50497C57.9983 6.50897 58.2983 5.71697 58.8983 5.12897C59.4983 4.54097 60.2903 4.24697 61.2743 4.24697C62.2703 4.24697 63.0743 4.55897 63.6863 5.18297C64.2983 5.79497 64.6043 6.61097 64.6043 7.63097V8.06297C64.6043 8.12297 64.5803 8.17697 64.5323 8.22497C64.4963 8.26097 64.4483 8.27897 64.3883 8.27897H62.7683C62.7083 8.27897 62.6543 8.26097 62.6063 8.22497C62.5703 8.17697 62.5523 8.12297 62.5523 8.06297V7.59497C62.5523 7.12697 62.4323 6.75497 62.1923 6.47897C61.9643 6.19097 61.6583 6.04697 61.2743 6.04697C60.9143 6.04697 60.6203 6.17897 60.3923 6.44297C60.1643 6.69497 60.0503 7.04897 60.0503 7.50497C60.0503 7.93697 60.1703 8.30297 60.4103 8.60297C60.6623 8.90297 61.1483 9.31697 61.8683 9.84497C62.6003 10.385 63.1523 10.829 63.5243 11.177C63.8963 11.513 64.1843 11.885 64.3883 12.293C64.5923 12.701 64.6943 13.187 64.6943 13.751C64.6943 14.771 64.3883 15.593 63.7763 16.217C63.1643 16.829 62.3603 17.135 61.3643 17.135Z"/><path fill="#fff" d="M69.781 4.37297C70.417 4.37297 70.975 4.52897 71.455 4.84097C71.947 5.15297 72.325 5.59097 72.589 6.15497C72.865 6.71897 73.003 7.36097 73.003 8.08097C73.003 9.16097 72.715 10.031 72.139 10.691C71.575 11.351 70.825 11.681 69.889 11.681H68.359C68.299 11.681 68.269 11.711 68.269 11.771V16.775C68.269 16.835 68.245 16.889 68.197 16.937C68.161 16.973 68.113 16.991 68.053 16.991H66.397C66.337 16.991 66.283 16.973 66.235 16.937C66.199 16.889 66.181 16.835 66.181 16.775V4.58897C66.181 4.52897 66.199 4.48097 66.235 4.44497C66.283 4.39697 66.337 4.37297 66.397 4.37297H69.781ZM69.439 10.043C69.883 10.043 70.237 9.87497 70.501 9.53897C70.777 9.19097 70.915 8.72297 70.915 8.13497C70.915 7.53497 70.777 7.06097 70.501 6.71297C70.237 6.35297 69.883 6.17297 69.439 6.17297H68.359C68.299 6.17297 68.269 6.20297 68.269 6.26297V9.95297C68.269 10.013 68.299 10.043 68.359 10.043H69.439ZM74.6416 16.991C74.5816 16.991 74.5276 16.973 74.4796 16.937C74.4436 16.889 74.4256 16.835 74.4256 16.775V4.60697C74.4256 4.54697 74.4436 4.49897 74.4796 4.46297C74.5276 4.41497 74.5816 4.39097 74.6416 4.39097H76.2976C76.3576 4.39097 76.4056 4.41497 76.4416 4.46297C76.4896 4.49897 76.5136 4.54697 76.5136 4.60697V15.101C76.5136 15.161 76.5436 15.191 76.6036 15.191H80.4916C80.5516 15.191 80.5996 15.215 80.6356 15.263C80.6836 15.299 80.7076 15.347 80.7076 15.407V16.775C80.7076 16.835 80.6836 16.889 80.6356 16.937C80.5996 16.973 80.5516 16.991 80.4916 16.991H74.6416ZM87.4829 16.991C87.3389 16.991 87.2609 16.925 87.2489 16.793L86.9069 14.903C86.9069 14.843 86.8709 14.813 86.7989 14.813H84.1709C84.0989 14.813 84.0629 14.843 84.0629 14.903L83.7209 16.793C83.7089 16.925 83.6309 16.991 83.4869 16.991H81.8489C81.6809 16.991 81.6149 16.913 81.6509 16.757L84.3149 4.58897C84.3389 4.45697 84.4169 4.39097 84.5489 4.39097H86.4569C86.5889 4.39097 86.6669 4.45697 86.6909 4.58897L89.3549 16.757V16.829C89.3549 16.937 89.2889 16.991 89.1569 16.991H87.4829ZM84.3869 13.085C84.3749 13.145 84.4049 13.175 84.4769 13.175H86.4749C86.5469 13.175 86.5769 13.145 86.5649 13.085L85.5209 7.39697C85.5089 7.36097 85.4909 7.34297 85.4669 7.34297C85.4429 7.34297 85.4249 7.36097 85.4129 7.39697L84.3869 13.085ZM92.0226 16.973C91.9626 16.973 91.9086 16.955 91.8606 16.919C91.8246 16.871 91.8066 16.817 91.8066 16.757V11.843L91.7886 11.735L89.2866 4.64297C89.2746 4.61897 89.2686 4.58897 89.2686 4.55297C89.2686 4.44497 89.3346 4.39097 89.4666 4.39097H91.1946C91.3266 4.39097 91.4106 4.45097 91.4466 4.57097L92.7966 9.19697C92.8086 9.23297 92.8266 9.25097 92.8506 9.25097C92.8746 9.25097 92.8926 9.23297 92.9046 9.19697L94.2546 4.57097C94.2906 4.45097 94.3746 4.39097 94.5066 4.39097H96.2346C96.3066 4.39097 96.3606 4.41497 96.3966 4.46297C96.4326 4.49897 96.4386 4.55897 96.4146 4.64297L93.9126 11.735L93.8946 11.843V16.757C93.8946 16.817 93.8706 16.871 93.8226 16.919C93.7866 16.955 93.7386 16.973 93.6786 16.973H92.0226ZM98.0732 16.991C98.0132 16.991 97.9592 16.973 97.9112 16.937C97.8752 16.889 97.8572 16.835 97.8572 16.775V4.60697C97.8572 4.54697 97.8752 4.49897 97.9112 4.46297C97.9592 4.41497 98.0132 4.39097 98.0732 4.39097H99.7292C99.7892 4.39097 99.8372 4.41497 99.8732 4.46297C99.9212 4.49897 99.9452 4.54697 99.9452 4.60697V15.101C99.9452 15.161 99.9752 15.191 100.035 15.191H103.923C103.983 15.191 104.031 15.215 104.067 15.263C104.115 15.299 104.139 15.347 104.139 15.407V16.775C104.139 16.835 104.115 16.889 104.067 16.937C104.031 16.973 103.983 16.991 103.923 16.991H98.0732ZM105.544 16.991C105.484 16.991 105.43 16.973 105.382 16.937C105.346 16.889 105.328 16.835 105.328 16.775V4.60697C105.328 4.54697 105.346 4.49897 105.382 4.46297C105.43 4.41497 105.484 4.39097 105.544 4.39097H107.2C107.26 4.39097 107.308 4.41497 107.344 4.46297C107.392 4.49897 107.416 4.54697 107.416 4.60697V16.775C107.416 16.835 107.392 16.889 107.344 16.937C107.308 16.973 107.26 16.991 107.2 16.991H105.544ZM112.323 17.135C111.327 17.135 110.523 16.835 109.911 16.235C109.299 15.635 108.993 14.849 108.993 13.877V13.409C108.993 13.349 109.011 13.301 109.047 13.265C109.095 13.217 109.149 13.193 109.209 13.193H110.847C110.907 13.193 110.955 13.217 110.991 13.265C111.039 13.301 111.063 13.349 111.063 13.409V13.769C111.063 14.237 111.177 14.615 111.405 14.903C111.645 15.191 111.951 15.335 112.323 15.335C112.695 15.335 113.001 15.203 113.241 14.939C113.481 14.663 113.601 14.303 113.601 13.859C113.601 13.547 113.535 13.277 113.403 13.049C113.271 12.821 113.085 12.605 112.845 12.401C112.605 12.197 112.221 11.903 111.693 11.519C111.093 11.087 110.607 10.703 110.235 10.367C109.875 10.031 109.569 9.62897 109.317 9.16097C109.077 8.68097 108.957 8.12897 108.957 7.50497C108.957 6.50897 109.257 5.71697 109.857 5.12897C110.457 4.54097 111.249 4.24697 112.233 4.24697C113.229 4.24697 114.033 4.55897 114.645 5.18297C115.257 5.79497 115.563 6.61097 115.563 7.63097V8.06297C115.563 8.12297 115.539 8.17697 115.491 8.22497C115.455 8.26097 115.407 8.27897 115.347 8.27897H113.727C113.667 8.27897 113.613 8.26097 113.565 8.22497C113.529 8.17697 113.511 8.12297 113.511 8.06297V7.59497C113.511 7.12697 113.391 6.75497 113.151 6.47897C112.923 6.19097 112.617 6.04697 112.233 6.04697C111.873 6.04697 111.579 6.17897 111.351 6.44297C111.123 6.69497 111.009 7.04897 111.009 7.50497C111.009 7.93697 111.129 8.30297 111.369 8.60297C111.621 8.90297 112.107 9.31697 112.827 9.84497C113.559 10.385 114.111 10.829 114.483 11.177C114.855 11.513 115.143 11.885 115.347 12.293C115.551 12.701 115.653 13.187 115.653 13.751C115.653 14.771 115.347 15.593 114.735 16.217C114.123 16.829 113.319 17.135 112.323 17.135ZM123.462 4.39097C123.522 4.39097 123.57 4.41497 123.606 4.46297C123.654 4.49897 123.678 4.54697 123.678 4.60697V5.97497C123.678 6.03497 123.654 6.08897 123.606 6.13697C123.57 6.17297 123.522 6.19097 123.462 6.19097H121.176C121.116 6.19097 121.086 6.22097 121.086 6.28097V16.775C121.086 16.835 121.062 16.889 121.014 16.937C120.978 16.973 120.93 16.991 120.87 16.991H119.214C119.154 16.991 119.1 16.973 119.052 16.937C119.016 16.889 118.998 16.835 118.998 16.775V6.28097C118.998 6.22097 118.968 6.19097 118.908 6.19097H116.748C116.688 6.19097 116.634 6.17297 116.586 6.13697C116.55 6.08897 116.532 6.03497 116.532 5.97497V4.60697C116.532 4.54697 116.55 4.49897 116.586 4.46297C116.634 4.41497 116.688 4.39097 116.748 4.39097H123.462ZM128.108 17.135C127.112 17.135 126.308 16.835 125.696 16.235C125.084 15.635 124.778 14.849 124.778 13.877V13.409C124.778 13.349 124.796 13.301 124.832 13.265C124.88 13.217 124.934 13.193 124.994 13.193H126.632C126.692 13.193 126.74 13.217 126.776 13.265C126.824 13.301 126.848 13.349 126.848 13.409V13.769C126.848 14.237 126.962 14.615 127.19 14.903C127.43 15.191 127.736 15.335 128.108 15.335C128.48 15.335 128.786 15.203 129.026 14.939C129.266 14.663 129.386 14.303 129.386 13.859C129.386 13.547 129.32 13.277 129.188 13.049C129.056 12.821 128.87 12.605 128.63 12.401C128.39 12.197 128.006 11.903 127.478 11.519C126.878 11.087 126.392 10.703 126.02 10.367C125.66 10.031 125.354 9.62897 125.102 9.16097C124.862 8.68097 124.742 8.12897 124.742 7.50497C124.742 6.50897 125.042 5.71697 125.642 5.12897C126.242 4.54097 127.034 4.24697 128.018 4.24697C129.014 4.24697 129.818 4.55897 130.43 5.18297C131.042 5.79497 131.348 6.61097 131.348 7.63097V8.06297C131.348 8.12297 131.324 8.17697 131.276 8.22497C131.24 8.26097 131.192 8.27897 131.132 8.27897H129.512C129.452 8.27897 129.398 8.26097 129.35 8.22497C129.314 8.17697 129.296 8.12297 129.296 8.06297V7.59497C129.296 7.12697 129.176 6.75497 128.936 6.47897C128.708 6.19097 128.402 6.04697 128.018 6.04697C127.658 6.04697 127.364 6.17897 127.136 6.44297C126.908 6.69497 126.794 7.04897 126.794 7.50497C126.794 7.93697 126.914 8.30297 127.154 8.60297C127.406 8.90297 127.892 9.31697 128.612 9.84497C129.344 10.385 129.896 10.829 130.268 11.177C130.64 11.513 130.928 11.885 131.132 12.293C131.336 12.701 131.438 13.187 131.438 13.751C131.438 14.771 131.132 15.593 130.52 16.217C129.908 16.829 129.104 17.135 128.108 17.135Z"/></svg>