<svg xmlns="http://www.w3.org/2000/svg" width="117" height="28" fill="none" viewBox="0 0 117 28"><path fill="#3B82F6" d="M2.21401 20.691C2.65201 20.691 3.00601 20.853 3.27601 21.177C3.54601 21.495 3.68101 21.915 3.68101 22.437C3.68101 22.953 3.54901 23.37 3.28501 23.688C3.02101 24 2.67301 24.156 2.24101 24.156H1.31401C1.29001 24.156 1.27801 24.168 1.27801 24.192V26.91C1.27801 26.97 1.24801 27 1.18801 27H0.729008C0.669008 27 0.639008 26.97 0.639008 26.91V20.781C0.639008 20.721 0.669008 20.691 0.729008 20.691H2.21401ZM2.13301 23.634C2.40301 23.634 2.62201 23.526 2.79001 23.31C2.95801 23.094 3.04201 22.806 3.04201 22.446C3.04201 22.086 2.95801 21.798 2.79001 21.582C2.62201 21.36 2.40301 21.249 2.13301 21.249H1.31401C1.29001 21.249 1.27801 21.261 1.27801 21.285V23.598C1.27801 23.622 1.29001 23.634 1.31401 23.634H2.13301Z"/><path fill="#3B82F6" d="M6.02445 27.072C5.56245 27.072 5.18745 26.928 4.89945 26.64C4.61745 26.352 4.47645 25.971 4.47645 25.497V22.203C4.47645 21.729 4.61745 21.348 4.89945 21.06C5.18745 20.772 5.56245 20.628 6.02445 20.628C6.49245 20.628 6.87045 20.772 7.15845 21.06C7.44645 21.348 7.59045 21.729 7.59045 22.203V25.497C7.59045 25.965 7.44645 26.346 7.15845 26.64C6.87045 26.928 6.49245 27.072 6.02445 27.072ZM6.02445 26.514C6.30045 26.514 6.52245 26.424 6.69045 26.244C6.86445 26.058 6.95145 25.821 6.95145 25.533V22.176C6.95145 21.882 6.86445 21.645 6.69045 21.465C6.52245 21.279 6.30045 21.186 6.02445 21.186C5.75445 21.186 5.53545 21.279 5.36745 21.465C5.19945 21.645 5.11545 21.882 5.11545 22.176V25.533C5.11545 25.821 5.19945 26.058 5.36745 26.244C5.53545 26.424 5.75445 26.514 6.02445 26.514Z"/><path fill="#3B82F6" d="M8.82395 27C8.76395 27 8.73394 26.97 8.73394 26.91V20.79C8.73394 20.73 8.76395 20.7 8.82395 20.7H10.2099C10.6719 20.7 11.0409 20.853 11.3169 21.159C11.5929 21.459 11.7309 21.864 11.7309 22.374V25.326C11.7309 25.836 11.5929 26.244 11.3169 26.55C11.0409 26.85 10.6719 27 10.2099 27H8.82395ZM9.37294 26.406C9.37294 26.43 9.38495 26.442 9.40895 26.442L10.2009 26.433C10.4649 26.433 10.6749 26.331 10.8309 26.127C10.9929 25.923 11.0769 25.647 11.0829 25.299V22.401C11.0829 22.047 11.0049 21.768 10.8489 21.564C10.6929 21.36 10.4769 21.258 10.2009 21.258H9.40895C9.38495 21.258 9.37294 21.27 9.37294 21.294V26.406Z"/><path fill="#3B82F6" d="M14.2945 27.072C13.8325 27.072 13.4605 26.931 13.1785 26.649C12.9025 26.367 12.7645 25.989 12.7645 25.515V22.176C12.7645 21.708 12.9025 21.333 13.1785 21.051C13.4605 20.769 13.8325 20.628 14.2945 20.628C14.7625 20.628 15.1345 20.769 15.4105 21.051C15.6925 21.327 15.8335 21.702 15.8335 22.176V22.329C15.8335 22.389 15.8035 22.419 15.7435 22.419L15.2755 22.446C15.2155 22.446 15.1855 22.416 15.1855 22.356V22.131C15.1855 21.849 15.1045 21.621 14.9425 21.447C14.7805 21.273 14.5645 21.186 14.2945 21.186C14.0305 21.186 13.8145 21.273 13.6465 21.447C13.4845 21.621 13.4035 21.849 13.4035 22.131V25.569C13.4035 25.851 13.4845 26.079 13.6465 26.253C13.8145 26.427 14.0305 26.514 14.2945 26.514C14.5645 26.514 14.7805 26.427 14.9425 26.253C15.1045 26.079 15.1855 25.851 15.1855 25.569V25.344C15.1855 25.284 15.2155 25.254 15.2755 25.254L15.7435 25.281C15.8035 25.281 15.8335 25.311 15.8335 25.371V25.515C15.8335 25.989 15.6925 26.367 15.4105 26.649C15.1285 26.931 14.7565 27.072 14.2945 27.072Z"/><path fill="#3B82F6" d="M19.275 27C19.221 27 19.188 26.973 19.176 26.919L18.951 25.803C18.951 25.791 18.945 25.782 18.933 25.776C18.927 25.77 18.918 25.767 18.906 25.767H17.277C17.265 25.767 17.253 25.77 17.241 25.776C17.235 25.782 17.232 25.791 17.232 25.803L17.007 26.919C17.001 26.973 16.968 27 16.908 27H16.449C16.419 27 16.395 26.991 16.377 26.973C16.365 26.955 16.362 26.931 16.368 26.901L17.718 20.781C17.73 20.727 17.763 20.7 17.817 20.7H18.357C18.417 20.7 18.45 20.727 18.456 20.781L19.824 26.901V26.919C19.824 26.973 19.797 27 19.743 27H19.275ZM17.349 25.209C17.349 25.233 17.358 25.245 17.376 25.245H18.798C18.816 25.245 18.825 25.233 18.825 25.209L18.105 21.672C18.099 21.654 18.093 21.645 18.087 21.645C18.081 21.645 18.075 21.654 18.069 21.672L17.349 25.209Z"/><path fill="#3B82F6" d="M21.6386 27.072C21.1946 27.072 20.8346 26.925 20.5586 26.631C20.2826 26.337 20.1446 25.953 20.1446 25.479V25.272C20.1446 25.212 20.1746 25.182 20.2346 25.182H20.6756C20.7356 25.182 20.7656 25.212 20.7656 25.272V25.452C20.7656 25.77 20.8466 26.028 21.0086 26.226C21.1706 26.418 21.3806 26.514 21.6386 26.514C21.8906 26.514 22.1006 26.421 22.2686 26.235C22.4366 26.049 22.5206 25.803 22.5206 25.497C22.5206 25.293 22.4786 25.119 22.3946 24.975C22.3166 24.825 22.2116 24.696 22.0796 24.588C21.9536 24.474 21.7406 24.303 21.4406 24.075C21.1406 23.853 20.9036 23.664 20.7296 23.508C20.5556 23.346 20.4116 23.154 20.2976 22.932C20.1896 22.71 20.1356 22.449 20.1356 22.149C20.1356 21.681 20.2706 21.312 20.5406 21.042C20.8106 20.766 21.1616 20.628 21.5936 20.628C22.0496 20.628 22.4126 20.778 22.6826 21.078C22.9586 21.372 23.0966 21.765 23.0966 22.257V22.482C23.0966 22.542 23.0666 22.572 23.0066 22.572H22.5566C22.4966 22.572 22.4666 22.542 22.4666 22.482V22.248C22.4666 21.93 22.3856 21.675 22.2236 21.483C22.0676 21.285 21.8576 21.186 21.5936 21.186C21.3536 21.186 21.1556 21.273 20.9996 21.447C20.8436 21.615 20.7656 21.855 20.7656 22.167C20.7656 22.353 20.7986 22.518 20.8646 22.662C20.9366 22.8 21.0416 22.932 21.1796 23.058C21.3176 23.184 21.5216 23.349 21.7916 23.553C22.1516 23.817 22.4186 24.033 22.5926 24.201C22.7726 24.363 22.9106 24.543 23.0066 24.741C23.1026 24.933 23.1506 25.167 23.1506 25.443C23.1506 25.935 23.0096 26.331 22.7276 26.631C22.4456 26.925 22.0826 27.072 21.6386 27.072Z"/><path fill="#3B82F6" d="M26.7987 20.7C26.8587 20.7 26.8887 20.73 26.8887 20.79V21.168C26.8887 21.228 26.8587 21.258 26.7987 21.258H25.6107C25.5867 21.258 25.5747 21.27 25.5747 21.294V26.91C25.5747 26.97 25.5447 27 25.4847 27H25.0257C24.9657 27 24.9357 26.97 24.9357 26.91V21.294C24.9357 21.27 24.9237 21.258 24.8997 21.258H23.7837C23.7237 21.258 23.6937 21.228 23.6937 21.168V20.79C23.6937 20.73 23.7237 20.7 23.7837 20.7H26.7987Z"/><path fill="#3B82F6" d="M29.3011 27C29.2711 27 29.2471 26.991 29.2291 26.973C29.2171 26.955 29.2141 26.931 29.2201 26.901L30.8491 20.781C30.8611 20.727 30.8941 20.7 30.9481 20.7H31.3981C31.4281 20.7 31.4491 20.709 31.4611 20.727C31.4791 20.745 31.4851 20.769 31.4791 20.799L29.8501 26.919C29.8381 26.973 29.8051 27 29.7511 27H29.3011Z"/><path fill="#3B82F6" d="M32.307 27C32.277 27 32.253 26.991 32.235 26.973C32.223 26.955 32.22 26.931 32.226 26.901L33.855 20.781C33.867 20.727 33.9 20.7 33.954 20.7H34.404C34.434 20.7 34.455 20.709 34.467 20.727C34.485 20.745 34.491 20.769 34.485 20.799L32.856 26.919C32.844 26.973 32.811 27 32.757 27H32.307Z"/><path fill="#3B82F6" d="M40.2016 20.763C40.2196 20.721 40.2556 20.7 40.3096 20.7H40.7776C40.8376 20.7 40.8676 20.73 40.8676 20.79V26.91C40.8676 26.97 40.8376 27 40.7776 27H40.3186C40.2586 27 40.2286 26.97 40.2286 26.91V22.086C40.2286 22.068 40.2226 22.059 40.2106 22.059C40.2046 22.059 40.1956 22.065 40.1836 22.077L39.2476 24.021C39.2296 24.063 39.1996 24.084 39.1576 24.084C39.1096 24.084 39.0766 24.063 39.0586 24.021L38.1226 22.086C38.1106 22.074 38.0986 22.068 38.0866 22.068C38.0806 22.068 38.0776 22.077 38.0776 22.095V26.91C38.0776 26.97 38.0476 27 37.9876 27H37.5286C37.4686 27 37.4386 26.97 37.4386 26.91V20.79C37.4386 20.73 37.4686 20.7 37.5286 20.7H37.9966C38.0506 20.7 38.0866 20.721 38.1046 20.763L39.1306 22.842C39.1366 22.854 39.1456 22.86 39.1576 22.86C39.1696 22.86 39.1786 22.854 39.1846 22.842L40.2016 20.763Z"/><path fill="#3B82F6" d="M43.635 27.072C43.173 27.072 42.801 26.913 42.519 26.595C42.237 26.277 42.096 25.857 42.096 25.335V20.79C42.096 20.73 42.126 20.7 42.186 20.7H42.645C42.705 20.7 42.735 20.73 42.735 20.79V25.407C42.735 25.737 42.816 26.004 42.978 26.208C43.146 26.412 43.365 26.514 43.635 26.514C43.911 26.514 44.133 26.412 44.301 26.208C44.469 26.004 44.553 25.737 44.553 25.407V20.79C44.553 20.73 44.583 20.7 44.643 20.7H45.102C45.162 20.7 45.192 20.73 45.192 20.79V25.335C45.192 25.857 45.048 26.277 44.76 26.595C44.478 26.913 44.103 27.072 43.635 27.072ZM43.329 20.106C43.293 20.106 43.269 20.097 43.257 20.079C43.245 20.055 43.248 20.028 43.266 19.998L43.824 19.017C43.854 18.975 43.89 18.954 43.932 18.954H44.301C44.337 18.954 44.358 18.966 44.364 18.99C44.376 19.008 44.373 19.032 44.355 19.062L43.725 20.043C43.695 20.085 43.659 20.106 43.617 20.106H43.329Z"/><path fill="#3B82F6" d="M47.6542 27.072C47.2102 27.072 46.8502 26.925 46.5742 26.631C46.2982 26.337 46.1602 25.953 46.1602 25.479V25.272C46.1602 25.212 46.1902 25.182 46.2502 25.182H46.6912C46.7512 25.182 46.7812 25.212 46.7812 25.272V25.452C46.7812 25.77 46.8622 26.028 47.0242 26.226C47.1862 26.418 47.3962 26.514 47.6542 26.514C47.9062 26.514 48.1162 26.421 48.2842 26.235C48.4522 26.049 48.5362 25.803 48.5362 25.497C48.5362 25.293 48.4942 25.119 48.4102 24.975C48.3322 24.825 48.2272 24.696 48.0952 24.588C47.9692 24.474 47.7562 24.303 47.4562 24.075C47.1562 23.853 46.9192 23.664 46.7452 23.508C46.5712 23.346 46.4272 23.154 46.3132 22.932C46.2052 22.71 46.1512 22.449 46.1512 22.149C46.1512 21.681 46.2862 21.312 46.5562 21.042C46.8262 20.766 47.1772 20.628 47.6092 20.628C48.0652 20.628 48.4282 20.778 48.6982 21.078C48.9742 21.372 49.1122 21.765 49.1122 22.257V22.482C49.1122 22.542 49.0822 22.572 49.0222 22.572H48.5722C48.5122 22.572 48.4822 22.542 48.4822 22.482V22.248C48.4822 21.93 48.4012 21.675 48.2392 21.483C48.0832 21.285 47.8732 21.186 47.6092 21.186C47.3692 21.186 47.1712 21.273 47.0152 21.447C46.8592 21.615 46.7812 21.855 46.7812 22.167C46.7812 22.353 46.8142 22.518 46.8802 22.662C46.9522 22.8 47.0572 22.932 47.1952 23.058C47.3332 23.184 47.5372 23.349 47.8072 23.553C48.1672 23.817 48.4342 24.033 48.6082 24.201C48.7882 24.363 48.9262 24.543 49.0222 24.741C49.1182 24.933 49.1662 25.167 49.1662 25.443C49.1662 25.935 49.0252 26.331 48.7432 26.631C48.4612 26.925 48.0982 27.072 47.6542 27.072Z"/><path fill="#3B82F6" d="M50.2644 27C50.2044 27 50.1744 26.97 50.1744 26.91V20.79C50.1744 20.73 50.2044 20.7 50.2644 20.7H50.7234C50.7834 20.7 50.8134 20.73 50.8134 20.79V26.91C50.8134 26.97 50.7834 27 50.7234 27H50.2644Z"/><path fill="#3B82F6" d="M53.485 27.072C53.023 27.072 52.651 26.931 52.369 26.649C52.093 26.367 51.955 25.989 51.955 25.515V22.176C51.955 21.708 52.093 21.333 52.369 21.051C52.651 20.769 53.023 20.628 53.485 20.628C53.953 20.628 54.325 20.769 54.601 21.051C54.883 21.327 55.024 21.702 55.024 22.176V22.329C55.024 22.389 54.994 22.419 54.934 22.419L54.466 22.446C54.406 22.446 54.376 22.416 54.376 22.356V22.131C54.376 21.849 54.295 21.621 54.133 21.447C53.971 21.273 53.755 21.186 53.485 21.186C53.221 21.186 53.005 21.273 52.837 21.447C52.675 21.621 52.594 21.849 52.594 22.131V25.569C52.594 25.851 52.675 26.079 52.837 26.253C53.005 26.427 53.221 26.514 53.485 26.514C53.755 26.514 53.971 26.427 54.133 26.253C54.295 26.079 54.376 25.851 54.376 25.569V25.344C54.376 25.284 54.406 25.254 54.466 25.254L54.934 25.281C54.994 25.281 55.024 25.311 55.024 25.371V25.515C55.024 25.989 54.883 26.367 54.601 26.649C54.319 26.931 53.947 27.072 53.485 27.072Z"/><path fill="#3B82F6" d="M58.4654 27C58.4114 27 58.3784 26.973 58.3664 26.919L58.1414 25.803C58.1414 25.791 58.1354 25.782 58.1234 25.776C58.1174 25.77 58.1084 25.767 58.0964 25.767H56.4674C56.4554 25.767 56.4434 25.77 56.4314 25.776C56.4254 25.782 56.4224 25.791 56.4224 25.803L56.1974 26.919C56.1914 26.973 56.1584 27 56.0984 27H55.6394C55.6094 27 55.5854 26.991 55.5674 26.973C55.5554 26.955 55.5524 26.931 55.5584 26.901L56.9084 20.781C56.9204 20.727 56.9534 20.7 57.0074 20.7H57.5474C57.6074 20.7 57.6404 20.727 57.6464 20.781L59.0144 26.901V26.919C59.0144 26.973 58.9874 27 58.9334 27H58.4654ZM56.5394 25.209C56.5394 25.233 56.5484 25.245 56.5664 25.245H57.9884C58.0064 25.245 58.0154 25.233 58.0154 25.209L57.2954 21.672C57.2894 21.654 57.2834 21.645 57.2774 21.645C57.2714 21.645 57.2654 21.654 57.2594 21.672L56.5394 25.209Z"/><path fill="#3B82F6" d="M61.6726 27C61.6126 27 61.5826 26.97 61.5826 26.91V20.79C61.5826 20.73 61.6126 20.7 61.6726 20.7H62.1316C62.1916 20.7 62.2216 20.73 62.2216 20.79V26.91C62.2216 26.97 62.1916 27 62.1316 27H61.6726Z"/><path fill="#3B82F6" d="M66.0362 20.79C66.0362 20.73 66.0662 20.7 66.1262 20.7H66.5762C66.6362 20.7 66.6662 20.73 66.6662 20.79V26.91C66.6662 26.97 66.6362 27 66.5762 27H66.0452C65.9972 27 65.9642 26.976 65.9462 26.928L64.1912 22.275C64.1852 22.257 64.1762 22.251 64.1642 22.257C64.1522 22.257 64.1462 22.266 64.1462 22.284L64.1552 26.91C64.1552 26.97 64.1252 27 64.0652 27H63.6062C63.5462 27 63.5162 26.97 63.5162 26.91V20.79C63.5162 20.73 63.5462 20.7 63.6062 20.7H64.1282C64.1762 20.7 64.2092 20.724 64.2272 20.772L65.9912 25.434C65.9972 25.452 66.0062 25.461 66.0182 25.461C66.0302 25.455 66.0362 25.443 66.0362 25.425V20.79Z"/><path fill="#3B82F6" d="M68.0446 27C67.9846 27 67.9547 26.97 67.9547 26.91V20.79C67.9547 20.73 67.9846 20.7 68.0446 20.7H69.4306C69.8926 20.7 70.2617 20.853 70.5377 21.159C70.8137 21.459 70.9516 21.864 70.9516 22.374V25.326C70.9516 25.836 70.8137 26.244 70.5377 26.55C70.2617 26.85 69.8926 27 69.4306 27H68.0446ZM68.5937 26.406C68.5937 26.43 68.6056 26.442 68.6296 26.442L69.4216 26.433C69.6856 26.433 69.8957 26.331 70.0517 26.127C70.2137 25.923 70.2976 25.647 70.3036 25.299V22.401C70.3036 22.047 70.2256 21.768 70.0696 21.564C69.9136 21.36 69.6976 21.258 69.4216 21.258H68.6296C68.6056 21.258 68.5937 21.27 68.5937 21.294V26.406Z"/><path fill="#3B82F6" d="M74.9297 21.168C74.9297 21.228 74.8997 21.258 74.8397 21.258H72.7517C72.7277 21.258 72.7157 21.27 72.7157 21.294V23.526C72.7157 23.55 72.7277 23.562 72.7517 23.562H74.0657C74.1257 23.562 74.1557 23.592 74.1557 23.652V24.039C74.1557 24.099 74.1257 24.129 74.0657 24.129H72.7517C72.7277 24.129 72.7157 24.141 72.7157 24.165V26.406C72.7157 26.43 72.7277 26.442 72.7517 26.442H74.8397C74.8997 26.442 74.9297 26.472 74.9297 26.532V26.91C74.9297 26.97 74.8997 27 74.8397 27H72.1667C72.1067 27 72.0767 26.97 72.0767 26.91V20.79C72.0767 20.73 72.1067 20.7 72.1667 20.7H74.8397C74.8997 20.7 74.9297 20.73 74.9297 20.79V21.168Z"/><path fill="#3B82F6" d="M77.3121 27.072C76.8501 27.072 76.4781 26.931 76.1961 26.649C75.9201 26.367 75.7821 25.989 75.7821 25.515V22.176C75.7821 21.708 75.9201 21.333 76.1961 21.051C76.4781 20.769 76.8501 20.628 77.3121 20.628C77.7801 20.628 78.1521 20.769 78.4281 21.051C78.7101 21.327 78.8511 21.702 78.8511 22.176V22.329C78.8511 22.389 78.8211 22.419 78.7611 22.419L78.2931 22.446C78.2331 22.446 78.2031 22.416 78.2031 22.356V22.131C78.2031 21.849 78.1221 21.621 77.9601 21.447C77.7981 21.273 77.5821 21.186 77.3121 21.186C77.0481 21.186 76.8321 21.273 76.6641 21.447C76.5021 21.621 76.4211 21.849 76.4211 22.131V25.569C76.4211 25.851 76.5021 26.079 76.6641 26.253C76.8321 26.427 77.0481 26.514 77.3121 26.514C77.5821 26.514 77.7981 26.427 77.9601 26.253C78.1221 26.079 78.2031 25.851 78.2031 25.569V25.344C78.2031 25.284 78.2331 25.254 78.2931 25.254L78.7611 25.281C78.8211 25.281 78.8511 25.311 78.8511 25.371V25.515C78.8511 25.989 78.7101 26.367 78.4281 26.649C78.1461 26.931 77.7741 27.072 77.3121 27.072Z"/><path fill="#3B82F6" d="M80.0417 27C79.9817 27 79.9517 26.97 79.9517 26.91V20.79C79.9517 20.73 79.9817 20.7 80.0417 20.7H80.5007C80.5607 20.7 80.5907 20.73 80.5907 20.79V26.91C80.5907 26.97 80.5607 27 80.5007 27H80.0417Z"/><path fill="#3B82F6" d="M83.1093 27.072C82.6653 27.072 82.3053 26.925 82.0293 26.631C81.7533 26.337 81.6153 25.953 81.6153 25.479V25.272C81.6153 25.212 81.6453 25.182 81.7053 25.182H82.1463C82.2063 25.182 82.2363 25.212 82.2363 25.272V25.452C82.2363 25.77 82.3173 26.028 82.4793 26.226C82.6413 26.418 82.8513 26.514 83.1093 26.514C83.3613 26.514 83.5713 26.421 83.7393 26.235C83.9073 26.049 83.9913 25.803 83.9913 25.497C83.9913 25.293 83.9493 25.119 83.8653 24.975C83.7873 24.825 83.6823 24.696 83.5503 24.588C83.4243 24.474 83.2113 24.303 82.9113 24.075C82.6113 23.853 82.3743 23.664 82.2003 23.508C82.0263 23.346 81.8823 23.154 81.7683 22.932C81.6603 22.71 81.6063 22.449 81.6063 22.149C81.6063 21.681 81.7413 21.312 82.0113 21.042C82.2813 20.766 82.6323 20.628 83.0643 20.628C83.5203 20.628 83.8833 20.778 84.1533 21.078C84.4293 21.372 84.5673 21.765 84.5673 22.257V22.482C84.5673 22.542 84.5373 22.572 84.4773 22.572H84.0273C83.9673 22.572 83.9373 22.542 83.9373 22.482V22.248C83.9373 21.93 83.8563 21.675 83.6943 21.483C83.5383 21.285 83.3283 21.186 83.0643 21.186C82.8243 21.186 82.6263 21.273 82.4703 21.447C82.3143 21.615 82.2363 21.855 82.2363 22.167C82.2363 22.353 82.2693 22.518 82.3353 22.662C82.4073 22.8 82.5123 22.932 82.6503 23.058C82.7883 23.184 82.9923 23.349 83.2623 23.553C83.6223 23.817 83.8893 24.033 84.0633 24.201C84.2433 24.363 84.3813 24.543 84.4773 24.741C84.5733 24.933 84.6213 25.167 84.6213 25.443C84.6213 25.935 84.4803 26.331 84.1983 26.631C83.9163 26.925 83.5533 27.072 83.1093 27.072Z"/><path fill="#3B82F6" d="M88.0055 27C87.9515 27 87.9185 26.973 87.9065 26.919L87.6814 25.803C87.6814 25.791 87.6755 25.782 87.6635 25.776C87.6575 25.77 87.6485 25.767 87.6365 25.767H86.0075C85.9955 25.767 85.9835 25.77 85.9715 25.776C85.9655 25.782 85.9625 25.791 85.9625 25.803L85.7374 26.919C85.7314 26.973 85.6985 27 85.6385 27H85.1795C85.1495 27 85.1255 26.991 85.1075 26.973C85.0955 26.955 85.0924 26.931 85.0984 26.901L86.4485 20.781C86.4605 20.727 86.4935 20.7 86.5475 20.7H87.0875C87.1475 20.7 87.1805 20.727 87.1865 20.781L88.5545 26.901V26.919C88.5545 26.973 88.5274 27 88.4734 27H88.0055ZM86.0795 25.209C86.0795 25.233 86.0885 25.245 86.1065 25.245H87.5285C87.5464 25.245 87.5555 25.233 87.5555 25.209L86.8354 21.672C86.8294 21.654 86.8235 21.645 86.8175 21.645C86.8115 21.645 86.8055 21.654 86.7995 21.672L86.0795 25.209Z"/><path fill="#3B82F6" d="M90.7806 27C90.7506 27 90.7266 26.991 90.7086 26.973C90.6966 26.955 90.6936 26.931 90.6996 26.901L92.3286 20.781C92.3406 20.727 92.3736 20.7 92.4276 20.7H92.8776C92.9076 20.7 92.9286 20.709 92.9406 20.727C92.9586 20.745 92.9646 20.769 92.9586 20.799L91.3296 26.919C91.3176 26.973 91.2846 27 91.2306 27H90.7806Z"/><path fill="#3B82F6" d="M93.7865 27C93.7565 27 93.7325 26.991 93.7145 26.973C93.7025 26.955 93.6995 26.931 93.7055 26.901L95.3345 20.781C95.3465 20.727 95.3795 20.7 95.4335 20.7H95.8835C95.9135 20.7 95.9345 20.709 95.9465 20.727C95.9645 20.745 95.9705 20.769 95.9645 20.799L94.3355 26.919C94.3235 26.973 94.2905 27 94.2365 27H93.7865Z"/><path fill="#3B82F6" d="M101.456 27C101.402 27 101.366 26.976 101.348 26.928L100.43 24.147C100.424 24.129 100.412 24.12 100.394 24.12H99.6111C99.5871 24.12 99.5751 24.132 99.5751 24.156V26.91C99.5751 26.97 99.5451 27 99.4851 27H99.0261C98.9661 27 98.9361 26.97 98.9361 26.91V20.79C98.9361 20.73 98.9661 20.7 99.0261 20.7H100.511C100.949 20.7 101.303 20.862 101.573 21.186C101.843 21.504 101.978 21.921 101.978 22.437C101.978 22.827 101.894 23.163 101.726 23.445C101.558 23.727 101.33 23.925 101.042 24.039C101.018 24.045 101.009 24.06 101.015 24.084L101.996 26.901L102.005 26.937C102.005 26.979 101.978 27 101.924 27H101.456ZM99.6111 21.258C99.5871 21.258 99.5751 21.27 99.5751 21.294V23.571C99.5751 23.595 99.5871 23.607 99.6111 23.607H100.421C100.697 23.607 100.919 23.502 101.087 23.292C101.255 23.076 101.339 22.791 101.339 22.437C101.339 22.083 101.255 21.798 101.087 21.582C100.919 21.366 100.697 21.258 100.421 21.258H99.6111Z"/><path fill="#3B82F6" d="M104.411 27.072C103.949 27.072 103.577 26.913 103.295 26.595C103.013 26.277 102.872 25.857 102.872 25.335V20.79C102.872 20.73 102.902 20.7 102.962 20.7H103.421C103.481 20.7 103.511 20.73 103.511 20.79V25.407C103.511 25.737 103.592 26.004 103.754 26.208C103.922 26.412 104.141 26.514 104.411 26.514C104.687 26.514 104.909 26.412 105.077 26.208C105.245 26.004 105.329 25.737 105.329 25.407V20.79C105.329 20.73 105.359 20.7 105.419 20.7H105.878C105.938 20.7 105.968 20.73 105.968 20.79V25.335C105.968 25.857 105.824 26.277 105.536 26.595C105.254 26.913 104.879 27.072 104.411 27.072Z"/><path fill="#3B82F6" d="M107.297 27C107.237 27 107.207 26.97 107.207 26.91V20.79C107.207 20.73 107.237 20.7 107.297 20.7H107.756C107.816 20.7 107.846 20.73 107.846 20.79V26.91C107.846 26.97 107.816 27 107.756 27H107.297Z"/><path fill="#3B82F6" d="M109.23 27C109.17 27 109.14 26.97 109.14 26.91V20.79C109.14 20.73 109.17 20.7 109.23 20.7H110.616C111.078 20.7 111.447 20.853 111.723 21.159C111.999 21.459 112.137 21.864 112.137 22.374V25.326C112.137 25.836 111.999 26.244 111.723 26.55C111.447 26.85 111.078 27 110.616 27H109.23ZM109.779 26.406C109.779 26.43 109.791 26.442 109.815 26.442L110.607 26.433C110.871 26.433 111.081 26.331 111.237 26.127C111.399 25.923 111.483 25.647 111.489 25.299V22.401C111.489 22.047 111.411 21.768 111.255 21.564C111.099 21.36 110.883 21.258 110.607 21.258H109.815C109.791 21.258 109.779 21.27 109.779 21.294V26.406Z"/><path fill="#3B82F6" d="M114.719 27.072C114.257 27.072 113.882 26.928 113.594 26.64C113.312 26.352 113.171 25.971 113.171 25.497V22.203C113.171 21.729 113.312 21.348 113.594 21.06C113.882 20.772 114.257 20.628 114.719 20.628C115.187 20.628 115.565 20.772 115.853 21.06C116.141 21.348 116.285 21.729 116.285 22.203V25.497C116.285 25.965 116.141 26.346 115.853 26.64C115.565 26.928 115.187 27.072 114.719 27.072ZM114.719 26.514C114.995 26.514 115.217 26.424 115.385 26.244C115.559 26.058 115.646 25.821 115.646 25.533V22.176C115.646 21.882 115.559 21.645 115.385 21.465C115.217 21.279 114.995 21.186 114.719 21.186C114.449 21.186 114.23 21.279 114.062 21.465C113.894 21.645 113.81 21.882 113.81 22.176V25.533C113.81 25.821 113.894 26.058 114.062 26.244C114.23 26.424 114.449 26.514 114.719 26.514Z"/><path fill="#fff" d="M7.0484 17.4825C6.89273 17.4825 6.79154 17.4047 6.74484 17.249L4.76009 10.5475C4.72896 10.4853 4.69004 10.4541 4.64334 10.4541H3.40579C3.32796 10.4541 3.28904 10.4931 3.28904 10.5709V17.2023C3.28904 17.2801 3.25791 17.3502 3.19564 17.4124C3.14894 17.4591 3.08668 17.4825 3.00884 17.4825H0.860644C0.782811 17.4825 0.712761 17.4591 0.650494 17.4124C0.603794 17.3502 0.580444 17.2801 0.580444 17.2023V1.41768C0.580444 1.33985 0.603794 1.27758 0.650494 1.23088C0.712761 1.16862 0.782811 1.13748 0.860644 1.13748H5.25044C6.07548 1.13748 6.79933 1.33985 7.42199 1.74458C8.06023 2.13375 8.55058 2.69415 8.89305 3.42578C9.25108 4.14185 9.43009 4.96688 9.43009 5.90088C9.43009 6.86602 9.2433 7.69883 8.86969 8.39933C8.49609 9.09983 7.97461 9.6291 7.30524 9.98713C7.24298 10.0027 7.21963 10.0494 7.23519 10.1272L9.52349 17.1556C9.53906 17.1867 9.54685 17.2256 9.54685 17.2723C9.54685 17.4124 9.46123 17.4825 9.29 17.4825H7.0484ZM3.40579 3.47248C3.32796 3.47248 3.28904 3.5114 3.28904 3.58923V8.23588C3.28904 8.31372 3.32796 8.35263 3.40579 8.35263H4.83014C5.39054 8.35263 5.84198 8.1347 6.18444 7.69883C6.54248 7.26297 6.72149 6.67143 6.72149 5.92423C6.72149 5.17703 6.54248 4.5855 6.18444 4.14963C5.84198 3.6982 5.39054 3.47248 4.83014 3.47248H3.40579Z"/><path fill="#fff" d="M18.1572 17.4825C17.9704 17.4825 17.8692 17.3969 17.8536 17.2256L17.41 14.7739C17.41 14.6961 17.3633 14.6571 17.2699 14.6571H13.8608C13.7674 14.6571 13.7207 14.6961 13.7207 14.7739L13.277 17.2256C13.2614 17.3969 13.1603 17.4825 12.9735 17.4825H10.8486C10.6307 17.4825 10.5451 17.3813 10.5918 17.1789L14.0476 1.39433C14.0787 1.2231 14.1799 1.13748 14.3511 1.13748H16.8262C16.9974 1.13748 17.0986 1.2231 17.1298 1.39433L20.5856 17.1789V17.2723C20.5856 17.4124 20.4999 17.4825 20.3287 17.4825H18.1572ZM14.141 12.4155C14.1254 12.4934 14.1643 12.5323 14.2577 12.5323H16.8496C16.943 12.5323 16.9819 12.4934 16.9663 12.4155L15.612 5.03693C15.5964 4.99023 15.5731 4.96688 15.542 4.96688C15.5108 4.96688 15.4875 4.99023 15.4719 5.03693L14.141 12.4155Z"/><path fill="#fff" d="M22.4548 17.4825C22.377 17.4825 22.3069 17.4591 22.2447 17.4124C22.198 17.3502 22.1746 17.2801 22.1746 17.2023V1.41768C22.1746 1.33985 22.198 1.27758 22.2447 1.23088C22.3069 1.16862 22.377 1.13748 22.4548 1.13748H26.4477C27.7864 1.13748 28.8527 1.54222 29.6466 2.35168C30.4561 3.16115 30.8608 4.24303 30.8608 5.59733V13.0226C30.8608 14.3769 30.4561 15.4588 29.6466 16.2683C28.8527 17.0778 27.7864 17.4825 26.4477 17.4825H22.4548ZM24.8832 15.0307C24.8832 15.1086 24.9221 15.1475 25 15.1475L26.401 15.1241C26.9147 15.1241 27.3272 14.9218 27.6385 14.517C27.9654 14.0967 28.1367 13.5441 28.1522 12.8592V5.76078C28.1522 5.06028 27.9888 4.50767 27.6619 4.10293C27.3505 3.68263 26.9225 3.47248 26.3776 3.47248H25C24.9221 3.47248 24.8832 3.5114 24.8832 3.58923V15.0307Z"/><path fill="#fff" d="M33.4686 17.4825C33.3907 17.4825 33.3207 17.4591 33.2584 17.4124C33.2117 17.3502 33.1884 17.2801 33.1884 17.2023V1.41768C33.1884 1.33985 33.2117 1.27758 33.2584 1.23088C33.3207 1.16862 33.3907 1.13748 33.4686 1.13748H35.6168C35.6946 1.13748 35.7569 1.16862 35.8036 1.23088C35.8658 1.27758 35.897 1.33985 35.897 1.41768V17.2023C35.897 17.2801 35.8658 17.3502 35.8036 17.4124C35.7569 17.4591 35.6946 17.4825 35.6168 17.4825H33.4686Z"/><path fill="#fff" d="M42.5898 17.6693C41.2511 17.6693 40.1692 17.2646 39.3442 16.4551C38.5347 15.6456 38.13 14.5715 38.13 13.2328V5.38718C38.13 4.04845 38.5347 2.97435 39.3442 2.16488C40.1692 1.35542 41.2511 0.950684 42.5898 0.950684C43.9286 0.950684 45.0104 1.35542 45.8355 2.16488C46.6605 2.97435 47.073 4.04845 47.073 5.38718V13.2328C47.073 14.5715 46.6605 15.6456 45.8355 16.4551C45.0104 17.2646 43.9286 17.6693 42.5898 17.6693ZM42.5898 15.3343C43.1191 15.3343 43.5472 15.1553 43.8741 14.7972C44.201 14.4236 44.3644 13.9411 44.3644 13.3495V5.27043C44.3644 4.6789 44.201 4.20412 43.8741 3.84608C43.5472 3.47248 43.1191 3.28568 42.5898 3.28568C42.0606 3.28568 41.6325 3.47248 41.3056 3.84608C40.9942 4.20412 40.8386 4.6789 40.8386 5.27043V13.3495C40.8386 13.9411 40.9942 14.4236 41.3056 14.7972C41.6325 15.1553 42.0606 15.3343 42.5898 15.3343Z"/><path fill="#fff" d="M62.1336 3.19228C62.1336 3.27012 62.1025 3.34017 62.0402 3.40243C61.9935 3.44913 61.9312 3.47248 61.8534 3.47248H56.8098C56.732 3.47248 56.693 3.5114 56.693 3.58923V8.00238C56.693 8.08022 56.732 8.11913 56.8098 8.11913H59.7986C59.8764 8.11913 59.9387 8.15027 59.9854 8.21253C60.0477 8.25923 60.0788 8.3215 60.0788 8.39933V10.1973C60.0788 10.2751 60.0477 10.3452 59.9854 10.4074C59.9387 10.4541 59.8764 10.4775 59.7986 10.4775H56.8098C56.732 10.4775 56.693 10.5164 56.693 10.5942V15.0307C56.693 15.1086 56.732 15.1475 56.8098 15.1475H61.8534C61.9312 15.1475 61.9935 15.1786 62.0402 15.2409C62.1025 15.2876 62.1336 15.3499 62.1336 15.4277V17.2023C62.1336 17.2801 62.1025 17.3502 62.0402 17.4124C61.9935 17.4591 61.9312 17.4825 61.8534 17.4825H54.2646C54.1868 17.4825 54.1168 17.4591 54.0545 17.4124C54.0078 17.3502 53.9844 17.2801 53.9844 17.2023V1.41768C53.9844 1.33985 54.0078 1.27758 54.0545 1.23088C54.1168 1.16862 54.1868 1.13748 54.2646 1.13748H61.8534C61.9312 1.13748 61.9935 1.16862 62.0402 1.23088C62.1025 1.27758 62.1336 1.33985 62.1336 1.41768V3.19228Z"/><path fill="#fff" d="M70.7631 1.41768C70.7631 1.33985 70.7864 1.27758 70.8331 1.23088C70.8954 1.16862 70.9654 1.13748 71.0433 1.13748H73.1681C73.2459 1.13748 73.3082 1.16862 73.3549 1.23088C73.4172 1.27758 73.4483 1.33985 73.4483 1.41768V17.2023C73.4483 17.2801 73.4172 17.3502 73.3549 17.4124C73.3082 17.4591 73.2459 17.4825 73.1681 17.4825H70.7164C70.5607 17.4825 70.4595 17.4047 70.4128 17.249L66.9337 7.34858C66.9181 7.30188 66.887 7.28632 66.8403 7.30188C66.8091 7.30188 66.7936 7.32523 66.7936 7.37193L66.8169 17.2023C66.8169 17.2801 66.7858 17.3502 66.7235 17.4124C66.6768 17.4591 66.6145 17.4825 66.5367 17.4825H64.4119C64.334 17.4825 64.264 17.4591 64.2017 17.4124C64.155 17.3502 64.1317 17.2801 64.1317 17.2023V1.41768C64.1317 1.33985 64.155 1.27758 64.2017 1.23088C64.264 1.16862 64.334 1.13748 64.4119 1.13748H66.8169C66.9726 1.13748 67.0738 1.21532 67.1205 1.37098L70.623 11.2013C70.6385 11.248 70.6619 11.2714 70.693 11.2714C70.7397 11.2558 70.7631 11.2247 70.7631 11.178V1.41768Z"/><path fill="#fff" d="M83.6763 17.4825C83.5051 17.4825 83.4039 17.3969 83.3728 17.2256L80.0337 1.44103L80.0104 1.34763C80.0104 1.20753 80.096 1.13748 80.2673 1.13748H82.6256C82.8124 1.13748 82.9136 1.2231 82.9291 1.39433L84.8672 12.6257C84.8828 12.6724 84.9061 12.6957 84.9372 12.6957C84.9684 12.6957 84.9917 12.6724 85.0073 12.6257L86.8986 1.39433C86.9142 1.2231 87.0154 1.13748 87.2022 1.13748H89.4905C89.6929 1.13748 89.7707 1.23867 89.724 1.44103L86.3616 17.2256C86.3305 17.3969 86.2293 17.4825 86.058 17.4825H83.6763Z"/><path fill="#fff" d="M91.912 17.4825C91.8341 17.4825 91.7641 17.4591 91.7018 17.4124C91.6551 17.3502 91.6318 17.2801 91.6318 17.2023V1.41768C91.6318 1.33985 91.6551 1.27758 91.7018 1.23088C91.7641 1.16862 91.8341 1.13748 91.912 1.13748H94.0602C94.138 1.13748 94.2003 1.16862 94.247 1.23088C94.3092 1.27758 94.3404 1.33985 94.3404 1.41768V17.2023C94.3404 17.2801 94.3092 17.3502 94.247 17.4124C94.2003 17.4591 94.138 17.4825 94.0602 17.4825H91.912Z"/><path fill="#fff" d="M99.8891 17.4825C99.7179 17.4825 99.6167 17.3969 99.5855 17.2256L96.2465 1.44103L96.2231 1.34763C96.2231 1.20753 96.3088 1.13748 96.48 1.13748H98.8383C99.0251 1.13748 99.1263 1.2231 99.1419 1.39433L101.08 12.6257C101.096 12.6724 101.119 12.6957 101.15 12.6957C101.181 12.6957 101.204 12.6724 101.22 12.6257L103.111 1.39433C103.127 1.2231 103.228 1.13748 103.415 1.13748H105.703C105.906 1.13748 105.983 1.23867 105.937 1.44103L102.574 17.2256C102.543 17.3969 102.442 17.4825 102.271 17.4825H99.8891Z"/><path fill="#fff" d="M111.705 17.6693C110.366 17.6693 109.284 17.2646 108.459 16.4551C107.65 15.6456 107.245 14.5715 107.245 13.2328V5.38718C107.245 4.04845 107.65 2.97435 108.459 2.16488C109.284 1.35542 110.366 0.950684 111.705 0.950684C113.044 0.950684 114.126 1.35542 114.951 2.16488C115.776 2.97435 116.188 4.04845 116.188 5.38718V13.2328C116.188 14.5715 115.776 15.6456 114.951 16.4551C114.126 17.2646 113.044 17.6693 111.705 17.6693ZM111.705 15.3343C112.234 15.3343 112.662 15.1553 112.989 14.7972C113.316 14.4236 113.48 13.9411 113.48 13.3495V5.27043C113.48 4.6789 113.316 4.20412 112.989 3.84608C112.662 3.47248 112.234 3.28568 111.705 3.28568C111.176 3.28568 110.748 3.47248 110.421 3.84608C110.109 4.20412 109.954 4.6789 109.954 5.27043V13.3495C109.954 13.9411 110.109 14.4236 110.421 14.7972C110.748 15.1553 111.176 15.3343 111.705 15.3343Z"/></svg>